<ttFont>
    <TTGlyph name="A" xMin="2" yMin="0" xMax="629" yMax="732">
      <contour>
        <pt x="629" y="0" on="1"/>
        <pt x="481" y="0" on="1"/>
        <pt x="409" y="210" on="1"/>
        <pt x="193" y="210" on="1"/>
        <pt x="118" y="0" on="1"/>
        <pt x="2" y="0" on="1"/>
        <pt x="261" y="732" on="1"/>
        <pt x="370" y="732" on="1"/>
      </contour>
      <contour>
        <pt x="376" y="308" on="1"/>
        <pt x="328" y="455" on="0"/>
        <pt x="300" y="558" on="1"/>
        <pt x="266" y="433" on="0"/>
        <pt x="227" y="308" on="1"/>
      </contour>
    </TTGlyph>
    <TTGlyph name="AE" xMin="-2" yMin="0" xMax="887" yMax="732">
      <contour>
        <pt x="887" y="0" on="1"/>
        <pt x="442" y="0" on="1"/>
        <pt x="442" y="210" on="1"/>
        <pt x="227" y="210" on="1"/>
        <pt x="120" y="0" on="1"/>
        <pt x="-2" y="0" on="1"/>
        <pt x="337" y="670" on="1"/>
        <pt x="323" y="732" on="1"/>
        <pt x="887" y="732" on="1"/>
        <pt x="887" y="633" on="1"/>
        <pt x="580" y="633" on="1"/>
        <pt x="580" y="426" on="1"/>
        <pt x="815" y="426" on="1"/>
        <pt x="815" y="327" on="1"/>
        <pt x="580" y="327" on="1"/>
        <pt x="580" y="99" on="1"/>
        <pt x="887" y="99" on="1"/>
      </contour>
      <contour>
        <pt x="442" y="308" on="1"/>
        <pt x="442" y="633" on="1"/>
        <pt x="278" y="308" on="1"/>
      </contour>
    </TTGlyph>
    <TTGlyph name="Aacute" xMin="2" yMin="0" xMax="629" yMax="881">
      <contour>
        <pt x="629" y="0" on="1"/>
        <pt x="485" y="0" on="1"/>
        <pt x="414" y="190" on="1"/>
        <pt x="190" y="190" on="1"/>
        <pt x="118" y="0" on="1"/>
        <pt x="2" y="0" on="1"/>
        <pt x="259" y="680" on="1"/>
        <pt x="370" y="680" on="1"/>
      </contour>
      <contour>
        <pt x="376" y="288" on="1"/>
        <pt x="348" y="371" on="0"/>
        <pt x="302" y="539" on="1"/>
        <pt x="272" y="427" on="0"/>
        <pt x="227" y="288" on="1"/>
      </contour>
      <contour>
        <pt x="499" y="881" on="1"/>
        <pt x="348" y="716" on="1"/>
        <pt x="245" y="716" on="1"/>
        <pt x="354" y="881" on="1"/>
      </contour>
    </TTGlyph>
    <TTGlyph name="Acircumflex" xMin="2" yMin="0" xMax="629" yMax="858">
      <contour>
        <pt x="629" y="0" on="1"/>
        <pt x="485" y="0" on="1"/>
        <pt x="414" y="190" on="1"/>
        <pt x="190" y="190" on="1"/>
        <pt x="118" y="0" on="1"/>
        <pt x="2" y="0" on="1"/>
        <pt x="259" y="680" on="1"/>
        <pt x="370" y="680" on="1"/>
      </contour>
      <contour>
        <pt x="376" y="288" on="1"/>
        <pt x="348" y="371" on="0"/>
        <pt x="302" y="539" on="1"/>
        <pt x="272" y="427" on="0"/>
        <pt x="227" y="288" on="1"/>
      </contour>
      <contour>
        <pt x="460" y="713" on="1"/>
        <pt x="382" y="713" on="1"/>
        <pt x="312" y="787" on="1"/>
        <pt x="243" y="713" on="1"/>
        <pt x="167" y="713" on="1"/>
        <pt x="263" y="858" on="1"/>
        <pt x="361" y="858" on="1"/>
      </contour>
    </TTGlyph>
    <TTGlyph name="Adieresis" xMin="2" yMin="0" xMax="629" yMax="849">
      <contour>
        <pt x="629" y="0" on="1"/>
        <pt x="485" y="0" on="1"/>
        <pt x="414" y="190" on="1"/>
        <pt x="190" y="190" on="1"/>
        <pt x="118" y="0" on="1"/>
        <pt x="2" y="0" on="1"/>
        <pt x="259" y="680" on="1"/>
        <pt x="370" y="680" on="1"/>
      </contour>
      <contour>
        <pt x="376" y="288" on="1"/>
        <pt x="348" y="371" on="0"/>
        <pt x="302" y="539" on="1"/>
        <pt x="272" y="427" on="0"/>
        <pt x="227" y="288" on="1"/>
      </contour>
      <contour>
        <pt x="396" y="735" on="1"/>
        <pt x="373" y="735" on="0"/>
        <pt x="339" y="769" on="0"/>
        <pt x="339" y="815" on="0"/>
        <pt x="373" y="849" on="0"/>
        <pt x="396" y="849" on="1"/>
        <pt x="420" y="849" on="0"/>
        <pt x="454" y="816" on="0"/>
        <pt x="454" y="768" on="0"/>
        <pt x="420" y="735" on="0"/>
      </contour>
      <contour>
        <pt x="276" y="832" on="1"/>
        <pt x="293" y="816" on="0"/>
        <pt x="293" y="768" on="0"/>
        <pt x="260" y="735" on="0"/>
        <pt x="236" y="735" on="1"/>
        <pt x="212" y="735" on="0"/>
        <pt x="179" y="768" on="0"/>
        <pt x="179" y="816" on="0"/>
        <pt x="212" y="849" on="0"/>
        <pt x="236" y="849" on="1"/>
        <pt x="260" y="849" on="0"/>
      </contour>
    </TTGlyph>
    <TTGlyph name="Agrave" xMin="2" yMin="0" xMax="629" yMax="882">
      <contour>
        <pt x="629" y="0" on="1"/>
        <pt x="485" y="0" on="1"/>
        <pt x="414" y="190" on="1"/>
        <pt x="190" y="190" on="1"/>
        <pt x="118" y="0" on="1"/>
        <pt x="2" y="0" on="1"/>
        <pt x="259" y="680" on="1"/>
        <pt x="370" y="680" on="1"/>
      </contour>
      <contour>
        <pt x="376" y="288" on="1"/>
        <pt x="348" y="371" on="0"/>
        <pt x="302" y="539" on="1"/>
        <pt x="272" y="427" on="0"/>
        <pt x="227" y="288" on="1"/>
      </contour>
      <contour>
        <pt x="383" y="717" on="1"/>
        <pt x="280" y="717" on="1"/>
        <pt x="129" y="882" on="1"/>
        <pt x="274" y="882" on="1"/>
      </contour>
    </TTGlyph>
    <TTGlyph name="Aring" xMin="2" yMin="0" xMax="629" yMax="855">
      <contour>
        <pt x="629" y="0" on="1"/>
        <pt x="485" y="0" on="1"/>
        <pt x="414" y="190" on="1"/>
        <pt x="190" y="190" on="1"/>
        <pt x="118" y="0" on="1"/>
        <pt x="2" y="0" on="1"/>
        <pt x="253" y="664" on="1"/>
        <pt x="207" y="696" on="0"/>
        <pt x="207" y="751" on="1"/>
        <pt x="207" y="795" on="0"/>
        <pt x="269" y="855" on="0"/>
        <pt x="313" y="855" on="1"/>
        <pt x="358" y="855" on="0"/>
        <pt x="421" y="796" on="0"/>
        <pt x="421" y="752" on="1"/>
        <pt x="421" y="697" on="0"/>
        <pt x="376" y="665" on="1"/>
      </contour>
      <contour>
        <pt x="273" y="752" on="1"/>
        <pt x="273" y="735" on="0"/>
        <pt x="297" y="711" on="0"/>
        <pt x="313" y="711" on="1"/>
        <pt x="330" y="711" on="0"/>
        <pt x="354" y="736" on="0"/>
        <pt x="354" y="768" on="0"/>
        <pt x="329" y="792" on="0"/>
        <pt x="313" y="792" on="1"/>
        <pt x="297" y="792" on="0"/>
        <pt x="273" y="768" on="0"/>
      </contour>
      <contour>
        <pt x="376" y="288" on="1"/>
        <pt x="348" y="371" on="0"/>
        <pt x="302" y="539" on="1"/>
        <pt x="272" y="427" on="0"/>
        <pt x="227" y="288" on="1"/>
      </contour>
    </TTGlyph>
    <TTGlyph name="Atilde" xMin="2" yMin="0" xMax="629" yMax="840">
      <contour>
        <pt x="629" y="0" on="1"/>
        <pt x="485" y="0" on="1"/>
        <pt x="414" y="190" on="1"/>
        <pt x="190" y="190" on="1"/>
        <pt x="118" y="0" on="1"/>
        <pt x="2" y="0" on="1"/>
        <pt x="259" y="680" on="1"/>
        <pt x="370" y="680" on="1"/>
      </contour>
      <contour>
        <pt x="376" y="288" on="1"/>
        <pt x="348" y="371" on="0"/>
        <pt x="302" y="539" on="1"/>
        <pt x="272" y="427" on="0"/>
        <pt x="227" y="288" on="1"/>
      </contour>
      <contour>
        <pt x="489" y="830" on="1"/>
        <pt x="489" y="780" on="0"/>
        <pt x="432" y="713" on="0"/>
        <pt x="383" y="713" on="1"/>
        <pt x="353" y="713" on="0"/>
        <pt x="270" y="753" on="0"/>
        <pt x="253" y="753" on="1"/>
        <pt x="238" y="753" on="0"/>
        <pt x="213" y="737" on="0"/>
        <pt x="213" y="723" on="1"/>
        <pt x="148" y="723" on="1"/>
        <pt x="148" y="773" on="0"/>
        <pt x="205" y="840" on="0"/>
        <pt x="254" y="840" on="1"/>
        <pt x="284" y="840" on="0"/>
        <pt x="367" y="800" on="0"/>
        <pt x="384" y="800" on="1"/>
        <pt x="398" y="800" on="0"/>
        <pt x="424" y="816" on="0"/>
        <pt x="425" y="830" on="1"/>
      </contour>
    </TTGlyph>
    <TTGlyph name="B" xMin="53" yMin="0" xMax="586" yMax="732">
      <contour>
        <pt x="586" y="203" on="1"/>
        <pt x="586" y="132" on="0"/>
        <pt x="506" y="37" on="0"/>
        <pt x="392" y="0" on="0"/>
        <pt x="323" y="0" on="1"/>
        <pt x="67" y="0" on="1"/>
        <pt x="67" y="671" on="1"/>
        <pt x="67" y="672" on="0"/>
        <pt x="60" y="700" on="0"/>
        <pt x="53" y="730" on="0"/>
        <pt x="53" y="732" on="1"/>
        <pt x="313" y="732" on="1"/>
        <pt x="360" y="732" on="0"/>
        <pt x="439" y="717" on="0"/>
        <pt x="511" y="681" on="0"/>
        <pt x="552" y="610" on="0"/>
        <pt x="552" y="561" on="1"/>
        <pt x="552" y="498" on="0"/>
        <pt x="466" y="408" on="0"/>
        <pt x="403" y="399" on="1"/>
        <pt x="480" y="386" on="0"/>
        <pt x="586" y="279" on="0"/>
      </contour>
      <contour>
        <pt x="407" y="542" on="1"/>
        <pt x="407" y="588" on="0"/>
        <pt x="352" y="633" on="0"/>
        <pt x="305" y="633" on="1"/>
        <pt x="205" y="633" on="1"/>
        <pt x="205" y="446" on="1"/>
        <pt x="308" y="446" on="1"/>
        <pt x="351" y="446" on="0"/>
        <pt x="407" y="499" on="0"/>
      </contour>
      <contour>
        <pt x="441" y="219" on="1"/>
        <pt x="441" y="282" on="0"/>
        <pt x="349" y="347" on="0"/>
        <pt x="283" y="347" on="1"/>
        <pt x="205" y="347" on="1"/>
        <pt x="205" y="99" on="1"/>
        <pt x="314" y="99" on="1"/>
        <pt x="371" y="99" on="0"/>
        <pt x="441" y="163" on="0"/>
      </contour>
    </TTGlyph>
    <TTGlyph name="C" xMin="20" yMin="-12" xMax="612" yMax="746">
      <contour>
        <pt x="612" y="62" on="1"/>
        <pt x="549" y="23" on="0"/>
        <pt x="440" y="-12" on="0"/>
        <pt x="370" y="-12" on="1"/>
        <pt x="201" y="-12" on="0"/>
        <pt x="20" y="200" on="0"/>
        <pt x="20" y="371" on="1"/>
        <pt x="20" y="534" on="0"/>
        <pt x="210" y="746" on="0"/>
        <pt x="371" y="746" on="1"/>
        <pt x="433" y="746" on="0"/>
        <pt x="569" y="710" on="0"/>
        <pt x="608" y="675" on="1"/>
        <pt x="536" y="583" on="1"/>
        <pt x="509" y="613" on="0"/>
        <pt x="419" y="649" on="0"/>
        <pt x="376" y="649" on="1"/>
        <pt x="302" y="649" on="0"/>
        <pt x="205" y="565" on="0"/>
        <pt x="169" y="447" on="0"/>
        <pt x="169" y="374" on="1"/>
        <pt x="169" y="326" on="0"/>
        <pt x="194" y="227" on="0"/>
        <pt x="242" y="138" on="0"/>
        <pt x="326" y="82" on="0"/>
        <pt x="378" y="82" on="1"/>
        <pt x="471" y="82" on="0"/>
        <pt x="549" y="157" on="1"/>
      </contour>
    </TTGlyph>
    <TTGlyph name="Ccedilla" xMin="20" yMin="-220" xMax="612" yMax="746">
      <contour>
        <pt x="612" y="62" on="1"/>
        <pt x="549" y="23" on="0"/>
        <pt x="440" y="-12" on="0"/>
        <pt x="368" y="-12" on="1"/>
        <pt x="348" y="-48" on="1"/>
        <pt x="352" y="-48" on="1"/>
        <pt x="396" y="-48" on="0"/>
        <pt x="462" y="-85" on="0"/>
        <pt x="462" y="-126" on="1"/>
        <pt x="462" y="-220" on="0"/>
        <pt x="327" y="-220" on="1"/>
        <pt x="286" y="-220" on="0"/>
        <pt x="235" y="-190" on="1"/>
        <pt x="263" y="-140" on="1"/>
        <pt x="304" y="-162" on="0"/>
        <pt x="330" y="-162" on="1"/>
        <pt x="346" y="-162" on="0"/>
        <pt x="369" y="-143" on="0"/>
        <pt x="369" y="-129" on="1"/>
        <pt x="369" y="-100" on="0"/>
        <pt x="336" y="-100" on="1"/>
        <pt x="289" y="-100" on="1"/>
        <pt x="270" y="-100" on="0"/>
        <pt x="270" y="-83" on="1"/>
        <pt x="270" y="-78" on="0"/>
        <pt x="273" y="-73" on="1"/>
        <pt x="311" y="-8" on="1"/>
        <pt x="170" y="10" on="0"/>
        <pt x="20" y="216" on="0"/>
        <pt x="20" y="371" on="1"/>
        <pt x="20" y="534" on="0"/>
        <pt x="210" y="746" on="0"/>
        <pt x="371" y="746" on="1"/>
        <pt x="433" y="746" on="0"/>
        <pt x="569" y="710" on="0"/>
        <pt x="608" y="675" on="1"/>
        <pt x="536" y="583" on="1"/>
        <pt x="509" y="613" on="0"/>
        <pt x="419" y="649" on="0"/>
        <pt x="376" y="649" on="1"/>
        <pt x="302" y="649" on="0"/>
        <pt x="205" y="565" on="0"/>
        <pt x="169" y="447" on="0"/>
        <pt x="169" y="374" on="1"/>
        <pt x="169" y="326" on="0"/>
        <pt x="194" y="227" on="0"/>
        <pt x="242" y="138" on="0"/>
        <pt x="326" y="82" on="0"/>
        <pt x="378" y="82" on="1"/>
        <pt x="471" y="82" on="0"/>
        <pt x="549" y="157" on="1"/>
      </contour>
    </TTGlyph>
    <TTGlyph name="D" xMin="51" yMin="0" xMax="680" yMax="732">
      <contour>
        <pt x="680" y="365" on="1"/>
        <pt x="680" y="197" on="0"/>
        <pt x="577" y="95" on="1"/>
        <pt x="482" y="0" on="0"/>
        <pt x="327" y="0" on="1"/>
        <pt x="67" y="0" on="1"/>
        <pt x="67" y="671" on="1"/>
        <pt x="67" y="672" on="0"/>
        <pt x="52" y="729" on="0"/>
        <pt x="51" y="732" on="1"/>
        <pt x="328" y="732" on="1"/>
        <pt x="493" y="732" on="0"/>
        <pt x="680" y="531" on="0"/>
      </contour>
      <contour>
        <pt x="532" y="361" on="1"/>
        <pt x="532" y="433" on="0"/>
        <pt x="492" y="551" on="0"/>
        <pt x="393" y="633" on="0"/>
        <pt x="319" y="633" on="1"/>
        <pt x="205" y="633" on="1"/>
        <pt x="205" y="99" on="1"/>
        <pt x="321" y="99" on="1"/>
        <pt x="376" y="99" on="0"/>
        <pt x="460" y="142" on="0"/>
        <pt x="508" y="217" on="0"/>
        <pt x="532" y="308" on="0"/>
      </contour>
    </TTGlyph>
    <TTGlyph name="Delta" xMin="2" yMin="0" xMax="629" yMax="732">
      <contour>
        <pt x="629" y="0" on="1"/>
        <pt x="2" y="0" on="1"/>
        <pt x="2" y="67" on="1"/>
        <pt x="261" y="732" on="1"/>
        <pt x="370" y="732" on="1"/>
        <pt x="629" y="67" on="1"/>
      </contour>
      <contour>
        <pt x="130" y="99" on="1"/>
        <pt x="468" y="99" on="1"/>
        <pt x="378" y="333" on="0"/>
        <pt x="324" y="487" on="1"/>
        <pt x="317" y="506" on="0"/>
        <pt x="300" y="585" on="0"/>
        <pt x="300" y="586" on="1"/>
        <pt x="299" y="582" on="0"/>
        <pt x="290" y="543" on="0"/>
        <pt x="279" y="500" on="0"/>
        <pt x="274" y="486" on="1"/>
        <pt x="194" y="262" on="0"/>
      </contour>
    </TTGlyph>
    <TTGlyph name="E" xMin="52" yMin="0" xMax="512" yMax="732">
      <contour>
        <pt x="512" y="0" on="1"/>
        <pt x="67" y="0" on="1"/>
        <pt x="67" y="671" on="1"/>
        <pt x="52" y="732" on="1"/>
        <pt x="512" y="732" on="1"/>
        <pt x="512" y="633" on="1"/>
        <pt x="204" y="633" on="1"/>
        <pt x="204" y="426" on="1"/>
        <pt x="440" y="426" on="1"/>
        <pt x="440" y="327" on="1"/>
        <pt x="204" y="327" on="1"/>
        <pt x="204" y="99" on="1"/>
        <pt x="512" y="99" on="1"/>
      </contour>
    </TTGlyph>
    <TTGlyph name="Eacute" xMin="54" yMin="0" xMax="513" yMax="881">
      <contour>
        <pt x="513" y="0" on="1"/>
        <pt x="68" y="0" on="1"/>
        <pt x="68" y="613" on="1"/>
        <pt x="68" y="614" on="0"/>
        <pt x="61" y="642" on="0"/>
        <pt x="54" y="672" on="0"/>
        <pt x="54" y="674" on="1"/>
        <pt x="513" y="674" on="1"/>
        <pt x="513" y="575" on="1"/>
        <pt x="206" y="575" on="1"/>
        <pt x="206" y="391" on="1"/>
        <pt x="441" y="391" on="1"/>
        <pt x="441" y="292" on="1"/>
        <pt x="206" y="292" on="1"/>
        <pt x="206" y="99" on="1"/>
        <pt x="513" y="99" on="1"/>
      </contour>
      <contour>
        <pt x="472" y="881" on="1"/>
        <pt x="321" y="716" on="1"/>
        <pt x="218" y="716" on="1"/>
        <pt x="327" y="881" on="1"/>
      </contour>
    </TTGlyph>
    <TTGlyph name="Ecircumflex" xMin="54" yMin="0" xMax="513" yMax="862">
      <contour>
        <pt x="513" y="0" on="1"/>
        <pt x="68" y="0" on="1"/>
        <pt x="68" y="613" on="1"/>
        <pt x="68" y="614" on="0"/>
        <pt x="61" y="642" on="0"/>
        <pt x="54" y="672" on="0"/>
        <pt x="54" y="674" on="1"/>
        <pt x="513" y="674" on="1"/>
        <pt x="513" y="575" on="1"/>
        <pt x="206" y="575" on="1"/>
        <pt x="206" y="391" on="1"/>
        <pt x="441" y="391" on="1"/>
        <pt x="441" y="292" on="1"/>
        <pt x="206" y="292" on="1"/>
        <pt x="206" y="99" on="1"/>
        <pt x="513" y="99" on="1"/>
      </contour>
      <contour>
        <pt x="442" y="717" on="1"/>
        <pt x="364" y="717" on="1"/>
        <pt x="294" y="791" on="1"/>
        <pt x="225" y="717" on="1"/>
        <pt x="149" y="717" on="1"/>
        <pt x="245" y="862" on="1"/>
        <pt x="343" y="862" on="1"/>
      </contour>
    </TTGlyph>
    <TTGlyph name="Edieresis" xMin="54" yMin="0" xMax="513" yMax="849">
      <contour>
        <pt x="513" y="0" on="1"/>
        <pt x="68" y="0" on="1"/>
        <pt x="68" y="613" on="1"/>
        <pt x="68" y="614" on="0"/>
        <pt x="61" y="642" on="0"/>
        <pt x="54" y="672" on="0"/>
        <pt x="54" y="674" on="1"/>
        <pt x="513" y="674" on="1"/>
        <pt x="513" y="575" on="1"/>
        <pt x="206" y="575" on="1"/>
        <pt x="206" y="391" on="1"/>
        <pt x="441" y="391" on="1"/>
        <pt x="441" y="292" on="1"/>
        <pt x="206" y="292" on="1"/>
        <pt x="206" y="99" on="1"/>
        <pt x="513" y="99" on="1"/>
      </contour>
      <contour>
        <pt x="378" y="735" on="1"/>
        <pt x="355" y="735" on="0"/>
        <pt x="321" y="769" on="0"/>
        <pt x="321" y="815" on="0"/>
        <pt x="355" y="849" on="0"/>
        <pt x="378" y="849" on="1"/>
        <pt x="402" y="849" on="0"/>
        <pt x="436" y="816" on="0"/>
        <pt x="436" y="768" on="0"/>
        <pt x="402" y="735" on="0"/>
      </contour>
      <contour>
        <pt x="258" y="832" on="1"/>
        <pt x="275" y="816" on="0"/>
        <pt x="275" y="768" on="0"/>
        <pt x="242" y="735" on="0"/>
        <pt x="218" y="735" on="1"/>
        <pt x="194" y="735" on="0"/>
        <pt x="161" y="768" on="0"/>
        <pt x="161" y="816" on="0"/>
        <pt x="194" y="849" on="0"/>
        <pt x="218" y="849" on="1"/>
        <pt x="242" y="849" on="0"/>
      </contour>
    </TTGlyph>
    <TTGlyph name="Egrave" xMin="54" yMin="0" xMax="513" yMax="882">
      <contour>
        <pt x="513" y="0" on="1"/>
        <pt x="68" y="0" on="1"/>
        <pt x="68" y="613" on="1"/>
        <pt x="68" y="614" on="0"/>
        <pt x="61" y="642" on="0"/>
        <pt x="54" y="672" on="0"/>
        <pt x="54" y="674" on="1"/>
        <pt x="513" y="674" on="1"/>
        <pt x="513" y="575" on="1"/>
        <pt x="206" y="575" on="1"/>
        <pt x="206" y="391" on="1"/>
        <pt x="441" y="391" on="1"/>
        <pt x="441" y="292" on="1"/>
        <pt x="206" y="292" on="1"/>
        <pt x="206" y="99" on="1"/>
        <pt x="513" y="99" on="1"/>
      </contour>
      <contour>
        <pt x="366" y="717" on="1"/>
        <pt x="263" y="717" on="1"/>
        <pt x="112" y="882" on="1"/>
        <pt x="257" y="882" on="1"/>
      </contour>
    </TTGlyph>
    <TTGlyph name="Eth" xMin="-16" yMin="0" xMax="680" yMax="732">
      <contour>
        <pt x="327" y="0" on="1"/>
        <pt x="67" y="0" on="1"/>
        <pt x="67" y="324" on="1"/>
        <pt x="-16" y="324" on="1"/>
        <pt x="-16" y="412" on="1"/>
        <pt x="67" y="412" on="1"/>
        <pt x="67" y="672" on="1"/>
        <pt x="66" y="675" on="0"/>
        <pt x="52" y="729" on="0"/>
        <pt x="51" y="732" on="1"/>
        <pt x="328" y="732" on="1"/>
        <pt x="493" y="732" on="0"/>
        <pt x="680" y="531" on="0"/>
        <pt x="680" y="365" on="1"/>
        <pt x="680" y="197" on="0"/>
        <pt x="577" y="95" on="1"/>
        <pt x="482" y="0" on="0"/>
      </contour>
      <contour>
        <pt x="205" y="99" on="1"/>
        <pt x="321" y="99" on="1"/>
        <pt x="376" y="99" on="0"/>
        <pt x="460" y="142" on="0"/>
        <pt x="508" y="217" on="0"/>
        <pt x="532" y="308" on="0"/>
        <pt x="532" y="361" on="1"/>
        <pt x="532" y="433" on="0"/>
        <pt x="492" y="551" on="0"/>
        <pt x="393" y="633" on="0"/>
        <pt x="319" y="633" on="1"/>
        <pt x="205" y="633" on="1"/>
        <pt x="205" y="412" on="1"/>
        <pt x="355" y="412" on="1"/>
        <pt x="355" y="324" on="1"/>
        <pt x="205" y="324" on="1"/>
      </contour>
    </TTGlyph>
    <TTGlyph name="Euro" xMin="10" yMin="-11" xMax="483" yMax="523">
      <contour>
        <pt x="452" y="106" on="1"/>
        <pt x="483" y="20" on="1"/>
        <pt x="421" y="-11" on="0"/>
        <pt x="345" y="-11" on="1"/>
        <pt x="242" y="-11" on="0"/>
        <pt x="116" y="93" on="0"/>
        <pt x="97" y="182" on="1"/>
        <pt x="10" y="182" on="1"/>
        <pt x="21" y="229" on="1"/>
        <pt x="90" y="229" on="1"/>
        <pt x="89" y="239" on="0"/>
        <pt x="89" y="259" on="1"/>
        <pt x="89" y="280" on="0"/>
        <pt x="90" y="291" on="1"/>
        <pt x="35" y="291" on="1"/>
        <pt x="44" y="338" on="1"/>
        <pt x="98" y="338" on="1"/>
        <pt x="120" y="423" on="0"/>
        <pt x="249" y="523" on="0"/>
        <pt x="346" y="523" on="1"/>
        <pt x="416" y="523" on="0"/>
        <pt x="473" y="500" on="1"/>
        <pt x="452" y="407" on="1"/>
        <pt x="408" y="439" on="0"/>
        <pt x="349" y="439" on="1"/>
        <pt x="248" y="439" on="0"/>
        <pt x="226" y="338" on="1"/>
        <pt x="437" y="338" on="1"/>
        <pt x="426" y="291" on="1"/>
        <pt x="219" y="291" on="1"/>
        <pt x="219" y="262" on="1"/>
        <pt x="219" y="240" on="0"/>
        <pt x="220" y="229" on="1"/>
        <pt x="413" y="229" on="1"/>
        <pt x="402" y="182" on="1"/>
        <pt x="229" y="182" on="1"/>
        <pt x="258" y="74" on="0"/>
        <pt x="351" y="74" on="1"/>
        <pt x="408" y="74" on="0"/>
      </contour>
    </TTGlyph>
    <TTGlyph name="F" xMin="53" yMin="0" xMax="482" yMax="732">
      <contour>
        <pt x="482" y="633" on="1"/>
        <pt x="206" y="633" on="1"/>
        <pt x="206" y="426" on="1"/>
        <pt x="419" y="426" on="1"/>
        <pt x="419" y="327" on="1"/>
        <pt x="206" y="327" on="1"/>
        <pt x="206" y="0" on="1"/>
        <pt x="67" y="0" on="1"/>
        <pt x="67" y="671" on="1"/>
        <pt x="67" y="672" on="0"/>
        <pt x="60" y="700" on="0"/>
        <pt x="53" y="730" on="0"/>
        <pt x="53" y="732" on="1"/>
        <pt x="482" y="732" on="1"/>
      </contour>
    </TTGlyph>
    <TTGlyph name="G" xMin="21" yMin="-11" xMax="668" yMax="744">
      <contour>
        <pt x="668" y="-1" on="1"/>
        <pt x="597" y="-1" on="1"/>
        <pt x="563" y="75" on="1"/>
        <pt x="513" y="29" on="0"/>
        <pt x="413" y="-11" on="0"/>
        <pt x="345" y="-11" on="1"/>
        <pt x="189" y="-11" on="0"/>
        <pt x="21" y="198" on="0"/>
        <pt x="21" y="359" on="1"/>
        <pt x="21" y="534" on="0"/>
        <pt x="215" y="744" on="0"/>
        <pt x="387" y="744" on="1"/>
        <pt x="455" y="744" on="0"/>
        <pt x="603" y="704" on="0"/>
        <pt x="644" y="665" on="1"/>
        <pt x="571" y="583" on="1"/>
        <pt x="518" y="622" on="0"/>
        <pt x="447" y="650" on="0"/>
        <pt x="387" y="650" on="1"/>
        <pt x="308" y="650" on="0"/>
        <pt x="205" y="567" on="0"/>
        <pt x="166" y="446" on="0"/>
        <pt x="166" y="368" on="1"/>
        <pt x="166" y="319" on="0"/>
        <pt x="189" y="224" on="0"/>
        <pt x="234" y="138" on="0"/>
        <pt x="316" y="85" on="0"/>
        <pt x="368" y="85" on="1"/>
        <pt x="439" y="85" on="0"/>
        <pt x="526" y="169" on="0"/>
        <pt x="526" y="240" on="1"/>
        <pt x="526" y="302" on="1"/>
        <pt x="374" y="302" on="1"/>
        <pt x="387" y="390" on="1"/>
        <pt x="665" y="390" on="1"/>
        <pt x="663" y="268" on="0"/>
        <pt x="663" y="206" on="1"/>
        <pt x="663" y="85" on="0"/>
      </contour>
    </TTGlyph>
    <TTGlyph name="H" xMin="53" yMin="0" xMax="650" yMax="732">
      <contour>
        <pt x="650" y="0" on="1"/>
        <pt x="512" y="0" on="1"/>
        <pt x="512" y="327" on="1"/>
        <pt x="205" y="327" on="1"/>
        <pt x="205" y="0" on="1"/>
        <pt x="67" y="0" on="1"/>
        <pt x="67" y="671" on="1"/>
        <pt x="67" y="672" on="0"/>
        <pt x="60" y="700" on="0"/>
        <pt x="53" y="730" on="0"/>
        <pt x="53" y="732" on="1"/>
        <pt x="205" y="732" on="1"/>
        <pt x="205" y="426" on="1"/>
        <pt x="512" y="426" on="1"/>
        <pt x="512" y="732" on="1"/>
        <pt x="650" y="732" on="1"/>
      </contour>
    </TTGlyph>
    <TTGlyph name="I" xMin="52" yMin="0" xMax="204" yMax="732">
      <contour>
        <pt x="204" y="0" on="1"/>
        <pt x="66" y="0" on="1"/>
        <pt x="66" y="671" on="1"/>
        <pt x="66" y="672" on="0"/>
        <pt x="59" y="700" on="0"/>
        <pt x="52" y="730" on="0"/>
        <pt x="52" y="732" on="1"/>
        <pt x="204" y="732" on="1"/>
      </contour>
    </TTGlyph>
    <TTGlyph name="Iacute" xMin="46" yMin="0" xMax="300" yMax="881">
      <contour>
        <pt x="204" y="0" on="1"/>
        <pt x="66" y="0" on="1"/>
        <pt x="66" y="613" on="1"/>
        <pt x="66" y="614" on="0"/>
        <pt x="59" y="642" on="0"/>
        <pt x="52" y="672" on="0"/>
        <pt x="52" y="674" on="1"/>
        <pt x="204" y="674" on="1"/>
      </contour>
      <contour>
        <pt x="300" y="881" on="1"/>
        <pt x="149" y="716" on="1"/>
        <pt x="46" y="716" on="1"/>
        <pt x="155" y="881" on="1"/>
      </contour>
    </TTGlyph>
    <TTGlyph name="Icircumflex" xMin="-11" yMin="0" xMax="282" yMax="858">
      <contour>
        <pt x="205" y="0" on="1"/>
        <pt x="67" y="0" on="1"/>
        <pt x="67" y="613" on="1"/>
        <pt x="67" y="614" on="0"/>
        <pt x="60" y="642" on="0"/>
        <pt x="53" y="672" on="0"/>
        <pt x="53" y="674" on="1"/>
        <pt x="205" y="674" on="1"/>
      </contour>
      <contour>
        <pt x="282" y="713" on="1"/>
        <pt x="204" y="713" on="1"/>
        <pt x="134" y="787" on="1"/>
        <pt x="65" y="713" on="1"/>
        <pt x="-11" y="713" on="1"/>
        <pt x="85" y="858" on="1"/>
        <pt x="183" y="858" on="1"/>
      </contour>
    </TTGlyph>
    <TTGlyph name="Idieresis" xMin="-3" yMin="0" xMax="272" yMax="849">
      <contour>
        <pt x="205" y="0" on="1"/>
        <pt x="67" y="0" on="1"/>
        <pt x="67" y="613" on="1"/>
        <pt x="67" y="614" on="0"/>
        <pt x="60" y="642" on="0"/>
        <pt x="53" y="672" on="0"/>
        <pt x="53" y="674" on="1"/>
        <pt x="205" y="674" on="1"/>
      </contour>
      <contour>
        <pt x="214" y="735" on="1"/>
        <pt x="191" y="735" on="0"/>
        <pt x="157" y="769" on="0"/>
        <pt x="157" y="815" on="0"/>
        <pt x="191" y="849" on="0"/>
        <pt x="214" y="849" on="1"/>
        <pt x="238" y="849" on="0"/>
        <pt x="272" y="816" on="0"/>
        <pt x="272" y="768" on="0"/>
        <pt x="238" y="735" on="0"/>
      </contour>
      <contour>
        <pt x="94" y="832" on="1"/>
        <pt x="111" y="816" on="0"/>
        <pt x="111" y="768" on="0"/>
        <pt x="78" y="735" on="0"/>
        <pt x="54" y="735" on="1"/>
        <pt x="30" y="735" on="0"/>
        <pt x="-3" y="768" on="0"/>
        <pt x="-3" y="816" on="0"/>
        <pt x="30" y="849" on="0"/>
        <pt x="54" y="849" on="1"/>
        <pt x="78" y="849" on="0"/>
      </contour>
    </TTGlyph>
    <TTGlyph name="Igrave" xMin="-50" yMin="0" xMax="205" yMax="882">
      <contour>
        <pt x="205" y="0" on="1"/>
        <pt x="67" y="0" on="1"/>
        <pt x="67" y="613" on="1"/>
        <pt x="67" y="614" on="0"/>
        <pt x="60" y="642" on="0"/>
        <pt x="53" y="672" on="0"/>
        <pt x="53" y="674" on="1"/>
        <pt x="205" y="674" on="1"/>
      </contour>
      <contour>
        <pt x="204" y="717" on="1"/>
        <pt x="101" y="717" on="1"/>
        <pt x="-50" y="882" on="1"/>
        <pt x="95" y="882" on="1"/>
      </contour>
    </TTGlyph>
    <TTGlyph name="J" xMin="-38" yMin="-209" xMax="205" yMax="732">
      <contour>
        <pt x="205" y="98" on="1"/>
        <pt x="205" y="42" on="0"/>
        <pt x="197" y="-38" on="0"/>
        <pt x="170" y="-120" on="0"/>
        <pt x="122" y="-172" on="0"/>
        <pt x="40" y="-206" on="0"/>
        <pt x="-18" y="-209" on="1"/>
        <pt x="-38" y="-131" on="1"/>
        <pt x="-3" y="-127" on="0"/>
        <pt x="41" y="-94" on="0"/>
        <pt x="61" y="-39" on="0"/>
        <pt x="67" y="11" on="0"/>
        <pt x="67" y="47" on="1"/>
        <pt x="67" y="671" on="1"/>
        <pt x="67" y="672" on="0"/>
        <pt x="60" y="700" on="0"/>
        <pt x="53" y="730" on="0"/>
        <pt x="53" y="732" on="1"/>
        <pt x="205" y="732" on="1"/>
      </contour>
    </TTGlyph>
    <TTGlyph name="K" xMin="52" yMin="0" xMax="597" yMax="732">
      <contour>
        <pt x="597" y="0" on="1"/>
        <pt x="437" y="0" on="1"/>
        <pt x="204" y="371" on="1"/>
        <pt x="204" y="0" on="1"/>
        <pt x="66" y="0" on="1"/>
        <pt x="66" y="671" on="1"/>
        <pt x="66" y="672" on="0"/>
        <pt x="59" y="700" on="0"/>
        <pt x="52" y="730" on="0"/>
        <pt x="52" y="732" on="1"/>
        <pt x="204" y="732" on="1"/>
        <pt x="204" y="405" on="1"/>
        <pt x="448" y="732" on="1"/>
        <pt x="576" y="732" on="1"/>
        <pt x="338" y="412" on="1"/>
      </contour>
    </TTGlyph>
    <TTGlyph name="L" xMin="53" yMin="0" xMax="492" yMax="732">
      <contour>
        <pt x="492" y="0" on="1"/>
        <pt x="66" y="0" on="1"/>
        <pt x="66" y="671" on="1"/>
        <pt x="66" y="672" on="0"/>
        <pt x="60" y="700" on="0"/>
        <pt x="53" y="730" on="0"/>
        <pt x="53" y="732" on="1"/>
        <pt x="205" y="732" on="1"/>
        <pt x="205" y="99" on="1"/>
        <pt x="492" y="99" on="1"/>
      </contour>
    </TTGlyph>
    <TTGlyph name="Lslash" xMin="1" yMin="0" xMax="492" yMax="732">
      <contour>
        <pt x="492" y="0" on="1"/>
        <pt x="66" y="0" on="1"/>
        <pt x="66" y="245" on="1"/>
        <pt x="1" y="215" on="1"/>
        <pt x="1" y="312" on="1"/>
        <pt x="66" y="342" on="1"/>
        <pt x="66" y="672" on="1"/>
        <pt x="65" y="676" on="0"/>
        <pt x="59" y="704" on="1"/>
        <pt x="53" y="732" on="1"/>
        <pt x="205" y="732" on="1"/>
        <pt x="205" y="406" on="1"/>
        <pt x="402" y="498" on="1"/>
        <pt x="402" y="400" on="1"/>
        <pt x="205" y="309" on="1"/>
        <pt x="205" y="99" on="1"/>
        <pt x="492" y="99" on="1"/>
      </contour>
    </TTGlyph>
    <TTGlyph name="M" xMin="53" yMin="0" xMax="786" yMax="732">
      <contour>
        <pt x="786" y="1" on="1"/>
        <pt x="651" y="1" on="1"/>
        <pt x="651" y="497" on="1"/>
        <pt x="651" y="511" on="0"/>
        <pt x="656" y="569" on="1"/>
        <pt x="653" y="561" on="0"/>
        <pt x="644" y="532" on="0"/>
        <pt x="636" y="508" on="0"/>
        <pt x="632" y="497" on="1"/>
        <pt x="453" y="0" on="1"/>
        <pt x="379" y="0" on="1"/>
        <pt x="195" y="497" on="1"/>
        <pt x="191" y="508" on="0"/>
        <pt x="183" y="532" on="0"/>
        <pt x="174" y="561" on="0"/>
        <pt x="171" y="569" on="1"/>
        <pt x="171" y="560" on="0"/>
        <pt x="176" y="510" on="0"/>
        <pt x="176" y="497" on="1"/>
        <pt x="176" y="1" on="1"/>
        <pt x="67" y="1" on="1"/>
        <pt x="67" y="671" on="1"/>
        <pt x="67" y="672" on="0"/>
        <pt x="60" y="700" on="0"/>
        <pt x="53" y="730" on="0"/>
        <pt x="53" y="732" on="1"/>
        <pt x="245" y="732" on="1"/>
        <pt x="401" y="312" on="1"/>
        <pt x="412" y="282" on="0"/>
        <pt x="430" y="191" on="1"/>
        <pt x="432" y="198" on="0"/>
        <pt x="449" y="285" on="0"/>
        <pt x="457" y="308" on="1"/>
        <pt x="610" y="732" on="1"/>
        <pt x="786" y="732" on="1"/>
      </contour>
    </TTGlyph>
    <TTGlyph name="N" xMin="52" yMin="-5" xMax="650" yMax="731">
      <contour>
        <pt x="650" y="-5" on="1"/>
        <pt x="542" y="-5" on="1"/>
        <pt x="213" y="497" on="1"/>
        <pt x="179" y="550" on="0"/>
        <pt x="171" y="564" on="1"/>
        <pt x="177" y="498" on="0"/>
        <pt x="177" y="497" on="1"/>
        <pt x="177" y="0" on="1"/>
        <pt x="66" y="0" on="1"/>
        <pt x="66" y="670" on="1"/>
        <pt x="66" y="671" on="0"/>
        <pt x="59" y="699" on="0"/>
        <pt x="52" y="729" on="0"/>
        <pt x="52" y="731" on="1"/>
        <pt x="216" y="731" on="1"/>
        <pt x="504" y="293" on="1"/>
        <pt x="519" y="271" on="0"/>
        <pt x="545" y="227" on="1"/>
        <pt x="539" y="302" on="0"/>
        <pt x="539" y="304" on="1"/>
        <pt x="539" y="731" on="1"/>
        <pt x="650" y="731" on="1"/>
      </contour>
    </TTGlyph>
    <TTGlyph name="Ntilde" xMin="71" yMin="-5" xMax="669" yMax="840">
      <contour>
        <pt x="669" y="-5" on="1"/>
        <pt x="569" y="-5" on="1"/>
        <pt x="232" y="439" on="1"/>
        <pt x="223" y="451" on="0"/>
        <pt x="192" y="502" on="0"/>
        <pt x="190" y="506" on="1"/>
        <pt x="196" y="440" on="0"/>
        <pt x="196" y="439" on="1"/>
        <pt x="196" y="0" on="1"/>
        <pt x="85" y="0" on="1"/>
        <pt x="85" y="613" on="1"/>
        <pt x="85" y="614" on="0"/>
        <pt x="78" y="642" on="0"/>
        <pt x="71" y="672" on="0"/>
        <pt x="71" y="674" on="1"/>
        <pt x="218" y="674" on="1"/>
        <pt x="523" y="270" on="1"/>
        <pt x="524" y="269" on="0"/>
        <pt x="564" y="204" on="1"/>
        <pt x="558" y="279" on="0"/>
        <pt x="558" y="281" on="1"/>
        <pt x="558" y="674" on="1"/>
        <pt x="669" y="674" on="1"/>
      </contour>
      <contour>
        <pt x="559" y="830" on="1"/>
        <pt x="559" y="780" on="0"/>
        <pt x="502" y="713" on="0"/>
        <pt x="453" y="713" on="1"/>
        <pt x="423" y="713" on="0"/>
        <pt x="340" y="753" on="0"/>
        <pt x="323" y="753" on="1"/>
        <pt x="308" y="753" on="0"/>
        <pt x="283" y="737" on="0"/>
        <pt x="283" y="723" on="1"/>
        <pt x="218" y="723" on="1"/>
        <pt x="218" y="773" on="0"/>
        <pt x="275" y="840" on="0"/>
        <pt x="324" y="840" on="1"/>
        <pt x="354" y="840" on="0"/>
        <pt x="437" y="800" on="0"/>
        <pt x="454" y="800" on="1"/>
        <pt x="468" y="800" on="0"/>
        <pt x="494" y="816" on="0"/>
        <pt x="495" y="830" on="1"/>
      </contour>
    </TTGlyph>
    <TTGlyph name="O" xMin="19" yMin="-11" xMax="718" yMax="743">
      <contour>
        <pt x="718" y="365" on="1"/>
        <pt x="718" y="200" on="0"/>
        <pt x="528" y="-11" on="0"/>
        <pt x="365" y="-11" on="1"/>
        <pt x="202" y="-11" on="0"/>
        <pt x="19" y="202" on="0"/>
        <pt x="19" y="367" on="1"/>
        <pt x="19" y="533" on="0"/>
        <pt x="203" y="743" on="0"/>
        <pt x="366" y="743" on="1"/>
        <pt x="533" y="743" on="0"/>
        <pt x="718" y="534" on="0"/>
      </contour>
      <contour>
        <pt x="570" y="361" on="1"/>
        <pt x="570" y="414" on="0"/>
        <pt x="550" y="509" on="0"/>
        <pt x="506" y="596" on="0"/>
        <pt x="423" y="648" on="0"/>
        <pt x="367" y="648" on="1"/>
        <pt x="312" y="648" on="0"/>
        <pt x="230" y="599" on="0"/>
        <pt x="186" y="516" on="0"/>
        <pt x="166" y="423" on="0"/>
        <pt x="166" y="371" on="1"/>
        <pt x="166" y="318" on="0"/>
        <pt x="186" y="223" on="0"/>
        <pt x="230" y="136" on="0"/>
        <pt x="313" y="84" on="0"/>
        <pt x="369" y="84" on="1"/>
        <pt x="424" y="84" on="0"/>
        <pt x="506" y="133" on="0"/>
        <pt x="550" y="216" on="0"/>
        <pt x="570" y="309" on="0"/>
      </contour>
    </TTGlyph>
    <TTGlyph name="OE" xMin="24" yMin="-11" xMax="1030" yMax="743">
      <contour>
        <pt x="1030" y="0" on="1"/>
        <pt x="585" y="0" on="1"/>
        <pt x="585" y="54" on="1"/>
        <pt x="496" y="-11" on="0"/>
        <pt x="373" y="-11" on="1"/>
        <pt x="210" y="-11" on="0"/>
        <pt x="24" y="201" on="0"/>
        <pt x="24" y="366" on="1"/>
        <pt x="24" y="532" on="0"/>
        <pt x="210" y="743" on="0"/>
        <pt x="373" y="743" on="1"/>
        <pt x="498" y="743" on="0"/>
        <pt x="585" y="680" on="1"/>
        <pt x="585" y="732" on="1"/>
        <pt x="1030" y="732" on="1"/>
        <pt x="1030" y="633" on="1"/>
        <pt x="722" y="633" on="1"/>
        <pt x="722" y="426" on="1"/>
        <pt x="958" y="426" on="1"/>
        <pt x="958" y="327" on="1"/>
        <pt x="722" y="327" on="1"/>
        <pt x="722" y="99" on="1"/>
        <pt x="1030" y="99" on="1"/>
      </contour>
      <contour>
        <pt x="373" y="88" on="1"/>
        <pt x="428" y="88" on="0"/>
        <pt x="510" y="137" on="0"/>
        <pt x="554" y="220" on="0"/>
        <pt x="575" y="314" on="0"/>
        <pt x="575" y="366" on="1"/>
        <pt x="575" y="419" on="0"/>
        <pt x="555" y="511" on="0"/>
        <pt x="512" y="595" on="0"/>
        <pt x="430" y="644" on="0"/>
        <pt x="373" y="644" on="1"/>
        <pt x="318" y="644" on="0"/>
        <pt x="236" y="595" on="0"/>
        <pt x="192" y="511" on="0"/>
        <pt x="171" y="418" on="0"/>
        <pt x="171" y="366" on="1"/>
        <pt x="171" y="313" on="0"/>
        <pt x="191" y="220" on="0"/>
        <pt x="235" y="137" on="0"/>
        <pt x="317" y="88" on="0"/>
      </contour>
    </TTGlyph>
    <TTGlyph name="Oacute" xMin="19" yMin="-12" xMax="718" yMax="879">
      <contour>
        <pt x="369" y="-12" on="1"/>
        <pt x="211" y="-12" on="0"/>
        <pt x="19" y="179" on="0"/>
        <pt x="19" y="493" on="0"/>
        <pt x="211" y="684" on="0"/>
        <pt x="368" y="684" on="1"/>
        <pt x="526" y="684" on="0"/>
        <pt x="718" y="493" on="0"/>
        <pt x="718" y="179" on="0"/>
        <pt x="526" y="-12" on="0"/>
      </contour>
      <contour>
        <pt x="571" y="336" on="1"/>
        <pt x="571" y="444" on="0"/>
        <pt x="470" y="589" on="0"/>
        <pt x="369" y="589" on="1"/>
        <pt x="267" y="589" on="0"/>
        <pt x="165" y="443" on="0"/>
        <pt x="165" y="337" on="1"/>
        <pt x="165" y="287" on="0"/>
        <pt x="188" y="199" on="0"/>
        <pt x="235" y="126" on="0"/>
        <pt x="315" y="84" on="0"/>
        <pt x="367" y="84" on="1"/>
        <pt x="469" y="84" on="0"/>
        <pt x="571" y="230" on="0"/>
      </contour>
      <contour>
        <pt x="570" y="879" on="1"/>
        <pt x="419" y="714" on="1"/>
        <pt x="316" y="714" on="1"/>
        <pt x="425" y="879" on="1"/>
      </contour>
    </TTGlyph>
    <TTGlyph name="Ocircumflex" xMin="19" yMin="-12" xMax="718" yMax="862">
      <contour>
        <pt x="369" y="-12" on="1"/>
        <pt x="211" y="-12" on="0"/>
        <pt x="19" y="179" on="0"/>
        <pt x="19" y="493" on="0"/>
        <pt x="211" y="684" on="0"/>
        <pt x="368" y="684" on="1"/>
        <pt x="526" y="684" on="0"/>
        <pt x="718" y="493" on="0"/>
        <pt x="718" y="179" on="0"/>
        <pt x="526" y="-12" on="0"/>
      </contour>
      <contour>
        <pt x="571" y="336" on="1"/>
        <pt x="571" y="444" on="0"/>
        <pt x="470" y="589" on="0"/>
        <pt x="369" y="589" on="1"/>
        <pt x="267" y="589" on="0"/>
        <pt x="165" y="443" on="0"/>
        <pt x="165" y="337" on="1"/>
        <pt x="165" y="287" on="0"/>
        <pt x="188" y="199" on="0"/>
        <pt x="235" y="126" on="0"/>
        <pt x="315" y="84" on="0"/>
        <pt x="367" y="84" on="1"/>
        <pt x="469" y="84" on="0"/>
        <pt x="571" y="230" on="0"/>
      </contour>
      <contour>
        <pt x="513" y="717" on="1"/>
        <pt x="435" y="717" on="1"/>
        <pt x="365" y="791" on="1"/>
        <pt x="296" y="717" on="1"/>
        <pt x="220" y="717" on="1"/>
        <pt x="316" y="862" on="1"/>
        <pt x="414" y="862" on="1"/>
      </contour>
    </TTGlyph>
    <TTGlyph name="Odieresis" xMin="19" yMin="-12" xMax="718" yMax="849">
      <contour>
        <pt x="369" y="-12" on="1"/>
        <pt x="211" y="-12" on="0"/>
        <pt x="19" y="179" on="0"/>
        <pt x="19" y="493" on="0"/>
        <pt x="211" y="684" on="0"/>
        <pt x="368" y="684" on="1"/>
        <pt x="526" y="684" on="0"/>
        <pt x="718" y="493" on="0"/>
        <pt x="718" y="179" on="0"/>
        <pt x="526" y="-12" on="0"/>
      </contour>
      <contour>
        <pt x="571" y="336" on="1"/>
        <pt x="571" y="444" on="0"/>
        <pt x="470" y="589" on="0"/>
        <pt x="369" y="589" on="1"/>
        <pt x="267" y="589" on="0"/>
        <pt x="165" y="443" on="0"/>
        <pt x="165" y="337" on="1"/>
        <pt x="165" y="287" on="0"/>
        <pt x="188" y="199" on="0"/>
        <pt x="235" y="126" on="0"/>
        <pt x="315" y="84" on="0"/>
        <pt x="367" y="84" on="1"/>
        <pt x="469" y="84" on="0"/>
        <pt x="571" y="230" on="0"/>
      </contour>
      <contour>
        <pt x="444" y="735" on="1"/>
        <pt x="421" y="735" on="0"/>
        <pt x="387" y="769" on="0"/>
        <pt x="387" y="815" on="0"/>
        <pt x="421" y="849" on="0"/>
        <pt x="444" y="849" on="1"/>
        <pt x="468" y="849" on="0"/>
        <pt x="502" y="816" on="0"/>
        <pt x="502" y="768" on="0"/>
        <pt x="468" y="735" on="0"/>
      </contour>
      <contour>
        <pt x="324" y="832" on="1"/>
        <pt x="341" y="816" on="0"/>
        <pt x="341" y="768" on="0"/>
        <pt x="308" y="735" on="0"/>
        <pt x="284" y="735" on="1"/>
        <pt x="260" y="735" on="0"/>
        <pt x="227" y="768" on="0"/>
        <pt x="227" y="816" on="0"/>
        <pt x="260" y="849" on="0"/>
        <pt x="284" y="849" on="1"/>
        <pt x="308" y="849" on="0"/>
      </contour>
    </TTGlyph>
    <TTGlyph name="Ograve" xMin="19" yMin="-12" xMax="718" yMax="882">
      <contour>
        <pt x="369" y="-12" on="1"/>
        <pt x="211" y="-12" on="0"/>
        <pt x="19" y="179" on="0"/>
        <pt x="19" y="493" on="0"/>
        <pt x="211" y="684" on="0"/>
        <pt x="368" y="684" on="1"/>
        <pt x="526" y="684" on="0"/>
        <pt x="718" y="493" on="0"/>
        <pt x="718" y="179" on="0"/>
        <pt x="526" y="-12" on="0"/>
      </contour>
      <contour>
        <pt x="571" y="336" on="1"/>
        <pt x="571" y="444" on="0"/>
        <pt x="470" y="589" on="0"/>
        <pt x="369" y="589" on="1"/>
        <pt x="267" y="589" on="0"/>
        <pt x="165" y="443" on="0"/>
        <pt x="165" y="337" on="1"/>
        <pt x="165" y="287" on="0"/>
        <pt x="188" y="199" on="0"/>
        <pt x="235" y="126" on="0"/>
        <pt x="315" y="84" on="0"/>
        <pt x="367" y="84" on="1"/>
        <pt x="469" y="84" on="0"/>
        <pt x="571" y="230" on="0"/>
      </contour>
      <contour>
        <pt x="417" y="717" on="1"/>
        <pt x="314" y="717" on="1"/>
        <pt x="163" y="882" on="1"/>
        <pt x="308" y="882" on="1"/>
      </contour>
    </TTGlyph>
    <TTGlyph name="Omega" xMin="30" yMin="0" xMax="751" yMax="743">
      <contour>
        <pt x="751" y="0" on="1"/>
        <pt x="456" y="0" on="1"/>
        <pt x="456" y="76" on="1"/>
        <pt x="526" y="102" on="0"/>
        <pt x="590" y="255" on="0"/>
        <pt x="590" y="349" on="1"/>
        <pt x="590" y="402" on="0"/>
        <pt x="570" y="499" on="0"/>
        <pt x="527" y="589" on="0"/>
        <pt x="446" y="644" on="0"/>
        <pt x="391" y="644" on="1"/>
        <pt x="336" y="644" on="0"/>
        <pt x="254" y="589" on="0"/>
        <pt x="211" y="499" on="0"/>
        <pt x="191" y="401" on="0"/>
        <pt x="191" y="349" on="1"/>
        <pt x="191" y="255" on="0"/>
        <pt x="255" y="102" on="0"/>
        <pt x="325" y="76" on="1"/>
        <pt x="325" y="0" on="1"/>
        <pt x="30" y="0" on="1"/>
        <pt x="30" y="99" on="1"/>
        <pt x="97" y="99" on="1"/>
        <pt x="169" y="93" on="1"/>
        <pt x="114" y="126" on="0"/>
        <pt x="44" y="283" on="0"/>
        <pt x="44" y="367" on="1"/>
        <pt x="44" y="533" on="0"/>
        <pt x="228" y="743" on="0"/>
        <pt x="391" y="743" on="1"/>
        <pt x="554" y="743" on="0"/>
        <pt x="737" y="533" on="0"/>
        <pt x="737" y="367" on="1"/>
        <pt x="737" y="283" on="0"/>
        <pt x="667" y="126" on="0"/>
        <pt x="612" y="93" on="1"/>
        <pt x="684" y="99" on="1"/>
        <pt x="751" y="99" on="1"/>
      </contour>
    </TTGlyph>
    <TTGlyph name="Oslash" xMin="19" yMin="-56" xMax="717" yMax="777">
      <contour>
        <pt x="717" y="365" on="1"/>
        <pt x="717" y="200" on="0"/>
        <pt x="527" y="-11" on="0"/>
        <pt x="364" y="-11" on="1"/>
        <pt x="262" y="-11" on="0"/>
        <pt x="183" y="35" on="1"/>
        <pt x="124" y="-56" on="1"/>
        <pt x="71" y="-25" on="1"/>
        <pt x="134" y="72" on="1"/>
        <pt x="19" y="172" on="0"/>
        <pt x="19" y="367" on="1"/>
        <pt x="19" y="533" on="0"/>
        <pt x="202" y="743" on="0"/>
        <pt x="365" y="743" on="1"/>
        <pt x="466" y="743" on="0"/>
        <pt x="544" y="702" on="1"/>
        <pt x="593" y="777" on="1"/>
        <pt x="646" y="744" on="1"/>
        <pt x="595" y="667" on="1"/>
        <pt x="717" y="566" on="0"/>
      </contour>
      <contour>
        <pt x="482" y="608" on="1"/>
        <pt x="435" y="648" on="0"/>
        <pt x="367" y="648" on="1"/>
        <pt x="312" y="648" on="0"/>
        <pt x="230" y="599" on="0"/>
        <pt x="186" y="516" on="0"/>
        <pt x="166" y="423" on="0"/>
        <pt x="166" y="371" on="1"/>
        <pt x="166" y="255" on="0"/>
        <pt x="206" y="183" on="1"/>
      </contour>
      <contour>
        <pt x="569" y="361" on="1"/>
        <pt x="569" y="483" on="0"/>
        <pt x="524" y="558" on="1"/>
        <pt x="245" y="131" on="1"/>
        <pt x="295" y="84" on="0"/>
        <pt x="368" y="84" on="1"/>
        <pt x="423" y="84" on="0"/>
        <pt x="505" y="133" on="0"/>
        <pt x="549" y="216" on="0"/>
        <pt x="569" y="309" on="0"/>
      </contour>
    </TTGlyph>
    <TTGlyph name="Otilde" xMin="19" yMin="-12" xMax="718" yMax="840">
      <contour>
        <pt x="369" y="-12" on="1"/>
        <pt x="211" y="-12" on="0"/>
        <pt x="19" y="179" on="0"/>
        <pt x="19" y="493" on="0"/>
        <pt x="211" y="684" on="0"/>
        <pt x="368" y="684" on="1"/>
        <pt x="526" y="684" on="0"/>
        <pt x="718" y="493" on="0"/>
        <pt x="718" y="179" on="0"/>
        <pt x="526" y="-12" on="0"/>
      </contour>
      <contour>
        <pt x="571" y="336" on="1"/>
        <pt x="571" y="444" on="0"/>
        <pt x="470" y="589" on="0"/>
        <pt x="369" y="589" on="1"/>
        <pt x="267" y="589" on="0"/>
        <pt x="165" y="443" on="0"/>
        <pt x="165" y="337" on="1"/>
        <pt x="165" y="287" on="0"/>
        <pt x="188" y="199" on="0"/>
        <pt x="235" y="126" on="0"/>
        <pt x="315" y="84" on="0"/>
        <pt x="367" y="84" on="1"/>
        <pt x="469" y="84" on="0"/>
        <pt x="571" y="230" on="0"/>
      </contour>
      <contour>
        <pt x="547" y="830" on="1"/>
        <pt x="547" y="780" on="0"/>
        <pt x="490" y="713" on="0"/>
        <pt x="441" y="713" on="1"/>
        <pt x="411" y="713" on="0"/>
        <pt x="328" y="753" on="0"/>
        <pt x="311" y="753" on="1"/>
        <pt x="296" y="753" on="0"/>
        <pt x="271" y="737" on="0"/>
        <pt x="271" y="723" on="1"/>
        <pt x="206" y="723" on="1"/>
        <pt x="206" y="773" on="0"/>
        <pt x="263" y="840" on="0"/>
        <pt x="312" y="840" on="1"/>
        <pt x="342" y="840" on="0"/>
        <pt x="425" y="800" on="0"/>
        <pt x="442" y="800" on="1"/>
        <pt x="456" y="800" on="0"/>
        <pt x="482" y="816" on="0"/>
        <pt x="483" y="830" on="1"/>
      </contour>
    </TTGlyph>
    <TTGlyph name="P" xMin="51" yMin="0" xMax="549" yMax="732">
      <contour>
        <pt x="549" y="513" on="1"/>
        <pt x="549" y="405" on="0"/>
        <pt x="396" y="294" on="0"/>
        <pt x="285" y="294" on="1"/>
        <pt x="203" y="294" on="1"/>
        <pt x="203" y="0" on="1"/>
        <pt x="66" y="0" on="1"/>
        <pt x="66" y="671" on="1"/>
        <pt x="66" y="673" on="0"/>
        <pt x="52" y="728" on="0"/>
        <pt x="51" y="732" on="1"/>
        <pt x="283" y="732" on="1"/>
        <pt x="403" y="732" on="0"/>
        <pt x="549" y="629" on="0"/>
      </contour>
      <contour>
        <pt x="403" y="513" on="1"/>
        <pt x="403" y="569" on="0"/>
        <pt x="345" y="633" on="0"/>
        <pt x="289" y="633" on="1"/>
        <pt x="204" y="633" on="1"/>
        <pt x="204" y="391" on="1"/>
        <pt x="288" y="391" on="1"/>
        <pt x="342" y="391" on="0"/>
        <pt x="403" y="458" on="0"/>
      </contour>
    </TTGlyph>
    <TTGlyph name="Q" xMin="19" yMin="-216" xMax="1184" yMax="744">
      <contour>
        <pt x="1184" y="-163" on="1"/>
        <pt x="1085" y="-197" on="0"/>
        <pt x="1003" y="-216" on="0"/>
        <pt x="935" y="-216" on="1"/>
        <pt x="892" y="-216" on="0"/>
        <pt x="790" y="-194" on="0"/>
        <pt x="667" y="-148" on="0"/>
        <pt x="587" y="-114" on="0"/>
        <pt x="447" y="-50" on="0"/>
        <pt x="429" y="-42" on="1"/>
        <pt x="399" y="-29" on="0"/>
        <pt x="301" y="-8" on="1"/>
        <pt x="156" y="23" on="0"/>
        <pt x="19" y="223" on="0"/>
        <pt x="19" y="364" on="1"/>
        <pt x="19" y="439" on="0"/>
        <pt x="63" y="574" on="0"/>
        <pt x="147" y="681" on="0"/>
        <pt x="283" y="744" on="0"/>
        <pt x="369" y="744" on="1"/>
        <pt x="455" y="744" on="0"/>
        <pt x="591" y="681" on="0"/>
        <pt x="675" y="574" on="0"/>
        <pt x="718" y="439" on="0"/>
        <pt x="718" y="364" on="1"/>
        <pt x="718" y="259" on="0"/>
        <pt x="630" y="78" on="0"/>
        <pt x="536" y="27" on="1"/>
        <pt x="548" y="21" on="1"/>
        <pt x="629" y="-18" on="0"/>
        <pt x="735" y="-66" on="0"/>
        <pt x="915" y="-122" on="0"/>
        <pt x="976" y="-122" on="1"/>
        <pt x="1044" y="-122" on="0"/>
        <pt x="1161" y="-87" on="1"/>
      </contour>
      <contour>
        <pt x="571" y="364" on="1"/>
        <pt x="571" y="438" on="0"/>
        <pt x="533" y="561" on="0"/>
        <pt x="439" y="648" on="0"/>
        <pt x="369" y="648" on="1"/>
        <pt x="300" y="648" on="0"/>
        <pt x="205" y="561" on="0"/>
        <pt x="167" y="437" on="0"/>
        <pt x="167" y="363" on="1"/>
        <pt x="167" y="290" on="0"/>
        <pt x="205" y="169" on="0"/>
        <pt x="300" y="85" on="0"/>
        <pt x="369" y="85" on="1"/>
        <pt x="471" y="85" on="0"/>
        <pt x="571" y="248" on="0"/>
      </contour>
    </TTGlyph>
    <TTGlyph name="R" xMin="51" yMin="0" xMax="617" yMax="732">
      <contour>
        <pt x="617" y="0" on="1"/>
        <pt x="461" y="0" on="1"/>
        <pt x="258" y="326" on="1"/>
        <pt x="203" y="326" on="1"/>
        <pt x="203" y="0" on="1"/>
        <pt x="66" y="0" on="1"/>
        <pt x="66" y="671" on="1"/>
        <pt x="66" y="673" on="0"/>
        <pt x="52" y="728" on="0"/>
        <pt x="51" y="732" on="1"/>
        <pt x="302" y="732" on="1"/>
        <pt x="413" y="732" on="0"/>
        <pt x="549" y="638" on="0"/>
        <pt x="549" y="532" on="1"/>
        <pt x="549" y="470" on="0"/>
        <pt x="455" y="362" on="0"/>
        <pt x="393" y="347" on="1"/>
      </contour>
      <contour>
        <pt x="404" y="533" on="1"/>
        <pt x="404" y="580" on="0"/>
        <pt x="338" y="632" on="0"/>
        <pt x="289" y="632" on="1"/>
        <pt x="203" y="632" on="1"/>
        <pt x="203" y="424" on="1"/>
        <pt x="267" y="424" on="1"/>
        <pt x="404" y="424" on="0"/>
      </contour>
    </TTGlyph>
    <TTGlyph name="S" xMin="4" yMin="-12" xMax="496" yMax="744">
      <contour>
        <pt x="496" y="215" on="1"/>
        <pt x="496" y="109" on="0"/>
        <pt x="347" y="-12" on="0"/>
        <pt x="239" y="-12" on="1"/>
        <pt x="102" y="-12" on="0"/>
        <pt x="4" y="46" on="1"/>
        <pt x="51" y="157" on="1"/>
        <pt x="129" y="84" on="0"/>
        <pt x="226" y="84" on="1"/>
        <pt x="277" y="84" on="0"/>
        <pt x="350" y="140" on="0"/>
        <pt x="350" y="190" on="1"/>
        <pt x="350" y="226" on="0"/>
        <pt x="302" y="282" on="0"/>
        <pt x="231" y="314" on="0"/>
        <pt x="147" y="357" on="0"/>
        <pt x="76" y="401" on="0"/>
        <pt x="28" y="482" on="0"/>
        <pt x="28" y="535" on="1"/>
        <pt x="28" y="638" on="0"/>
        <pt x="171" y="744" on="0"/>
        <pt x="290" y="744" on="1"/>
        <pt x="335" y="744" on="0"/>
        <pt x="453" y="708" on="0"/>
        <pt x="484" y="684" on="1"/>
        <pt x="415" y="598" on="1"/>
        <pt x="359" y="648" on="0"/>
        <pt x="277" y="648" on="1"/>
        <pt x="235" y="648" on="0"/>
        <pt x="174" y="604" on="0"/>
        <pt x="174" y="564" on="1"/>
        <pt x="174" y="529" on="0"/>
        <pt x="222" y="476" on="0"/>
        <pt x="293" y="444" on="0"/>
        <pt x="377" y="400" on="0"/>
        <pt x="448" y="355" on="0"/>
        <pt x="496" y="271" on="0"/>
      </contour>
    </TTGlyph>
    <TTGlyph name="Scaron" xMin="4" yMin="-12" xMax="497" yMax="861">
      <contour>
        <pt x="497" y="197" on="1"/>
        <pt x="497" y="100" on="0"/>
        <pt x="347" y="-12" on="0"/>
        <pt x="239" y="-12" on="1"/>
        <pt x="103" y="-12" on="0"/>
        <pt x="4" y="41" on="1"/>
        <pt x="51" y="151" on="1"/>
        <pt x="130" y="84" on="0"/>
        <pt x="226" y="84" on="1"/>
        <pt x="277" y="84" on="0"/>
        <pt x="351" y="133" on="0"/>
        <pt x="351" y="174" on="1"/>
        <pt x="351" y="211" on="0"/>
        <pt x="284" y="266" on="0"/>
        <pt x="190" y="305" on="0"/>
        <pt x="95" y="350" on="0"/>
        <pt x="28" y="433" on="0"/>
        <pt x="28" y="491" on="1"/>
        <pt x="28" y="585" on="0"/>
        <pt x="171" y="683" on="0"/>
        <pt x="291" y="683" on="1"/>
        <pt x="337" y="683" on="0"/>
        <pt x="453" y="652" on="0"/>
        <pt x="485" y="628" on="1"/>
        <pt x="416" y="541" on="1"/>
        <pt x="359" y="587" on="0"/>
        <pt x="278" y="587" on="1"/>
        <pt x="235" y="587" on="0"/>
        <pt x="174" y="550" on="0"/>
        <pt x="174" y="517" on="1"/>
        <pt x="174" y="481" on="0"/>
        <pt x="241" y="429" on="0"/>
        <pt x="336" y="390" on="0"/>
        <pt x="430" y="343" on="0"/>
        <pt x="497" y="257" on="0"/>
      </contour>
      <contour>
        <pt x="404" y="861" on="1"/>
        <pt x="308" y="716" on="1"/>
        <pt x="210" y="716" on="1"/>
        <pt x="111" y="861" on="1"/>
        <pt x="189" y="861" on="1"/>
        <pt x="259" y="787" on="1"/>
        <pt x="328" y="861" on="1"/>
      </contour>
    </TTGlyph>
    <TTGlyph name="T" xMin="13" yMin="0" xMax="565" yMax="732">
      <contour>
        <pt x="565" y="633" on="1"/>
        <pt x="359" y="633" on="1"/>
        <pt x="359" y="0" on="1"/>
        <pt x="216" y="0" on="1"/>
        <pt x="216" y="633" on="1"/>
        <pt x="13" y="633" on="1"/>
        <pt x="13" y="732" on="1"/>
        <pt x="565" y="732" on="1"/>
      </contour>
    </TTGlyph>
    <TTGlyph name="Thorn" xMin="53" yMin="0" xMax="549" yMax="732">
      <contour>
        <pt x="203" y="0" on="1"/>
        <pt x="66" y="0" on="1"/>
        <pt x="66" y="671" on="1"/>
        <pt x="66" y="672" on="0"/>
        <pt x="60" y="700" on="0"/>
        <pt x="53" y="730" on="0"/>
        <pt x="53" y="732" on="1"/>
        <pt x="205" y="732" on="1"/>
        <pt x="205" y="617" on="1"/>
        <pt x="283" y="617" on="1"/>
        <pt x="403" y="617" on="0"/>
        <pt x="549" y="514" on="0"/>
        <pt x="549" y="398" on="1"/>
        <pt x="549" y="290" on="0"/>
        <pt x="396" y="179" on="0"/>
        <pt x="285" y="179" on="1"/>
        <pt x="203" y="179" on="1"/>
      </contour>
      <contour>
        <pt x="204" y="276" on="1"/>
        <pt x="288" y="276" on="1"/>
        <pt x="342" y="276" on="0"/>
        <pt x="403" y="343" on="0"/>
        <pt x="403" y="398" on="1"/>
        <pt x="403" y="454" on="0"/>
        <pt x="345" y="518" on="0"/>
        <pt x="289" y="518" on="1"/>
        <pt x="204" y="518" on="1"/>
      </contour>
    </TTGlyph>
    <TTGlyph name="U" xMin="52" yMin="-11" xMax="644" yMax="732">
      <contour>
        <pt x="644" y="278" on="1"/>
        <pt x="644" y="129" on="0"/>
        <pt x="487" y="-11" on="0"/>
        <pt x="356" y="-11" on="1"/>
        <pt x="217" y="-11" on="0"/>
        <pt x="68" y="138" on="0"/>
        <pt x="68" y="278" on="1"/>
        <pt x="68" y="672" on="1"/>
        <pt x="52" y="732" on="1"/>
        <pt x="209" y="732" on="1"/>
        <pt x="209" y="245" on="1"/>
        <pt x="209" y="172" on="0"/>
        <pt x="297" y="84" on="0"/>
        <pt x="370" y="84" on="1"/>
        <pt x="444" y="84" on="0"/>
        <pt x="531" y="170" on="0"/>
        <pt x="531" y="245" on="1"/>
        <pt x="531" y="732" on="1"/>
        <pt x="644" y="732" on="1"/>
      </contour>
    </TTGlyph>
    <TTGlyph name="Uacute" xMin="52" yMin="-11" xMax="644" yMax="881">
      <contour>
        <pt x="644" y="674" on="1"/>
        <pt x="644" y="269" on="1"/>
        <pt x="644" y="125" on="0"/>
        <pt x="488" y="-11" on="0"/>
        <pt x="356" y="-11" on="1"/>
        <pt x="217" y="-11" on="0"/>
        <pt x="68" y="138" on="0"/>
        <pt x="68" y="278" on="1"/>
        <pt x="68" y="614" on="1"/>
        <pt x="52" y="674" on="1"/>
        <pt x="209" y="674" on="1"/>
        <pt x="209" y="245" on="1"/>
        <pt x="209" y="172" on="0"/>
        <pt x="297" y="84" on="0"/>
        <pt x="370" y="84" on="1"/>
        <pt x="444" y="84" on="0"/>
        <pt x="531" y="170" on="0"/>
        <pt x="531" y="245" on="1"/>
        <pt x="531" y="674" on="1"/>
      </contour>
      <contour>
        <pt x="576" y="881" on="1"/>
        <pt x="425" y="716" on="1"/>
        <pt x="322" y="716" on="1"/>
        <pt x="431" y="881" on="1"/>
      </contour>
    </TTGlyph>
    <TTGlyph name="Ucircumflex" xMin="52" yMin="-11" xMax="644" yMax="863">
      <contour>
        <pt x="644" y="674" on="1"/>
        <pt x="644" y="269" on="1"/>
        <pt x="644" y="125" on="0"/>
        <pt x="488" y="-11" on="0"/>
        <pt x="356" y="-11" on="1"/>
        <pt x="217" y="-11" on="0"/>
        <pt x="68" y="138" on="0"/>
        <pt x="68" y="278" on="1"/>
        <pt x="68" y="614" on="1"/>
        <pt x="52" y="674" on="1"/>
        <pt x="209" y="674" on="1"/>
        <pt x="209" y="245" on="1"/>
        <pt x="209" y="172" on="0"/>
        <pt x="297" y="84" on="0"/>
        <pt x="370" y="84" on="1"/>
        <pt x="444" y="84" on="0"/>
        <pt x="531" y="170" on="0"/>
        <pt x="531" y="245" on="1"/>
        <pt x="531" y="674" on="1"/>
      </contour>
      <contour>
        <pt x="517" y="718" on="1"/>
        <pt x="439" y="718" on="1"/>
        <pt x="369" y="792" on="1"/>
        <pt x="300" y="718" on="1"/>
        <pt x="224" y="718" on="1"/>
        <pt x="320" y="863" on="1"/>
        <pt x="418" y="863" on="1"/>
      </contour>
    </TTGlyph>
    <TTGlyph name="Udieresis" xMin="52" yMin="-11" xMax="644" yMax="849">
      <contour>
        <pt x="644" y="674" on="1"/>
        <pt x="644" y="269" on="1"/>
        <pt x="644" y="125" on="0"/>
        <pt x="488" y="-11" on="0"/>
        <pt x="356" y="-11" on="1"/>
        <pt x="217" y="-11" on="0"/>
        <pt x="68" y="138" on="0"/>
        <pt x="68" y="278" on="1"/>
        <pt x="68" y="614" on="1"/>
        <pt x="52" y="674" on="1"/>
        <pt x="209" y="674" on="1"/>
        <pt x="209" y="245" on="1"/>
        <pt x="209" y="172" on="0"/>
        <pt x="297" y="84" on="0"/>
        <pt x="370" y="84" on="1"/>
        <pt x="444" y="84" on="0"/>
        <pt x="531" y="170" on="0"/>
        <pt x="531" y="245" on="1"/>
        <pt x="531" y="674" on="1"/>
      </contour>
      <contour>
        <pt x="450" y="735" on="1"/>
        <pt x="427" y="735" on="0"/>
        <pt x="393" y="769" on="0"/>
        <pt x="393" y="815" on="0"/>
        <pt x="427" y="849" on="0"/>
        <pt x="450" y="849" on="1"/>
        <pt x="474" y="849" on="0"/>
        <pt x="508" y="816" on="0"/>
        <pt x="508" y="768" on="0"/>
        <pt x="474" y="735" on="0"/>
      </contour>
      <contour>
        <pt x="330" y="832" on="1"/>
        <pt x="347" y="816" on="0"/>
        <pt x="347" y="768" on="0"/>
        <pt x="314" y="735" on="0"/>
        <pt x="290" y="735" on="1"/>
        <pt x="266" y="735" on="0"/>
        <pt x="233" y="768" on="0"/>
        <pt x="233" y="816" on="0"/>
        <pt x="266" y="849" on="0"/>
        <pt x="290" y="849" on="1"/>
        <pt x="314" y="849" on="0"/>
      </contour>
    </TTGlyph>
    <TTGlyph name="Ugrave" xMin="52" yMin="-11" xMax="644" yMax="881">
      <contour>
        <pt x="644" y="674" on="1"/>
        <pt x="644" y="269" on="1"/>
        <pt x="644" y="125" on="0"/>
        <pt x="488" y="-11" on="0"/>
        <pt x="356" y="-11" on="1"/>
        <pt x="217" y="-11" on="0"/>
        <pt x="68" y="138" on="0"/>
        <pt x="68" y="278" on="1"/>
        <pt x="68" y="614" on="1"/>
        <pt x="52" y="674" on="1"/>
        <pt x="209" y="674" on="1"/>
        <pt x="209" y="245" on="1"/>
        <pt x="209" y="172" on="0"/>
        <pt x="297" y="84" on="0"/>
        <pt x="370" y="84" on="1"/>
        <pt x="444" y="84" on="0"/>
        <pt x="531" y="170" on="0"/>
        <pt x="531" y="245" on="1"/>
        <pt x="531" y="674" on="1"/>
      </contour>
      <contour>
        <pt x="431" y="716" on="1"/>
        <pt x="328" y="716" on="1"/>
        <pt x="177" y="881" on="1"/>
        <pt x="322" y="881" on="1"/>
      </contour>
    </TTGlyph>
    <TTGlyph name="V" xMin="0" yMin="-2" xMax="603" yMax="731">
      <contour>
        <pt x="603" y="731" on="1"/>
        <pt x="350" y="-2" on="1"/>
        <pt x="252" y="-2" on="1"/>
        <pt x="0" y="731" on="1"/>
        <pt x="146" y="731" on="1"/>
        <pt x="282" y="335" on="0"/>
        <pt x="289" y="313" on="1"/>
        <pt x="303" y="269" on="0"/>
        <pt x="318" y="199" on="1"/>
        <pt x="332" y="267" on="0"/>
        <pt x="357" y="336" on="1"/>
        <pt x="492" y="731" on="1"/>
      </contour>
    </TTGlyph>
    <TTGlyph name="W" xMin="-14" yMin="-2" xMax="908" yMax="732">
      <contour>
        <pt x="908" y="732" on="1"/>
        <pt x="705" y="-2" on="1"/>
        <pt x="581" y="-2" on="1"/>
        <pt x="570" y="36" on="0"/>
        <pt x="519" y="217" on="0"/>
        <pt x="483" y="352" on="0"/>
        <pt x="468" y="414" on="1"/>
        <pt x="454" y="474" on="0"/>
        <pt x="448" y="526" on="1"/>
        <pt x="435" y="438" on="0"/>
        <pt x="414" y="361" on="1"/>
        <pt x="315" y="-2" on="1"/>
        <pt x="187" y="-2" on="1"/>
        <pt x="-14" y="732" on="1"/>
        <pt x="124" y="732" on="1"/>
        <pt x="229" y="352" on="0"/>
        <pt x="240" y="309" on="1"/>
        <pt x="253" y="255" on="0"/>
        <pt x="263" y="182" on="1"/>
        <pt x="272" y="247" on="0"/>
        <pt x="298" y="346" on="1"/>
        <pt x="403" y="732" on="1"/>
        <pt x="519" y="732" on="1"/>
        <pt x="531" y="688" on="0"/>
        <pt x="582" y="511" on="0"/>
        <pt x="620" y="370" on="0"/>
        <pt x="636" y="307" on="1"/>
        <pt x="648" y="258" on="0"/>
        <pt x="657" y="182" on="1"/>
        <pt x="669" y="268" on="0"/>
        <pt x="691" y="346" on="1"/>
        <pt x="797" y="732" on="1"/>
      </contour>
    </TTGlyph>
    <TTGlyph name="X" xMin="-12" yMin="0" xMax="597" yMax="732">
      <contour>
        <pt x="597" y="0" on="1"/>
        <pt x="437" y="0" on="1"/>
        <pt x="282" y="266" on="1"/>
        <pt x="117" y="0" on="1"/>
        <pt x="-12" y="0" on="1"/>
        <pt x="217" y="371" on="1"/>
        <pt x="2" y="732" on="1"/>
        <pt x="161" y="732" on="1"/>
        <pt x="298" y="503" on="1"/>
        <pt x="440" y="732" on="1"/>
        <pt x="569" y="732" on="1"/>
        <pt x="362" y="394" on="1"/>
      </contour>
    </TTGlyph>
    <TTGlyph name="Y" xMin="10" yMin="0" xMax="574" yMax="732">
      <contour>
        <pt x="574" y="732" on="1"/>
        <pt x="357" y="333" on="1"/>
        <pt x="357" y="0" on="1"/>
        <pt x="224" y="0" on="1"/>
        <pt x="224" y="333" on="1"/>
        <pt x="10" y="732" on="1"/>
        <pt x="158" y="732" on="1"/>
        <pt x="304" y="460" on="1"/>
        <pt x="454" y="732" on="1"/>
      </contour>
    </TTGlyph>
    <TTGlyph name="Yacute" xMin="10" yMin="0" xMax="574" yMax="881">
      <contour>
        <pt x="574" y="674" on="1"/>
        <pt x="357" y="274" on="1"/>
        <pt x="357" y="0" on="1"/>
        <pt x="224" y="0" on="1"/>
        <pt x="224" y="274" on="1"/>
        <pt x="10" y="674" on="1"/>
        <pt x="158" y="674" on="1"/>
        <pt x="304" y="401" on="1"/>
        <pt x="454" y="674" on="1"/>
      </contour>
      <contour>
        <pt x="512" y="881" on="1"/>
        <pt x="361" y="716" on="1"/>
        <pt x="258" y="716" on="1"/>
        <pt x="367" y="881" on="1"/>
      </contour>
    </TTGlyph>
    <TTGlyph name="Ydieresis" xMin="10" yMin="0" xMax="574" yMax="849">
      <contour>
        <pt x="574" y="674" on="1"/>
        <pt x="357" y="274" on="1"/>
        <pt x="357" y="0" on="1"/>
        <pt x="224" y="0" on="1"/>
        <pt x="224" y="274" on="1"/>
        <pt x="10" y="674" on="1"/>
        <pt x="158" y="674" on="1"/>
        <pt x="304" y="401" on="1"/>
        <pt x="454" y="674" on="1"/>
      </contour>
      <contour>
        <pt x="386" y="735" on="1"/>
        <pt x="363" y="735" on="0"/>
        <pt x="329" y="769" on="0"/>
        <pt x="329" y="815" on="0"/>
        <pt x="363" y="849" on="0"/>
        <pt x="386" y="849" on="1"/>
        <pt x="410" y="849" on="0"/>
        <pt x="444" y="816" on="0"/>
        <pt x="444" y="768" on="0"/>
        <pt x="410" y="735" on="0"/>
      </contour>
      <contour>
        <pt x="266" y="832" on="1"/>
        <pt x="283" y="816" on="0"/>
        <pt x="283" y="768" on="0"/>
        <pt x="250" y="735" on="0"/>
        <pt x="226" y="735" on="1"/>
        <pt x="202" y="735" on="0"/>
        <pt x="169" y="768" on="0"/>
        <pt x="169" y="816" on="0"/>
        <pt x="202" y="849" on="0"/>
        <pt x="226" y="849" on="1"/>
        <pt x="250" y="849" on="0"/>
      </contour>
    </TTGlyph>
    <TTGlyph name="Z" xMin="13" yMin="0" xMax="558" yMax="732">
      <contour>
        <pt x="558" y="99" on="1"/>
        <pt x="546" y="0" on="1"/>
        <pt x="13" y="0" on="1"/>
        <pt x="13" y="82" on="1"/>
        <pt x="364" y="634" on="1"/>
        <pt x="37" y="634" on="1"/>
        <pt x="37" y="732" on="1"/>
        <pt x="540" y="732" on="1"/>
        <pt x="540" y="659" on="1"/>
        <pt x="182" y="99" on="1"/>
      </contour>
    </TTGlyph>
    <TTGlyph name="Zcaron" xMin="13" yMin="0" xMax="558" yMax="861">
      <contour>
        <pt x="558" y="99" on="1"/>
        <pt x="546" y="0" on="1"/>
        <pt x="13" y="0" on="1"/>
        <pt x="13" y="82" on="1"/>
        <pt x="364" y="576" on="1"/>
        <pt x="37" y="576" on="1"/>
        <pt x="37" y="674" on="1"/>
        <pt x="540" y="674" on="1"/>
        <pt x="540" y="601" on="1"/>
        <pt x="182" y="99" on="1"/>
      </contour>
      <contour>
        <pt x="447" y="861" on="1"/>
        <pt x="351" y="716" on="1"/>
        <pt x="253" y="716" on="1"/>
        <pt x="154" y="861" on="1"/>
        <pt x="232" y="861" on="1"/>
        <pt x="302" y="787" on="1"/>
        <pt x="371" y="861" on="1"/>
      </contour>
    </TTGlyph>
    <TTGlyph name="a" xMin="30" yMin="-11" xMax="516" yMax="509">
      <contour>
        <pt x="516" y="19" on="1"/>
        <pt x="507" y="17" on="0"/>
        <pt x="470" y="5" on="0"/>
        <pt x="446" y="-2" on="0"/>
        <pt x="413" y="-8" on="0"/>
        <pt x="400" y="-8" on="1"/>
        <pt x="370" y="-8" on="0"/>
        <pt x="328" y="29" on="0"/>
        <pt x="321" y="59" on="1"/>
        <pt x="271" y="-11" on="0"/>
        <pt x="171" y="-11" on="1"/>
        <pt x="110" y="-11" on="0"/>
        <pt x="30" y="57" on="0"/>
        <pt x="30" y="117" on="1"/>
        <pt x="30" y="169" on="0"/>
        <pt x="80" y="241" on="0"/>
        <pt x="166" y="276" on="0"/>
        <pt x="252" y="291" on="0"/>
        <pt x="301" y="291" on="1"/>
        <pt x="301" y="356" on="1"/>
        <pt x="301" y="395" on="0"/>
        <pt x="267" y="426" on="0"/>
        <pt x="229" y="426" on="1"/>
        <pt x="176" y="426" on="0"/>
        <pt x="101" y="368" on="1"/>
        <pt x="52" y="447" on="1"/>
        <pt x="143" y="509" on="0"/>
        <pt x="254" y="509" on="1"/>
        <pt x="334" y="509" on="0"/>
        <pt x="421" y="427" on="0"/>
        <pt x="421" y="347" on="1"/>
        <pt x="421" y="130" on="1"/>
        <pt x="421" y="80" on="0"/>
        <pt x="445" y="80" on="1"/>
        <pt x="453" y="80" on="0"/>
        <pt x="495" y="92" on="1"/>
      </contour>
      <contour>
        <pt x="301" y="186" on="1"/>
        <pt x="301" y="209" on="1"/>
        <pt x="155" y="209" on="0"/>
        <pt x="155" y="129" on="1"/>
        <pt x="155" y="107" on="0"/>
        <pt x="190" y="81" on="0"/>
        <pt x="213" y="81" on="1"/>
        <pt x="252" y="81" on="0"/>
        <pt x="301" y="146" on="0"/>
      </contour>
    </TTGlyph>
    <TTGlyph name="aacute" xMin="30" yMin="-11" xMax="516" yMax="755">
      <component glyphName="acute" x="169" y="0" flags="0x4"/>
      <component glyphName="a" x="0" y="0" flags="0x4"/>
    </TTGlyph>
    <TTGlyph name="acircumflex" xMin="30" yMin="-11" xMax="516" yMax="733">
      <component glyphName="circumflex" x="115" y="0" flags="0x4"/>
      <component glyphName="a" x="0" y="0" flags="0x4"/>
    </TTGlyph>
    <TTGlyph name="acute" xMin="33" yMin="590" xMax="287" yMax="755">
      <contour>
        <pt x="287" y="755" on="1"/>
        <pt x="136" y="590" on="1"/>
        <pt x="33" y="590" on="1"/>
        <pt x="142" y="755" on="1"/>
      </contour>
    </TTGlyph>
    <TTGlyph name="adieresis" xMin="30" yMin="-11" xMax="516" yMax="691">
      <component glyphName="dieresis" x="109" y="7" flags="0x4"/>
      <component glyphName="a" x="0" y="0" flags="0x4"/>
    </TTGlyph>
    <TTGlyph name="ae" xMin="28" yMin="-11" xMax="735" yMax="511">
      <contour>
        <pt x="735" y="283" on="1"/>
        <pt x="735" y="223" on="0"/>
        <pt x="684" y="223" on="1"/>
        <pt x="422" y="223" on="1"/>
        <pt x="422" y="163" on="0"/>
        <pt x="493" y="69" on="0"/>
        <pt x="551" y="69" on="1"/>
        <pt x="582" y="69" on="0"/>
        <pt x="649" y="99" on="0"/>
        <pt x="672" y="122" on="1"/>
        <pt x="723" y="42" on="1"/>
        <pt x="692" y="17" on="0"/>
        <pt x="590" y="-11" on="0"/>
        <pt x="545" y="-11" on="1"/>
        <pt x="412" y="-11" on="0"/>
        <pt x="350" y="73" on="1"/>
        <pt x="292" y="-11" on="0"/>
        <pt x="169" y="-11" on="1"/>
        <pt x="110" y="-11" on="0"/>
        <pt x="28" y="65" on="0"/>
        <pt x="28" y="124" on="1"/>
        <pt x="28" y="176" on="0"/>
        <pt x="78" y="250" on="0"/>
        <pt x="163" y="287" on="0"/>
        <pt x="250" y="302" on="0"/>
        <pt x="299" y="302" on="1"/>
        <pt x="299" y="356" on="1"/>
        <pt x="299" y="395" on="0"/>
        <pt x="265" y="426" on="0"/>
        <pt x="227" y="426" on="1"/>
        <pt x="174" y="426" on="0"/>
        <pt x="99" y="368" on="1"/>
        <pt x="50" y="447" on="1"/>
        <pt x="141" y="509" on="0"/>
        <pt x="252" y="509" on="1"/>
        <pt x="345" y="509" on="0"/>
        <pt x="385" y="456" on="1"/>
        <pt x="409" y="482" on="0"/>
        <pt x="489" y="511" on="0"/>
        <pt x="528" y="511" on="1"/>
        <pt x="629" y="511" on="0"/>
        <pt x="735" y="386" on="0"/>
      </contour>
      <contour>
        <pt x="609" y="324" on="1"/>
        <pt x="609" y="428" on="0"/>
        <pt x="530" y="428" on="1"/>
        <pt x="485" y="428" on="0"/>
        <pt x="425" y="348" on="0"/>
        <pt x="425" y="302" on="1"/>
        <pt x="593" y="302" on="1"/>
        <pt x="609" y="302" on="0"/>
      </contour>
      <contour>
        <pt x="299" y="223" on="1"/>
        <pt x="265" y="223" on="0"/>
        <pt x="205" y="211" on="0"/>
        <pt x="153" y="168" on="0"/>
        <pt x="153" y="134" on="1"/>
        <pt x="153" y="108" on="0"/>
        <pt x="185" y="81" on="0"/>
        <pt x="212" y="81" on="1"/>
        <pt x="299" y="81" on="0"/>
      </contour>
    </TTGlyph>
    <TTGlyph name="agrave" xMin="30" yMin="-11" xMax="516" yMax="755">
      <component glyphName="a" x="0" y="0" flags="0x204"/>
      <component glyphName="grave" x="52" y="0" flags="0x4"/>
    </TTGlyph>
    <TTGlyph name="ampersand" xMin="31" yMin="-12" xMax="679" yMax="690">
      <contour>
        <pt x="679" y="0" on="1"/>
        <pt x="605" y="0" on="1"/>
        <pt x="555" y="0" on="0"/>
        <pt x="485" y="38" on="0"/>
        <pt x="443" y="79" on="1"/>
        <pt x="355" y="-12" on="0"/>
        <pt x="245" y="-12" on="1"/>
        <pt x="154" y="-12" on="0"/>
        <pt x="31" y="95" on="0"/>
        <pt x="31" y="185" on="1"/>
        <pt x="31" y="303" on="0"/>
        <pt x="161" y="388" on="1"/>
        <pt x="107" y="462" on="0"/>
        <pt x="107" y="524" on="1"/>
        <pt x="107" y="595" on="0"/>
        <pt x="210" y="690" on="0"/>
        <pt x="282" y="690" on="1"/>
        <pt x="351" y="690" on="0"/>
        <pt x="444" y="617" on="0"/>
        <pt x="444" y="550" on="1"/>
        <pt x="444" y="500" on="0"/>
        <pt x="381" y="423" on="0"/>
        <pt x="328" y="386" on="1"/>
        <pt x="341" y="372" on="0"/>
        <pt x="448" y="249" on="1"/>
        <pt x="480" y="318" on="0"/>
        <pt x="480" y="381" on="1"/>
        <pt x="558" y="362" on="1"/>
        <pt x="558" y="270" on="0"/>
        <pt x="511" y="178" on="1"/>
        <pt x="517" y="171" on="1"/>
        <pt x="560" y="123" on="0"/>
        <pt x="596" y="105" on="0"/>
        <pt x="652" y="105" on="1"/>
        <pt x="679" y="105" on="1"/>
      </contour>
      <contour>
        <pt x="338" y="546" on="1"/>
        <pt x="338" y="574" on="0"/>
        <pt x="306" y="610" on="0"/>
        <pt x="278" y="610" on="1"/>
        <pt x="251" y="610" on="0"/>
        <pt x="212" y="572" on="0"/>
        <pt x="212" y="545" on="1"/>
        <pt x="212" y="504" on="0"/>
        <pt x="264" y="452" on="1"/>
        <pt x="338" y="499" on="0"/>
      </contour>
      <contour>
        <pt x="374" y="149" on="1"/>
        <pt x="222" y="315" on="1"/>
        <pt x="148" y="262" on="0"/>
        <pt x="148" y="204" on="1"/>
        <pt x="148" y="157" on="0"/>
        <pt x="211" y="103" on="0"/>
        <pt x="258" y="103" on="1"/>
        <pt x="320" y="103" on="0"/>
      </contour>
    </TTGlyph>
    <TTGlyph name="approxequal" xMin="74" yMin="79" xMax="583" yMax="428">
      <contour>
        <pt x="513" y="417" on="1"/>
        <pt x="583" y="372" on="1"/>
        <pt x="561" y="330" on="0"/>
        <pt x="484" y="270" on="0"/>
        <pt x="441" y="270" on="1"/>
        <pt x="392" y="270" on="0"/>
        <pt x="248" y="340" on="0"/>
        <pt x="225" y="340" on="1"/>
        <pt x="183" y="340" on="0"/>
        <pt x="144" y="281" on="1"/>
        <pt x="74" y="326" on="1"/>
        <pt x="96" y="368" on="0"/>
        <pt x="173" y="428" on="0"/>
        <pt x="216" y="428" on="1"/>
        <pt x="265" y="428" on="0"/>
        <pt x="409" y="358" on="0"/>
        <pt x="432" y="358" on="1"/>
        <pt x="474" y="358" on="0"/>
      </contour>
      <contour>
        <pt x="513" y="226" on="1"/>
        <pt x="583" y="181" on="1"/>
        <pt x="561" y="139" on="0"/>
        <pt x="484" y="79" on="0"/>
        <pt x="441" y="79" on="1"/>
        <pt x="392" y="79" on="0"/>
        <pt x="248" y="149" on="0"/>
        <pt x="225" y="149" on="1"/>
        <pt x="183" y="149" on="0"/>
        <pt x="144" y="90" on="1"/>
        <pt x="74" y="135" on="1"/>
        <pt x="96" y="177" on="0"/>
        <pt x="173" y="237" on="0"/>
        <pt x="216" y="237" on="1"/>
        <pt x="265" y="237" on="0"/>
        <pt x="409" y="167" on="0"/>
        <pt x="432" y="167" on="1"/>
        <pt x="474" y="167" on="0"/>
      </contour>
    </TTGlyph>
    <TTGlyph name="aring" xMin="30" yMin="-11" xMax="516" yMax="765">
      <component glyphName="ring" x="109" y="20" flags="0x4"/>
      <component glyphName="a" x="0" y="0" flags="0x4"/>
    </TTGlyph>
    <TTGlyph name="asciicircum" xMin="69" yMin="0" xMax="591" yMax="498">
      <contour>
        <pt x="591" y="0" on="1"/>
        <pt x="500" y="0" on="1"/>
        <pt x="330" y="368" on="1"/>
        <pt x="157" y="0" on="1"/>
        <pt x="69" y="0" on="1"/>
        <pt x="304" y="498" on="1"/>
        <pt x="356" y="498" on="1"/>
      </contour>
    </TTGlyph>
    <TTGlyph name="asciitilde" xMin="77" yMin="189" xMax="591" yMax="357">
      <contour>
        <pt x="591" y="299" on="1"/>
        <pt x="564" y="258" on="0"/>
        <pt x="480" y="194" on="0"/>
        <pt x="439" y="194" on="1"/>
        <pt x="398" y="194" on="0"/>
        <pt x="259" y="264" on="0"/>
        <pt x="223" y="264" on="1"/>
        <pt x="178" y="264" on="0"/>
        <pt x="142" y="189" on="1"/>
        <pt x="77" y="244" on="1"/>
        <pt x="97" y="289" on="0"/>
        <pt x="178" y="354" on="0"/>
        <pt x="223" y="354" on="1"/>
        <pt x="272" y="354" on="0"/>
        <pt x="416" y="284" on="0"/>
        <pt x="439" y="284" on="1"/>
        <pt x="487" y="284" on="0"/>
        <pt x="528" y="357" on="1"/>
      </contour>
    </TTGlyph>
    <TTGlyph name="asterisk" xMin="56" yMin="353" xMax="458" yMax="741">
      <contour>
        <pt x="458" y="555" on="1"/>
        <pt x="300" y="528" on="1"/>
        <pt x="415" y="422" on="1"/>
        <pt x="326" y="353" on="1"/>
        <pt x="255" y="494" on="1"/>
        <pt x="184" y="356" on="1"/>
        <pt x="98" y="420" on="1"/>
        <pt x="209" y="531" on="1"/>
        <pt x="56" y="552" on="1"/>
        <pt x="86" y="659" on="1"/>
        <pt x="226" y="585" on="1"/>
        <pt x="197" y="741" on="1"/>
        <pt x="308" y="741" on="1"/>
        <pt x="283" y="585" on="1"/>
        <pt x="417" y="663" on="1"/>
      </contour>
    </TTGlyph>
    <TTGlyph name="at" xMin="45" yMin="-135" xMax="787" yMax="622">
      <contour>
        <pt x="451" y="-69" on="1"/>
        <pt x="466" y="-122" on="1"/>
        <pt x="420" y="-135" on="0"/>
        <pt x="367" y="-135" on="1"/>
        <pt x="227" y="-135" on="0"/>
        <pt x="45" y="52" on="0"/>
        <pt x="45" y="192" on="1"/>
        <pt x="45" y="271" on="0"/>
        <pt x="103" y="423" on="0"/>
        <pt x="205" y="546" on="0"/>
        <pt x="362" y="622" on="0"/>
        <pt x="454" y="622" on="1"/>
        <pt x="595" y="622" on="0"/>
        <pt x="787" y="454" on="0"/>
        <pt x="787" y="311" on="1"/>
        <pt x="787" y="210" on="0"/>
        <pt x="678" y="51" on="0"/>
        <pt x="591" y="51" on="1"/>
        <pt x="514" y="51" on="0"/>
        <pt x="483" y="107" on="1"/>
        <pt x="462" y="80" on="0"/>
        <pt x="398" y="50" on="0"/>
        <pt x="369" y="50" on="1"/>
        <pt x="306" y="50" on="0"/>
        <pt x="241" y="140" on="0"/>
        <pt x="241" y="206" on="1"/>
        <pt x="241" y="288" on="0"/>
        <pt x="355" y="440" on="0"/>
        <pt x="446" y="440" on="1"/>
        <pt x="499" y="440" on="0"/>
        <pt x="532" y="403" on="1"/>
        <pt x="549" y="433" on="1"/>
        <pt x="596" y="433" on="1"/>
        <pt x="558" y="196" on="0"/>
        <pt x="558" y="162" on="1"/>
        <pt x="558" y="107" on="0"/>
        <pt x="595" y="107" on="1"/>
        <pt x="651" y="107" on="0"/>
        <pt x="723" y="232" on="0"/>
        <pt x="723" y="311" on="1"/>
        <pt x="723" y="429" on="0"/>
        <pt x="569" y="568" on="0"/>
        <pt x="454" y="568" on="1"/>
        <pt x="352" y="568" on="0"/>
        <pt x="190" y="455" on="0"/>
        <pt x="109" y="285" on="0"/>
        <pt x="109" y="192" on="1"/>
        <pt x="109" y="75" on="0"/>
        <pt x="255" y="-81" on="0"/>
        <pt x="367" y="-81" on="1"/>
        <pt x="409" y="-81" on="0"/>
      </contour>
      <contour>
        <pt x="501" y="349" on="1"/>
        <pt x="471" y="378" on="0"/>
        <pt x="440" y="378" on="1"/>
        <pt x="405" y="378" on="0"/>
        <pt x="353" y="312" on="0"/>
        <pt x="332" y="237" on="0"/>
        <pt x="332" y="206" on="1"/>
        <pt x="332" y="113" on="0"/>
        <pt x="386" y="113" on="1"/>
        <pt x="413" y="113" on="0"/>
        <pt x="453" y="154" on="0"/>
        <pt x="479" y="232" on="0"/>
        <pt x="494" y="301" on="0"/>
      </contour>
    </TTGlyph>
    <TTGlyph name="atilde" xMin="30" yMin="-11" xMax="516" yMax="692">
      <component glyphName="tilde" x="75" y="0" flags="0x4"/>
      <component glyphName="a" x="0" y="0" flags="0x4"/>
    </TTGlyph>
    <TTGlyph name="b" xMin="54" yMin="-12" xMax="530" yMax="768">
      <contour>
        <pt x="530" y="251" on="1"/>
        <pt x="530" y="141" on="0"/>
        <pt x="403" y="-12" on="0"/>
        <pt x="295" y="-12" on="1"/>
        <pt x="203" y="-12" on="0"/>
        <pt x="147" y="57" on="1"/>
        <pt x="126" y="-1" on="1"/>
        <pt x="64" y="-1" on="1"/>
        <pt x="68" y="43" on="0"/>
        <pt x="68" y="65" on="1"/>
        <pt x="68" y="713" on="1"/>
        <pt x="68" y="714" on="0"/>
        <pt x="55" y="765" on="0"/>
        <pt x="54" y="768" on="1"/>
        <pt x="188" y="768" on="1"/>
        <pt x="188" y="526" on="1"/>
        <pt x="188" y="502" on="0"/>
        <pt x="186" y="459" on="0"/>
        <pt x="186" y="457" on="1"/>
        <pt x="246" y="508" on="0"/>
        <pt x="327" y="508" on="1"/>
        <pt x="391" y="508" on="0"/>
        <pt x="486" y="428" on="0"/>
        <pt x="530" y="313" on="0"/>
      </contour>
      <contour>
        <pt x="399" y="245" on="1"/>
        <pt x="399" y="283" on="0"/>
        <pt x="379" y="356" on="0"/>
        <pt x="325" y="416" on="0"/>
        <pt x="286" y="416" on="1"/>
        <pt x="231" y="416" on="0"/>
        <pt x="188" y="368" on="1"/>
        <pt x="188" y="205" on="1"/>
        <pt x="188" y="148" on="0"/>
        <pt x="238" y="70" on="0"/>
        <pt x="292" y="70" on="1"/>
        <pt x="332" y="70" on="0"/>
        <pt x="383" y="133" on="0"/>
        <pt x="399" y="206" on="0"/>
      </contour>
    </TTGlyph>
    <TTGlyph name="backslash" xMin="-18" yMin="0" xMax="345" yMax="732">
      <contour>
        <pt x="345" y="0" on="1"/>
        <pt x="251" y="0" on="1"/>
        <pt x="-18" y="732" on="1"/>
        <pt x="75" y="732" on="1"/>
      </contour>
    </TTGlyph>
    <TTGlyph name="bar" xMin="70" yMin="-116" xMax="168" yMax="745">
      <contour>
        <pt x="168" y="-116" on="1"/>
        <pt x="70" y="-116" on="1"/>
        <pt x="70" y="745" on="1"/>
        <pt x="168" y="745" on="1"/>
      </contour>
    </TTGlyph>
    <TTGlyph name="braceleft" xMin="52" yMin="-147" xMax="322" yMax="739">
      <contour>
        <pt x="322" y="-147" on="1"/>
        <pt x="276" y="-147" on="1"/>
        <pt x="117" y="-147" on="0"/>
        <pt x="117" y="24" on="1"/>
        <pt x="117" y="183" on="1"/>
        <pt x="117" y="216" on="0"/>
        <pt x="84" y="266" on="0"/>
        <pt x="52" y="266" on="1"/>
        <pt x="52" y="327" on="1"/>
        <pt x="116" y="327" on="0"/>
        <pt x="116" y="416" on="1"/>
        <pt x="116" y="569" on="1"/>
        <pt x="116" y="647" on="0"/>
        <pt x="187" y="739" on="0"/>
        <pt x="263" y="739" on="1"/>
        <pt x="322" y="739" on="1"/>
        <pt x="322" y="677" on="1"/>
        <pt x="270" y="677" on="0"/>
        <pt x="234" y="644" on="0"/>
        <pt x="234" y="593" on="1"/>
        <pt x="234" y="427" on="1"/>
        <pt x="234" y="325" on="0"/>
        <pt x="179" y="296" on="1"/>
        <pt x="233" y="267" on="0"/>
        <pt x="233" y="166" on="1"/>
        <pt x="233" y="0" on="1"/>
        <pt x="233" y="-54" on="0"/>
        <pt x="266" y="-84" on="0"/>
        <pt x="322" y="-84" on="1"/>
      </contour>
    </TTGlyph>
    <TTGlyph name="braceright" xMin="27" yMin="-147" xMax="297" yMax="739">
      <contour>
        <pt x="297" y="267" on="1"/>
        <pt x="265" y="267" on="0"/>
        <pt x="233" y="217" on="0"/>
        <pt x="233" y="183" on="1"/>
        <pt x="233" y="24" on="1"/>
        <pt x="233" y="-147" on="0"/>
        <pt x="73" y="-147" on="1"/>
        <pt x="27" y="-147" on="1"/>
        <pt x="27" y="-85" on="1"/>
        <pt x="85" y="-85" on="0"/>
        <pt x="115" y="-56" on="0"/>
        <pt x="115" y="0" on="1"/>
        <pt x="115" y="166" on="1"/>
        <pt x="115" y="267" on="0"/>
        <pt x="170" y="296" on="1"/>
        <pt x="116" y="325" on="0"/>
        <pt x="116" y="427" on="1"/>
        <pt x="116" y="593" on="1"/>
        <pt x="116" y="643" on="0"/>
        <pt x="79" y="676" on="0"/>
        <pt x="27" y="676" on="1"/>
        <pt x="27" y="739" on="1"/>
        <pt x="86" y="739" on="1"/>
        <pt x="162" y="739" on="0"/>
        <pt x="232" y="647" on="0"/>
        <pt x="232" y="569" on="1"/>
        <pt x="232" y="416" on="1"/>
        <pt x="232" y="380" on="0"/>
        <pt x="263" y="328" on="0"/>
        <pt x="297" y="328" on="1"/>
      </contour>
    </TTGlyph>
    <TTGlyph name="bracketleft" xMin="93" yMin="-132" xMax="311" yMax="732">
      <contour>
        <pt x="311" y="-132" on="1"/>
        <pt x="93" y="-132" on="1"/>
        <pt x="93" y="732" on="1"/>
        <pt x="311" y="732" on="1"/>
        <pt x="311" y="673" on="1"/>
        <pt x="212" y="673" on="1"/>
        <pt x="212" y="-73" on="1"/>
        <pt x="311" y="-73" on="1"/>
      </contour>
    </TTGlyph>
    <TTGlyph name="bracketright" xMin="40" yMin="-132" xMax="258" yMax="732">
      <contour>
        <pt x="258" y="-132" on="1"/>
        <pt x="40" y="-132" on="1"/>
        <pt x="40" y="-73" on="1"/>
        <pt x="139" y="-73" on="1"/>
        <pt x="139" y="673" on="1"/>
        <pt x="40" y="673" on="1"/>
        <pt x="40" y="732" on="1"/>
        <pt x="258" y="732" on="1"/>
      </contour>
    </TTGlyph>
    <TTGlyph name="breve" xMin="-12" yMin="572" xMax="289" yMax="732">
      <contour>
        <pt x="289" y="732" on="1"/>
        <pt x="279" y="655" on="0"/>
        <pt x="211" y="572" on="0"/>
        <pt x="138" y="572" on="1"/>
        <pt x="68" y="572" on="0"/>
        <pt x="-6" y="659" on="0"/>
        <pt x="-12" y="732" on="1"/>
        <pt x="55" y="732" on="1"/>
        <pt x="64" y="696" on="0"/>
        <pt x="102" y="662" on="0"/>
        <pt x="138" y="662" on="1"/>
        <pt x="204" y="662" on="0"/>
        <pt x="220" y="732" on="1"/>
      </contour>
    </TTGlyph>
    <TTGlyph name="brokenbar" xMin="70" yMin="-116" xMax="168" yMax="745">
      <contour>
        <pt x="168" y="392" on="1"/>
        <pt x="70" y="392" on="1"/>
        <pt x="70" y="745" on="1"/>
        <pt x="168" y="745" on="1"/>
      </contour>
      <contour>
        <pt x="168" y="-116" on="1"/>
        <pt x="70" y="-116" on="1"/>
        <pt x="70" y="237" on="1"/>
        <pt x="168" y="237" on="1"/>
      </contour>
    </TTGlyph>
    <TTGlyph name="bullet" xMin="65" yMin="201" xMax="377" yMax="513">
      <contour>
        <pt x="331" y="467" on="1"/>
        <pt x="377" y="422" on="0"/>
        <pt x="377" y="292" on="0"/>
        <pt x="287" y="201" on="0"/>
        <pt x="222" y="201" on="1"/>
        <pt x="157" y="201" on="0"/>
        <pt x="65" y="292" on="0"/>
        <pt x="65" y="422" on="0"/>
        <pt x="156" y="513" on="0"/>
        <pt x="221" y="513" on="1"/>
        <pt x="286" y="513" on="0"/>
      </contour>
    </TTGlyph>
    <TTGlyph name="c" xMin="26" yMin="-12" xMax="442" yMax="510">
      <contour>
        <pt x="442" y="35" on="1"/>
        <pt x="392" y="10" on="0"/>
        <pt x="318" y="-12" on="0"/>
        <pt x="269" y="-12" on="1"/>
        <pt x="153" y="-12" on="0"/>
        <pt x="26" y="131" on="0"/>
        <pt x="26" y="249" on="1"/>
        <pt x="26" y="366" on="0"/>
        <pt x="167" y="510" on="0"/>
        <pt x="283" y="510" on="1"/>
        <pt x="320" y="510" on="0"/>
        <pt x="404" y="484" on="0"/>
        <pt x="434" y="462" on="1"/>
        <pt x="374" y="386" on="1"/>
        <pt x="322" y="425" on="0"/>
        <pt x="272" y="425" on="1"/>
        <pt x="214" y="425" on="0"/>
        <pt x="158" y="315" on="0"/>
        <pt x="158" y="251" on="1"/>
        <pt x="158" y="206" on="0"/>
        <pt x="181" y="129" on="0"/>
        <pt x="241" y="72" on="0"/>
        <pt x="287" y="72" on="1"/>
        <pt x="333" y="72" on="0"/>
        <pt x="391" y="121" on="1"/>
      </contour>
    </TTGlyph>
    <TTGlyph name="caron" xMin="-8" yMin="588" xMax="285" yMax="733">
      <contour>
        <pt x="285" y="733" on="1"/>
        <pt x="189" y="588" on="1"/>
        <pt x="91" y="588" on="1"/>
        <pt x="-8" y="733" on="1"/>
        <pt x="70" y="733" on="1"/>
        <pt x="140" y="659" on="1"/>
        <pt x="209" y="733" on="1"/>
      </contour>
    </TTGlyph>
    <TTGlyph name="ccedilla" xMin="26" yMin="-220" xMax="442" yMax="510">
      <contour>
        <pt x="442" y="35" on="1"/>
        <pt x="392" y="10" on="0"/>
        <pt x="318" y="-12" on="0"/>
        <pt x="268" y="-12" on="1"/>
        <pt x="248" y="-48" on="1"/>
        <pt x="252" y="-48" on="1"/>
        <pt x="296" y="-48" on="0"/>
        <pt x="362" y="-85" on="0"/>
        <pt x="362" y="-126" on="1"/>
        <pt x="362" y="-220" on="0"/>
        <pt x="227" y="-220" on="1"/>
        <pt x="186" y="-220" on="0"/>
        <pt x="135" y="-190" on="1"/>
        <pt x="163" y="-140" on="1"/>
        <pt x="204" y="-162" on="0"/>
        <pt x="230" y="-162" on="1"/>
        <pt x="246" y="-162" on="0"/>
        <pt x="269" y="-143" on="0"/>
        <pt x="269" y="-129" on="1"/>
        <pt x="269" y="-100" on="0"/>
        <pt x="236" y="-100" on="1"/>
        <pt x="189" y="-100" on="1"/>
        <pt x="170" y="-100" on="0"/>
        <pt x="170" y="-83" on="1"/>
        <pt x="170" y="-78" on="0"/>
        <pt x="173" y="-73" on="1"/>
        <pt x="212" y="-7" on="1"/>
        <pt x="122" y="10" on="0"/>
        <pt x="26" y="146" on="0"/>
        <pt x="26" y="249" on="1"/>
        <pt x="26" y="366" on="0"/>
        <pt x="167" y="510" on="0"/>
        <pt x="283" y="510" on="1"/>
        <pt x="320" y="510" on="0"/>
        <pt x="404" y="484" on="0"/>
        <pt x="434" y="462" on="1"/>
        <pt x="374" y="386" on="1"/>
        <pt x="322" y="425" on="0"/>
        <pt x="272" y="425" on="1"/>
        <pt x="214" y="425" on="0"/>
        <pt x="158" y="315" on="0"/>
        <pt x="158" y="251" on="1"/>
        <pt x="158" y="206" on="0"/>
        <pt x="181" y="129" on="0"/>
        <pt x="241" y="72" on="0"/>
        <pt x="287" y="72" on="1"/>
        <pt x="333" y="72" on="0"/>
        <pt x="391" y="121" on="1"/>
      </contour>
    </TTGlyph>
    <TTGlyph name="cedilla" xMin="25" yMin="-220" xMax="252" yMax="9">
      <contour>
        <pt x="117" y="-220" on="1"/>
        <pt x="76" y="-220" on="0"/>
        <pt x="25" y="-190" on="1"/>
        <pt x="53" y="-140" on="1"/>
        <pt x="94" y="-162" on="0"/>
        <pt x="120" y="-162" on="1"/>
        <pt x="136" y="-162" on="0"/>
        <pt x="159" y="-143" on="0"/>
        <pt x="159" y="-129" on="1"/>
        <pt x="159" y="-100" on="0"/>
        <pt x="126" y="-100" on="1"/>
        <pt x="79" y="-100" on="1"/>
        <pt x="60" y="-100" on="0"/>
        <pt x="60" y="-83" on="1"/>
        <pt x="60" y="-78" on="0"/>
        <pt x="63" y="-73" on="1"/>
        <pt x="111" y="9" on="1"/>
        <pt x="170" y="9" on="1"/>
        <pt x="138" y="-48" on="1"/>
        <pt x="142" y="-48" on="1"/>
        <pt x="188" y="-48" on="0"/>
        <pt x="252" y="-84" on="0"/>
        <pt x="252" y="-126" on="1"/>
        <pt x="252" y="-220" on="0"/>
      </contour>
    </TTGlyph>
    <TTGlyph name="cent" xMin="26" yMin="-128" xMax="442" yMax="622">
      <contour>
        <pt x="442" y="35" on="1"/>
        <pt x="354" y="-12" on="0"/>
        <pt x="256" y="-12" on="1"/>
        <pt x="245" y="-128" on="1"/>
        <pt x="173" y="-128" on="1"/>
        <pt x="205" y="-5" on="1"/>
        <pt x="115" y="15" on="0"/>
        <pt x="26" y="152" on="0"/>
        <pt x="26" y="249" on="1"/>
        <pt x="26" y="358" on="0"/>
        <pt x="148" y="499" on="0"/>
        <pt x="255" y="509" on="1"/>
        <pt x="264" y="622" on="1"/>
        <pt x="338" y="622" on="1"/>
        <pt x="310" y="508" on="1"/>
        <pt x="378" y="501" on="0"/>
        <pt x="434" y="462" on="1"/>
        <pt x="374" y="386" on="1"/>
        <pt x="322" y="425" on="0"/>
        <pt x="272" y="425" on="1"/>
        <pt x="214" y="425" on="0"/>
        <pt x="158" y="315" on="0"/>
        <pt x="158" y="251" on="1"/>
        <pt x="158" y="206" on="0"/>
        <pt x="181" y="129" on="0"/>
        <pt x="241" y="72" on="0"/>
        <pt x="287" y="72" on="1"/>
        <pt x="333" y="72" on="0"/>
        <pt x="391" y="121" on="1"/>
      </contour>
    </TTGlyph>
    <TTGlyph name="circumflex" xMin="-8" yMin="588" xMax="285" yMax="733">
      <contour>
        <pt x="285" y="588" on="1"/>
        <pt x="207" y="588" on="1"/>
        <pt x="137" y="662" on="1"/>
        <pt x="68" y="588" on="1"/>
        <pt x="-8" y="588" on="1"/>
        <pt x="88" y="733" on="1"/>
        <pt x="186" y="733" on="1"/>
      </contour>
    </TTGlyph>
    <TTGlyph name="colon" xMin="89" yMin="-12" xMax="243" yMax="432">
      <contour>
        <pt x="220" y="120" on="1"/>
        <pt x="243" y="97" on="0"/>
        <pt x="243" y="33" on="0"/>
        <pt x="198" y="-12" on="0"/>
        <pt x="166" y="-12" on="1"/>
        <pt x="134" y="-12" on="0"/>
        <pt x="89" y="33" on="0"/>
        <pt x="89" y="97" on="0"/>
        <pt x="134" y="143" on="0"/>
        <pt x="166" y="143" on="1"/>
        <pt x="198" y="143" on="0"/>
      </contour>
      <contour>
        <pt x="220" y="409" on="1"/>
        <pt x="243" y="386" on="0"/>
        <pt x="243" y="322" on="0"/>
        <pt x="198" y="277" on="0"/>
        <pt x="166" y="277" on="1"/>
        <pt x="134" y="277" on="0"/>
        <pt x="89" y="322" on="0"/>
        <pt x="89" y="386" on="0"/>
        <pt x="134" y="432" on="0"/>
        <pt x="166" y="432" on="1"/>
        <pt x="198" y="432" on="0"/>
      </contour>
    </TTGlyph>
    <TTGlyph name="comma" xMin="33" yMin="-134" xMax="183" yMax="139">
      <contour>
        <pt x="183" y="46" on="1"/>
        <pt x="183" y="-55" on="0"/>
        <pt x="74" y="-134" on="1"/>
        <pt x="47" y="-107" on="0"/>
        <pt x="35" y="-93" on="1"/>
        <pt x="50" y="-79" on="0"/>
        <pt x="81" y="-34" on="0"/>
        <pt x="81" y="-20" on="1"/>
        <pt x="81" y="-10" on="0"/>
        <pt x="57" y="12" on="0"/>
        <pt x="33" y="45" on="0"/>
        <pt x="33" y="69" on="1"/>
        <pt x="33" y="98" on="0"/>
        <pt x="73" y="139" on="0"/>
        <pt x="102" y="139" on="1"/>
        <pt x="139" y="139" on="0"/>
        <pt x="183" y="84" on="0"/>
      </contour>
    </TTGlyph>
    <TTGlyph name="copyright" xMin="39" yMin="-27" xMax="593" yMax="527">
      <contour>
        <pt x="316" y="-27" on="1"/>
        <pt x="201" y="-27" on="0"/>
        <pt x="39" y="135" on="0"/>
        <pt x="39" y="365" on="0"/>
        <pt x="201" y="527" on="0"/>
        <pt x="316" y="527" on="1"/>
        <pt x="430" y="527" on="0"/>
        <pt x="593" y="364" on="0"/>
        <pt x="593" y="136" on="0"/>
        <pt x="430" y="-27" on="0"/>
      </contour>
      <contour>
        <pt x="483" y="82" on="1"/>
        <pt x="553" y="152" on="0"/>
        <pt x="553" y="348" on="0"/>
        <pt x="414" y="487" on="0"/>
        <pt x="316" y="487" on="1"/>
        <pt x="218" y="487" on="0"/>
        <pt x="79" y="348" on="0"/>
        <pt x="79" y="152" on="0"/>
        <pt x="218" y="13" on="0"/>
        <pt x="316" y="13" on="1"/>
        <pt x="414" y="13" on="0"/>
      </contour>
      <contour>
        <pt x="435" y="112" on="1"/>
        <pt x="373" y="80" on="0"/>
        <pt x="319" y="80" on="1"/>
        <pt x="244" y="80" on="0"/>
        <pt x="161" y="174" on="0"/>
        <pt x="161" y="326" on="0"/>
        <pt x="253" y="421" on="0"/>
        <pt x="328" y="421" on="1"/>
        <pt x="383" y="421" on="0"/>
        <pt x="430" y="386" on="1"/>
        <pt x="386" y="330" on="1"/>
        <pt x="352" y="357" on="0"/>
        <pt x="321" y="357" on="1"/>
        <pt x="287" y="357" on="0"/>
        <pt x="254" y="290" on="0"/>
        <pt x="254" y="251" on="1"/>
        <pt x="254" y="208" on="0"/>
        <pt x="291" y="143" on="0"/>
        <pt x="331" y="143" on="1"/>
        <pt x="366" y="143" on="0"/>
        <pt x="397" y="176" on="1"/>
      </contour>
    </TTGlyph>
    <TTGlyph name="currency" xMin="37" yMin="104" xMax="496" yMax="562">
      <contour>
        <pt x="427" y="104" on="1"/>
        <pt x="375" y="155" on="1"/>
        <pt x="327" y="121" on="0"/>
        <pt x="266" y="121" on="1"/>
        <pt x="205" y="121" on="0"/>
        <pt x="157" y="155" on="1"/>
        <pt x="106" y="104" on="1"/>
        <pt x="37" y="173" on="1"/>
        <pt x="93" y="228" on="1"/>
        <pt x="68" y="276" on="0"/>
        <pt x="68" y="388" on="0"/>
        <pt x="93" y="436" on="1"/>
        <pt x="37" y="493" on="1"/>
        <pt x="106" y="562" on="1"/>
        <pt x="158" y="509" on="1"/>
        <pt x="206" y="543" on="0"/>
        <pt x="266" y="543" on="1"/>
        <pt x="326" y="543" on="0"/>
        <pt x="374" y="509" on="1"/>
        <pt x="427" y="562" on="1"/>
        <pt x="496" y="493" on="1"/>
        <pt x="439" y="436" on="1"/>
        <pt x="465" y="386" on="0"/>
        <pt x="465" y="278" on="0"/>
        <pt x="439" y="229" on="1"/>
        <pt x="496" y="173" on="1"/>
      </contour>
      <contour>
        <pt x="266" y="205" on="1"/>
        <pt x="308" y="205" on="0"/>
        <pt x="370" y="271" on="0"/>
        <pt x="370" y="334" on="1"/>
        <pt x="370" y="387" on="0"/>
        <pt x="314" y="459" on="0"/>
        <pt x="267" y="459" on="1"/>
        <pt x="221" y="459" on="0"/>
        <pt x="163" y="387" on="0"/>
        <pt x="163" y="332" on="1"/>
        <pt x="163" y="272" on="0"/>
        <pt x="227" y="205" on="0"/>
      </contour>
    </TTGlyph>
    <TTGlyph name="d" xMin="28" yMin="-12" xMax="515" yMax="768">
      <contour>
        <pt x="515" y="3" on="1"/>
        <pt x="394" y="-9" on="1"/>
        <pt x="386" y="13" on="0"/>
        <pt x="379" y="51" on="1"/>
        <pt x="359" y="22" on="0"/>
        <pt x="280" y="-12" on="0"/>
        <pt x="241" y="-12" on="1"/>
        <pt x="140" y="-12" on="0"/>
        <pt x="28" y="141" on="0"/>
        <pt x="28" y="245" on="1"/>
        <pt x="28" y="359" on="0"/>
        <pt x="149" y="509" on="0"/>
        <pt x="260" y="509" on="1"/>
        <pt x="332" y="509" on="0"/>
        <pt x="371" y="477" on="1"/>
        <pt x="370" y="504" on="0"/>
        <pt x="370" y="538" on="1"/>
        <pt x="370" y="714" on="1"/>
        <pt x="355" y="768" on="1"/>
        <pt x="490" y="768" on="1"/>
        <pt x="490" y="142" on="1"/>
        <pt x="490" y="49" on="0"/>
      </contour>
      <contour>
        <pt x="370" y="129" on="1"/>
        <pt x="370" y="292" on="1"/>
        <pt x="370" y="349" on="0"/>
        <pt x="324" y="424" on="0"/>
        <pt x="271" y="424" on="1"/>
        <pt x="230" y="424" on="0"/>
        <pt x="177" y="363" on="0"/>
        <pt x="159" y="290" on="0"/>
        <pt x="159" y="250" on="1"/>
        <pt x="159" y="184" on="0"/>
        <pt x="215" y="77" on="0"/>
        <pt x="275" y="77" on="1"/>
        <pt x="302" y="77" on="0"/>
        <pt x="355" y="106" on="0"/>
      </contour>
    </TTGlyph>
    <TTGlyph name="dagger" xMin="51" yMin="-138" xMax="482" yMax="740">
      <contour>
        <pt x="482" y="481" on="1"/>
        <pt x="418" y="430" on="1"/>
        <pt x="299" y="452" on="1"/>
        <pt x="325" y="309" on="1"/>
        <pt x="291" y="-138" on="1"/>
        <pt x="245" y="-138" on="1"/>
        <pt x="208" y="309" on="1"/>
        <pt x="233" y="452" on="1"/>
        <pt x="117" y="430" on="1"/>
        <pt x="51" y="485" on="1"/>
        <pt x="117" y="539" on="1"/>
        <pt x="233" y="514" on="1"/>
        <pt x="207" y="658" on="1"/>
        <pt x="264" y="740" on="1"/>
        <pt x="326" y="658" on="1"/>
        <pt x="299" y="514" on="1"/>
        <pt x="418" y="539" on="1"/>
      </contour>
    </TTGlyph>
    <TTGlyph name="daggerdbl" xMin="46" yMin="-139" xMax="477" yMax="740">
      <contour>
        <pt x="477" y="112" on="1"/>
        <pt x="410" y="58" on="1"/>
        <pt x="298" y="83" on="1"/>
        <pt x="321" y="-61" on="1"/>
        <pt x="265" y="-139" on="1"/>
        <pt x="202" y="-61" on="1"/>
        <pt x="228" y="83" on="1"/>
        <pt x="112" y="58" on="1"/>
        <pt x="46" y="117" on="1"/>
        <pt x="112" y="165" on="1"/>
        <pt x="229" y="145" on="1"/>
        <pt x="203" y="309" on="1"/>
        <pt x="228" y="452" on="1"/>
        <pt x="112" y="430" on="1"/>
        <pt x="46" y="485" on="1"/>
        <pt x="112" y="539" on="1"/>
        <pt x="228" y="514" on="1"/>
        <pt x="202" y="658" on="1"/>
        <pt x="259" y="740" on="1"/>
        <pt x="321" y="658" on="1"/>
        <pt x="294" y="514" on="1"/>
        <pt x="413" y="539" on="1"/>
        <pt x="477" y="481" on="1"/>
        <pt x="413" y="430" on="1"/>
        <pt x="294" y="452" on="1"/>
        <pt x="321" y="309" on="1"/>
        <pt x="297" y="145" on="1"/>
        <pt x="410" y="165" on="1"/>
      </contour>
    </TTGlyph>
    <TTGlyph name="degree" xMin="49" yMin="448" xMax="340" yMax="738">
      <contour>
        <pt x="340" y="593" on="1"/>
        <pt x="340" y="532" on="0"/>
        <pt x="255" y="448" on="0"/>
        <pt x="194" y="448" on="1"/>
        <pt x="134" y="448" on="0"/>
        <pt x="49" y="533" on="0"/>
        <pt x="49" y="653" on="0"/>
        <pt x="134" y="738" on="0"/>
        <pt x="194" y="738" on="1"/>
        <pt x="254" y="738" on="0"/>
        <pt x="340" y="653" on="0"/>
      </contour>
      <contour>
        <pt x="250" y="536" on="1"/>
        <pt x="273" y="560" on="0"/>
        <pt x="273" y="626" on="0"/>
        <pt x="227" y="674" on="0"/>
        <pt x="194" y="674" on="1"/>
        <pt x="161" y="674" on="0"/>
        <pt x="116" y="626" on="0"/>
        <pt x="116" y="560" on="0"/>
        <pt x="161" y="512" on="0"/>
        <pt x="194" y="512" on="1"/>
        <pt x="227" y="512" on="0"/>
      </contour>
    </TTGlyph>
    <TTGlyph name="dieresis" xMin="-6" yMin="562" xMax="277" yMax="684">
      <contour>
        <pt x="219" y="566" on="1"/>
        <pt x="196" y="566" on="0"/>
        <pt x="162" y="600" on="0"/>
        <pt x="162" y="646" on="0"/>
        <pt x="196" y="680" on="0"/>
        <pt x="219" y="680" on="1"/>
        <pt x="243" y="680" on="0"/>
        <pt x="277" y="647" on="0"/>
        <pt x="277" y="599" on="0"/>
        <pt x="243" y="566" on="0"/>
      </contour>
      <contour>
        <pt x="98" y="666" on="1"/>
        <pt x="116" y="648" on="0"/>
        <pt x="116" y="598" on="0"/>
        <pt x="81" y="562" on="0"/>
        <pt x="55" y="562" on="1"/>
        <pt x="29" y="562" on="0"/>
        <pt x="-6" y="598" on="0"/>
        <pt x="-6" y="648" on="0"/>
        <pt x="29" y="684" on="0"/>
        <pt x="55" y="684" on="1"/>
        <pt x="81" y="684" on="0"/>
      </contour>
    </TTGlyph>
    <TTGlyph name="divide" xMin="68" yMin="-11" xMax="564" yMax="509">
      <contour>
        <pt x="564" y="204" on="1"/>
        <pt x="68" y="204" on="1"/>
        <pt x="68" y="292" on="1"/>
        <pt x="564" y="292" on="1"/>
      </contour>
      <contour>
        <pt x="370" y="121" on="1"/>
        <pt x="393" y="98" on="0"/>
        <pt x="393" y="34" on="0"/>
        <pt x="348" y="-11" on="0"/>
        <pt x="316" y="-11" on="1"/>
        <pt x="284" y="-11" on="0"/>
        <pt x="239" y="34" on="0"/>
        <pt x="239" y="98" on="0"/>
        <pt x="284" y="144" on="0"/>
        <pt x="316" y="144" on="1"/>
        <pt x="348" y="144" on="0"/>
      </contour>
      <contour>
        <pt x="369" y="486" on="1"/>
        <pt x="392" y="463" on="0"/>
        <pt x="392" y="399" on="0"/>
        <pt x="347" y="354" on="0"/>
        <pt x="315" y="354" on="1"/>
        <pt x="283" y="354" on="0"/>
        <pt x="238" y="399" on="0"/>
        <pt x="238" y="463" on="0"/>
        <pt x="283" y="509" on="0"/>
        <pt x="315" y="509" on="1"/>
        <pt x="347" y="509" on="0"/>
      </contour>
    </TTGlyph>
    <TTGlyph name="dollar" xMin="32" yMin="-125" xMax="393" yMax="624">
      <contour>
        <pt x="393" y="155" on="1"/>
        <pt x="393" y="84" on="0"/>
        <pt x="293" y="-6" on="0"/>
        <pt x="220" y="-13" on="1"/>
        <pt x="210" y="-125" on="1"/>
        <pt x="137" y="-125" on="1"/>
        <pt x="169" y="-12" on="1"/>
        <pt x="93" y="-5" on="0"/>
        <pt x="32" y="29" on="1"/>
        <pt x="75" y="111" on="1"/>
        <pt x="143" y="71" on="0"/>
        <pt x="188" y="71" on="1"/>
        <pt x="220" y="71" on="0"/>
        <pt x="263" y="104" on="0"/>
        <pt x="263" y="135" on="1"/>
        <pt x="263" y="162" on="0"/>
        <pt x="218" y="197" on="0"/>
        <pt x="154" y="220" on="0"/>
        <pt x="89" y="248" on="0"/>
        <pt x="44" y="309" on="0"/>
        <pt x="44" y="354" on="1"/>
        <pt x="44" y="425" on="0"/>
        <pt x="148" y="506" on="0"/>
        <pt x="222" y="510" on="1"/>
        <pt x="232" y="624" on="1"/>
        <pt x="304" y="624" on="1"/>
        <pt x="273" y="508" on="1"/>
        <pt x="340" y="500" on="0"/>
        <pt x="383" y="479" on="1"/>
        <pt x="341" y="395" on="1"/>
        <pt x="297" y="429" on="0"/>
        <pt x="242" y="429" on="1"/>
        <pt x="214" y="429" on="0"/>
        <pt x="174" y="402" on="0"/>
        <pt x="174" y="376" on="1"/>
        <pt x="174" y="351" on="0"/>
        <pt x="219" y="319" on="0"/>
        <pt x="284" y="296" on="0"/>
        <pt x="348" y="266" on="0"/>
        <pt x="393" y="203" on="0"/>
      </contour>
    </TTGlyph>
    <TTGlyph name="dotaccent" xMin="83" yMin="564" xMax="205" yMax="686">
      <contour>
        <pt x="187" y="668" on="1"/>
        <pt x="205" y="650" on="0"/>
        <pt x="205" y="600" on="0"/>
        <pt x="170" y="564" on="0"/>
        <pt x="144" y="564" on="1"/>
        <pt x="118" y="564" on="0"/>
        <pt x="83" y="600" on="0"/>
        <pt x="83" y="650" on="0"/>
        <pt x="118" y="686" on="0"/>
        <pt x="144" y="686" on="1"/>
        <pt x="170" y="686" on="0"/>
      </contour>
    </TTGlyph>
    <TTGlyph name="dotlessi" xMin="54" yMin="0" xMax="185" yMax="497">
      <contour>
        <pt x="185" y="0" on="1"/>
        <pt x="65" y="0" on="1"/>
        <pt x="65" y="443" on="1"/>
        <pt x="65" y="444" on="0"/>
        <pt x="60" y="468" on="0"/>
        <pt x="54" y="496" on="0"/>
        <pt x="54" y="497" on="1"/>
        <pt x="185" y="497" on="1"/>
      </contour>
    </TTGlyph>
    <TTGlyph name="e" xMin="26" yMin="-11" xMax="466" yMax="511">
      <contour>
        <pt x="466" y="294" on="1"/>
        <pt x="466" y="234" on="0"/>
        <pt x="415" y="234" on="1"/>
        <pt x="153" y="234" on="1"/>
        <pt x="153" y="170" on="0"/>
        <pt x="221" y="69" on="0"/>
        <pt x="282" y="69" on="1"/>
        <pt x="313" y="69" on="0"/>
        <pt x="380" y="99" on="0"/>
        <pt x="403" y="122" on="1"/>
        <pt x="454" y="42" on="1"/>
        <pt x="423" y="16" on="0"/>
        <pt x="322" y="-11" on="0"/>
        <pt x="276" y="-11" on="1"/>
        <pt x="160" y="-11" on="0"/>
        <pt x="26" y="128" on="0"/>
        <pt x="26" y="245" on="1"/>
        <pt x="26" y="356" on="0"/>
        <pt x="151" y="511" on="0"/>
        <pt x="259" y="511" on="1"/>
        <pt x="357" y="511" on="0"/>
        <pt x="466" y="393" on="0"/>
      </contour>
      <contour>
        <pt x="341" y="335" on="1"/>
        <pt x="341" y="376" on="0"/>
        <pt x="299" y="429" on="0"/>
        <pt x="260" y="429" on="1"/>
        <pt x="220" y="429" on="0"/>
        <pt x="158" y="355" on="0"/>
        <pt x="156" y="313" on="1"/>
        <pt x="324" y="313" on="1"/>
        <pt x="341" y="313" on="0"/>
      </contour>
    </TTGlyph>
    <TTGlyph name="eacute" xMin="26" yMin="-11" xMax="473" yMax="755">
      <component glyphName="acute" x="186" y="0" flags="0x4"/>
      <component glyphName="e" x="0" y="0" flags="0x4"/>
    </TTGlyph>
    <TTGlyph name="ecircumflex" xMin="26" yMin="-11" xMax="466" yMax="733">
      <component glyphName="circumflex" x="134" y="0" flags="0x4"/>
      <component glyphName="e" x="0" y="0" flags="0x4"/>
    </TTGlyph>
    <TTGlyph name="edieresis" xMin="26" yMin="-11" xMax="466" yMax="690">
      <component glyphName="dieresis" x="126" y="6" flags="0x4"/>
      <component glyphName="e" x="0" y="0" flags="0x4"/>
    </TTGlyph>
    <TTGlyph name="egrave" xMin="26" yMin="-11" xMax="466" yMax="755">
      <component glyphName="e" x="0" y="0" flags="0x204"/>
      <component glyphName="grave" x="62" y="0" flags="0x4"/>
    </TTGlyph>
    <TTGlyph name="eight" xMin="28" yMin="-12" xMax="464" yMax="732">
      <contour>
        <pt x="464" y="170" on="1"/>
        <pt x="464" y="82" on="0"/>
        <pt x="334" y="-12" on="0"/>
        <pt x="243" y="-12" on="1"/>
        <pt x="155" y="-12" on="0"/>
        <pt x="28" y="85" on="0"/>
        <pt x="28" y="170" on="1"/>
        <pt x="28" y="192" on="0"/>
        <pt x="33" y="228" on="0"/>
        <pt x="53" y="264" on="0"/>
        <pt x="62" y="284" on="0"/>
        <pt x="99" y="320" on="0"/>
        <pt x="108" y="329" on="0"/>
        <pt x="158" y="371" on="0"/>
        <pt x="161" y="374" on="1"/>
        <pt x="149" y="385" on="1"/>
        <pt x="121" y="411" on="0"/>
        <pt x="94" y="438" on="0"/>
        <pt x="62" y="483" on="0"/>
        <pt x="50" y="533" on="0"/>
        <pt x="50" y="565" on="1"/>
        <pt x="50" y="642" on="0"/>
        <pt x="170" y="732" on="0"/>
        <pt x="250" y="732" on="1"/>
        <pt x="332" y="732" on="0"/>
        <pt x="440" y="645" on="0"/>
        <pt x="440" y="565" on="1"/>
        <pt x="440" y="543" on="0"/>
        <pt x="430" y="505" on="0"/>
        <pt x="420" y="480" on="0"/>
        <pt x="392" y="446" on="0"/>
        <pt x="378" y="432" on="0"/>
        <pt x="337" y="394" on="0"/>
        <pt x="330" y="388" on="1"/>
        <pt x="346" y="373" on="1"/>
        <pt x="377" y="344" on="0"/>
        <pt x="407" y="313" on="0"/>
        <pt x="447" y="260" on="0"/>
        <pt x="464" y="204" on="0"/>
      </contour>
      <contour>
        <pt x="328" y="564" on="1"/>
        <pt x="328" y="601" on="0"/>
        <pt x="292" y="653" on="0"/>
        <pt x="256" y="653" on="1"/>
        <pt x="222" y="653" on="0"/>
        <pt x="185" y="603" on="0"/>
        <pt x="185" y="567" on="1"/>
        <pt x="185" y="555" on="0"/>
        <pt x="193" y="531" on="0"/>
        <pt x="199" y="516" on="0"/>
        <pt x="221" y="491" on="0"/>
        <pt x="227" y="485" on="0"/>
        <pt x="257" y="457" on="0"/>
        <pt x="258" y="456" on="1"/>
        <pt x="262" y="460" on="1"/>
        <pt x="285" y="479" on="0"/>
        <pt x="306" y="500" on="0"/>
        <pt x="328" y="541" on="0"/>
      </contour>
      <contour>
        <pt x="329" y="171" on="1"/>
        <pt x="329" y="187" on="0"/>
        <pt x="318" y="217" on="0"/>
        <pt x="291" y="250" on="0"/>
        <pt x="275" y="267" on="0"/>
        <pt x="236" y="302" on="0"/>
        <pt x="232" y="306" on="1"/>
        <pt x="228" y="302" on="0"/>
        <pt x="194" y="274" on="0"/>
        <pt x="182" y="264" on="0"/>
        <pt x="158" y="237" on="0"/>
        <pt x="148" y="218" on="0"/>
        <pt x="139" y="188" on="0"/>
        <pt x="139" y="173" on="1"/>
        <pt x="139" y="128" on="0"/>
        <pt x="192" y="69" on="0"/>
        <pt x="237" y="69" on="1"/>
        <pt x="281" y="69" on="0"/>
        <pt x="329" y="126" on="0"/>
      </contour>
    </TTGlyph>
    <TTGlyph name="ellipsis" xMin="90" yMin="-12" xMax="739" yMax="143">
      <component glyphName="period" x="61" y="0" flags="0x4"/>
      <component glyphName="period" x="308" y="0" flags="0x4"/>
      <component glyphName="period" x="556" y="0" flags="0x4"/>
    </TTGlyph>
    <TTGlyph name="emdash" xMin="13" yMin="211" xMax="839" yMax="305">
      <contour>
        <pt x="839" y="211" on="1"/>
        <pt x="13" y="211" on="1"/>
        <pt x="13" y="305" on="1"/>
        <pt x="839" y="305" on="1"/>
      </contour>
    </TTGlyph>
    <TTGlyph name="endash" xMin="13" yMin="211" xMax="489" yMax="305">
      <contour>
        <pt x="489" y="211" on="1"/>
        <pt x="13" y="211" on="1"/>
        <pt x="13" y="305" on="1"/>
        <pt x="489" y="305" on="1"/>
      </contour>
    </TTGlyph>
    <TTGlyph name="equal" xMin="69" yMin="109" xMax="565" yMax="390">
      <contour>
        <pt x="565" y="109" on="1"/>
        <pt x="69" y="109" on="1"/>
        <pt x="69" y="197" on="1"/>
        <pt x="565" y="197" on="1"/>
      </contour>
      <contour>
        <pt x="565" y="302" on="1"/>
        <pt x="69" y="302" on="1"/>
        <pt x="69" y="390" on="1"/>
        <pt x="565" y="390" on="1"/>
      </contour>
    </TTGlyph>
    <TTGlyph name="eth" xMin="26" yMin="-11" xMax="510" yMax="783">
      <contour>
        <pt x="414" y="723" on="1"/>
        <pt x="323" y="672" on="1"/>
        <pt x="510" y="447" on="0"/>
        <pt x="510" y="249" on="1"/>
        <pt x="510" y="138" on="0"/>
        <pt x="378" y="-11" on="0"/>
        <pt x="268" y="-11" on="1"/>
        <pt x="158" y="-11" on="0"/>
        <pt x="26" y="138" on="0"/>
        <pt x="26" y="249" on="1"/>
        <pt x="26" y="359" on="0"/>
        <pt x="159" y="510" on="0"/>
        <pt x="268" y="510" on="1"/>
        <pt x="280" y="510" on="0"/>
        <pt x="300" y="508" on="1"/>
        <pt x="264" y="572" on="0"/>
        <pt x="228" y="619" on="1"/>
        <pt x="135" y="568" on="1"/>
        <pt x="90" y="626" on="1"/>
        <pt x="182" y="677" on="1"/>
        <pt x="164" y="697" on="0"/>
        <pt x="130" y="731" on="1"/>
        <pt x="218" y="783" on="1"/>
        <pt x="235" y="767" on="0"/>
        <pt x="274" y="728" on="1"/>
        <pt x="374" y="783" on="1"/>
      </contour>
      <contour>
        <pt x="268" y="72" on="1"/>
        <pt x="378" y="72" on="0"/>
        <pt x="378" y="248" on="1"/>
        <pt x="378" y="280" on="0"/>
        <pt x="369" y="336" on="0"/>
        <pt x="348" y="394" on="0"/>
        <pt x="301" y="428" on="0"/>
        <pt x="268" y="428" on="1"/>
        <pt x="226" y="428" on="0"/>
        <pt x="173" y="364" on="0"/>
        <pt x="158" y="290" on="0"/>
        <pt x="158" y="206" on="0"/>
        <pt x="173" y="134" on="0"/>
        <pt x="226" y="72" on="0"/>
      </contour>
    </TTGlyph>
    <TTGlyph name="exclam" xMin="95" yMin="-15" xMax="249" yMax="725">
      <contour>
        <pt x="248" y="690" on="1"/>
        <pt x="219" y="219" on="1"/>
        <pt x="129" y="219" on="1"/>
        <pt x="100" y="693" on="0"/>
        <pt x="100" y="695" on="1"/>
        <pt x="100" y="725" on="0"/>
        <pt x="138" y="725" on="1"/>
        <pt x="209" y="725" on="1"/>
        <pt x="248" y="725" on="0"/>
      </contour>
      <contour>
        <pt x="226" y="117" on="1"/>
        <pt x="249" y="94" on="0"/>
        <pt x="249" y="30" on="0"/>
        <pt x="204" y="-15" on="0"/>
        <pt x="172" y="-15" on="1"/>
        <pt x="140" y="-15" on="0"/>
        <pt x="95" y="30" on="0"/>
        <pt x="95" y="94" on="0"/>
        <pt x="140" y="140" on="0"/>
        <pt x="172" y="140" on="1"/>
        <pt x="204" y="140" on="0"/>
      </contour>
    </TTGlyph>
    <TTGlyph name="exclamdown" xMin="83" yMin="-124" xMax="237" yMax="617">
      <contour>
        <pt x="237" y="-92" on="1"/>
        <pt x="237" y="-124" on="0"/>
        <pt x="199" y="-124" on="1"/>
        <pt x="128" y="-124" on="1"/>
        <pt x="89" y="-124" on="0"/>
        <pt x="89" y="-89" on="1"/>
        <pt x="118" y="382" on="1"/>
        <pt x="207" y="382" on="1"/>
      </contour>
      <contour>
        <pt x="214" y="594" on="1"/>
        <pt x="237" y="571" on="0"/>
        <pt x="237" y="507" on="0"/>
        <pt x="192" y="462" on="0"/>
        <pt x="160" y="462" on="1"/>
        <pt x="128" y="462" on="0"/>
        <pt x="83" y="507" on="0"/>
        <pt x="83" y="571" on="0"/>
        <pt x="128" y="617" on="0"/>
        <pt x="160" y="617" on="1"/>
        <pt x="192" y="617" on="0"/>
      </contour>
    </TTGlyph>
    <TTGlyph name="f" xMin="3" yMin="-1" xMax="408" yMax="776">
      <contour>
        <pt x="408" y="753" on="1"/>
        <pt x="376" y="672" on="1"/>
        <pt x="345" y="694" on="0"/>
        <pt x="314" y="694" on="1"/>
        <pt x="278" y="694" on="0"/>
        <pt x="231" y="661" on="0"/>
        <pt x="211" y="599" on="0"/>
        <pt x="205" y="547" on="0"/>
        <pt x="205" y="511" on="1"/>
        <pt x="205" y="497" on="1"/>
        <pt x="327" y="497" on="1"/>
        <pt x="304" y="417" on="1"/>
        <pt x="205" y="417" on="1"/>
        <pt x="205" y="-1" on="1"/>
        <pt x="85" y="-1" on="1"/>
        <pt x="85" y="417" on="1"/>
        <pt x="3" y="417" on="1"/>
        <pt x="3" y="488" on="1"/>
        <pt x="78" y="488" on="0"/>
        <pt x="87" y="532" on="1"/>
        <pt x="90" y="544" on="0"/>
        <pt x="102" y="610" on="0"/>
        <pt x="109" y="633" on="0"/>
        <pt x="126" y="678" on="0"/>
        <pt x="152" y="711" on="0"/>
        <pt x="172" y="730" on="1"/>
        <pt x="224" y="776" on="0"/>
        <pt x="309" y="776" on="1"/>
        <pt x="371" y="776" on="0"/>
      </contour>
    </TTGlyph>
    <TTGlyph name="fi" xMin="3" yMin="0" xMax="506" yMax="775">
      <contour>
        <pt x="506" y="630" on="1"/>
        <pt x="393" y="600" on="1"/>
        <pt x="388" y="641" on="0"/>
        <pt x="339" y="694" on="0"/>
        <pt x="313" y="694" on="1"/>
        <pt x="251" y="694" on="0"/>
        <pt x="208" y="595" on="0"/>
        <pt x="206" y="497" on="1"/>
        <pt x="503" y="497" on="1"/>
        <pt x="503" y="0" on="1"/>
        <pt x="383" y="0" on="1"/>
        <pt x="383" y="417" on="1"/>
        <pt x="206" y="417" on="1"/>
        <pt x="206" y="0" on="1"/>
        <pt x="85" y="0" on="1"/>
        <pt x="85" y="417" on="1"/>
        <pt x="3" y="417" on="1"/>
        <pt x="3" y="486" on="1"/>
        <pt x="24" y="486" on="0"/>
        <pt x="55" y="497" on="0"/>
        <pt x="73" y="508" on="0"/>
        <pt x="88" y="537" on="0"/>
        <pt x="92" y="551" on="0"/>
        <pt x="101" y="590" on="0"/>
        <pt x="102" y="596" on="1"/>
        <pt x="124" y="683" on="0"/>
        <pt x="224" y="775" on="0"/>
        <pt x="314" y="775" on="1"/>
        <pt x="451" y="775" on="0"/>
      </contour>
    </TTGlyph>
    <TTGlyph name="five" xMin="-28" yMin="-207" xMax="397" yMax="498">
      <contour>
        <pt x="397" y="498" on="1"/>
        <pt x="362" y="377" on="1"/>
        <pt x="174" y="377" on="1"/>
        <pt x="152" y="327" on="1"/>
        <pt x="328" y="229" on="0"/>
        <pt x="328" y="82" on="1"/>
        <pt x="328" y="20" on="0"/>
        <pt x="267" y="-86" on="0"/>
        <pt x="168" y="-156" on="0"/>
        <pt x="54" y="-199" on="0"/>
        <pt x="-6" y="-207" on="1"/>
        <pt x="-28" y="-145" on="1"/>
        <pt x="66" y="-117" on="0"/>
        <pt x="196" y="-8" on="0"/>
        <pt x="196" y="77" on="1"/>
        <pt x="196" y="137" on="0"/>
        <pt x="85" y="244" on="0"/>
        <pt x="18" y="273" on="1"/>
        <pt x="120" y="498" on="1"/>
      </contour>
    </TTGlyph>
    <TTGlyph name="fl" xMin="3" yMin="0" xMax="504" yMax="779">
      <contour>
        <pt x="504" y="0" on="1"/>
        <pt x="382" y="0" on="1"/>
        <pt x="382" y="616" on="1"/>
        <pt x="382" y="647" on="0"/>
        <pt x="342" y="694" on="0"/>
        <pt x="306" y="694" on="1"/>
        <pt x="205" y="694" on="0"/>
        <pt x="205" y="503" on="1"/>
        <pt x="205" y="497" on="1"/>
        <pt x="327" y="497" on="1"/>
        <pt x="304" y="417" on="1"/>
        <pt x="205" y="417" on="1"/>
        <pt x="205" y="0" on="1"/>
        <pt x="85" y="0" on="1"/>
        <pt x="85" y="417" on="1"/>
        <pt x="3" y="417" on="1"/>
        <pt x="3" y="486" on="1"/>
        <pt x="50" y="486" on="0"/>
        <pt x="88" y="537" on="0"/>
        <pt x="102" y="596" on="1"/>
        <pt x="123" y="684" on="0"/>
        <pt x="213" y="774" on="0"/>
        <pt x="308" y="774" on="1"/>
        <pt x="351" y="774" on="0"/>
        <pt x="407" y="745" on="1"/>
        <pt x="504" y="779" on="1"/>
      </contour>
    </TTGlyph>
    <TTGlyph name="florin" xMin="-114" yMin="-194" xMax="426" yMax="743">
      <contour>
        <pt x="426" y="706" on="1"/>
        <pt x="392" y="636" on="1"/>
        <pt x="352" y="661" on="0"/>
        <pt x="316" y="661" on="1"/>
        <pt x="243" y="661" on="0"/>
        <pt x="215" y="497" on="1"/>
        <pt x="359" y="497" on="1"/>
        <pt x="334" y="417" on="1"/>
        <pt x="203" y="417" on="1"/>
        <pt x="167" y="178" on="0"/>
        <pt x="131" y="1" on="1"/>
        <pt x="113" y="-87" on="0"/>
        <pt x="18" y="-194" on="0"/>
        <pt x="-65" y="-194" on="1"/>
        <pt x="-87" y="-194" on="0"/>
        <pt x="-114" y="-189" on="1"/>
        <pt x="-91" y="-111" on="1"/>
        <pt x="-82" y="-111" on="1"/>
        <pt x="-51" y="-111" on="0"/>
        <pt x="-7" y="-73" on="0"/>
        <pt x="-1" y="-39" on="1"/>
        <pt x="81" y="417" on="1"/>
        <pt x="6" y="417" on="1"/>
        <pt x="6" y="487" on="1"/>
        <pt x="87" y="489" on="0"/>
        <pt x="104" y="532" on="1"/>
        <pt x="108" y="541" on="0"/>
        <pt x="138" y="638" on="0"/>
        <pt x="154" y="662" on="1"/>
        <pt x="207" y="743" on="0"/>
        <pt x="320" y="743" on="1"/>
        <pt x="376" y="743" on="0"/>
      </contour>
    </TTGlyph>
    <TTGlyph name="four" xMin="2" yMin="-184" xMax="526" yMax="498">
      <contour>
        <pt x="526" y="99" on="1"/>
        <pt x="498" y="-1" on="1"/>
        <pt x="419" y="-1" on="1"/>
        <pt x="419" y="-184" on="1"/>
        <pt x="294" y="-184" on="1"/>
        <pt x="294" y="-1" on="1"/>
        <pt x="2" y="-1" on="1"/>
        <pt x="2" y="57" on="1"/>
        <pt x="288" y="498" on="1"/>
        <pt x="419" y="498" on="1"/>
        <pt x="419" y="99" on="1"/>
      </contour>
      <contour>
        <pt x="294" y="99" on="1"/>
        <pt x="294" y="329" on="1"/>
        <pt x="145" y="99" on="1"/>
      </contour>
    </TTGlyph>
    <TTGlyph name="fraction" xMin="-112" yMin="0" xMax="251" yMax="732">
      <component glyphName="slash" x="-94" y="0" flags="0x4"/>
    </TTGlyph>
    <TTGlyph name="g" xMin="0" yMin="-230" xMax="503" yMax="512">
      <contour>
        <pt x="248" y="91" on="1"/>
        <pt x="294" y="91" on="1"/>
        <pt x="324" y="91" on="0"/>
        <pt x="366" y="88" on="0"/>
        <pt x="418" y="75" on="0"/>
        <pt x="451" y="52" on="0"/>
        <pt x="473" y="8" on="0"/>
        <pt x="473" y="-23" on="1"/>
        <pt x="473" y="-91" on="0"/>
        <pt x="386" y="-189" on="0"/>
        <pt x="266" y="-230" on="0"/>
        <pt x="200" y="-230" on="1"/>
        <pt x="166" y="-230" on="0"/>
        <pt x="103" y="-219" on="0"/>
        <pt x="39" y="-194" on="0"/>
        <pt x="0" y="-142" on="0"/>
        <pt x="0" y="-105" on="1"/>
        <pt x="0" y="-63" on="0"/>
        <pt x="51" y="6" on="0"/>
        <pt x="88" y="23" on="1"/>
        <pt x="88" y="27" on="1"/>
        <pt x="70" y="32" on="0"/>
        <pt x="42" y="72" on="0"/>
        <pt x="42" y="95" on="1"/>
        <pt x="42" y="103" on="0"/>
        <pt x="63" y="124" on="0"/>
        <pt x="102" y="166" on="0"/>
        <pt x="118" y="193" on="1"/>
        <pt x="29" y="243" on="0"/>
        <pt x="29" y="340" on="1"/>
        <pt x="29" y="416" on="0"/>
        <pt x="140" y="512" on="0"/>
        <pt x="218" y="512" on="1"/>
        <pt x="240" y="512" on="0"/>
        <pt x="308" y="497" on="0"/>
        <pt x="325" y="497" on="1"/>
        <pt x="375" y="497" on="0"/>
        <pt x="503" y="508" on="1"/>
        <pt x="481" y="425" on="1"/>
        <pt x="396" y="425" on="1"/>
        <pt x="390" y="425" on="0"/>
        <pt x="373" y="430" on="1"/>
        <pt x="405" y="389" on="0"/>
        <pt x="405" y="341" on="1"/>
        <pt x="405" y="264" on="0"/>
        <pt x="292" y="168" on="0"/>
        <pt x="213" y="168" on="1"/>
        <pt x="194" y="168" on="0"/>
        <pt x="166" y="142" on="0"/>
        <pt x="166" y="123" on="1"/>
        <pt x="166" y="91" on="0"/>
      </contour>
      <contour>
        <pt x="262" y="0" on="1"/>
        <pt x="171" y="0" on="1"/>
        <pt x="150" y="-11" on="0"/>
        <pt x="122" y="-58" on="0"/>
        <pt x="122" y="-82" on="1"/>
        <pt x="122" y="-114" on="0"/>
        <pt x="180" y="-144" on="0"/>
        <pt x="215" y="-144" on="1"/>
        <pt x="241" y="-144" on="0"/>
        <pt x="287" y="-136" on="0"/>
        <pt x="332" y="-117" on="0"/>
        <pt x="359" y="-78" on="0"/>
        <pt x="359" y="-50" on="1"/>
        <pt x="359" y="0" on="0"/>
      </contour>
      <contour>
        <pt x="171" y="266" on="1"/>
        <pt x="188" y="238" on="0"/>
        <pt x="217" y="238" on="1"/>
        <pt x="246" y="238" on="0"/>
        <pt x="281" y="294" on="0"/>
        <pt x="281" y="380" on="0"/>
        <pt x="246" y="437" on="0"/>
        <pt x="217" y="437" on="1"/>
        <pt x="188" y="437" on="0"/>
        <pt x="154" y="380" on="0"/>
        <pt x="154" y="294" on="0"/>
      </contour>
    </TTGlyph>
    <TTGlyph name="germandbls" xMin="0" yMin="-11" xMax="572" yMax="745">
      <contour>
        <pt x="572" y="189" on="1"/>
        <pt x="572" y="98" on="0"/>
        <pt x="448" y="-11" on="0"/>
        <pt x="355" y="-11" on="1"/>
        <pt x="290" y="-11" on="0"/>
        <pt x="225" y="19" on="1"/>
        <pt x="264" y="96" on="1"/>
        <pt x="311" y="79" on="0"/>
        <pt x="343" y="79" on="1"/>
        <pt x="379" y="79" on="0"/>
        <pt x="438" y="134" on="0"/>
        <pt x="438" y="170" on="1"/>
        <pt x="438" y="207" on="0"/>
        <pt x="415" y="253" on="0"/>
        <pt x="385" y="270" on="1"/>
        <pt x="376" y="275" on="0"/>
        <pt x="313" y="303" on="0"/>
        <pt x="273" y="325" on="0"/>
        <pt x="237" y="363" on="0"/>
        <pt x="237" y="384" on="1"/>
        <pt x="237" y="412" on="0"/>
        <pt x="266" y="453" on="0"/>
        <pt x="307" y="478" on="0"/>
        <pt x="348" y="505" on="0"/>
        <pt x="377" y="549" on="0"/>
        <pt x="377" y="580" on="1"/>
        <pt x="377" y="607" on="0"/>
        <pt x="334" y="648" on="0"/>
        <pt x="307" y="648" on="1"/>
        <pt x="198" y="648" on="0"/>
        <pt x="198" y="465" on="1"/>
        <pt x="198" y="0" on="1"/>
        <pt x="75" y="0" on="1"/>
        <pt x="75" y="416" on="1"/>
        <pt x="0" y="416" on="1"/>
        <pt x="0" y="502" on="1"/>
        <pt x="73" y="502" on="0"/>
        <pt x="82" y="539" on="1"/>
        <pt x="105" y="637" on="0"/>
        <pt x="210" y="745" on="0"/>
        <pt x="306" y="745" on="1"/>
        <pt x="393" y="745" on="0"/>
        <pt x="511" y="659" on="0"/>
        <pt x="511" y="575" on="1"/>
        <pt x="511" y="530" on="0"/>
        <pt x="468" y="469" on="0"/>
        <pt x="418" y="446" on="0"/>
        <pt x="375" y="420" on="0"/>
        <pt x="375" y="406" on="1"/>
        <pt x="375" y="393" on="0"/>
        <pt x="437" y="364" on="0"/>
        <pt x="510" y="334" on="0"/>
        <pt x="572" y="251" on="0"/>
      </contour>
    </TTGlyph>
    <TTGlyph name="grave" xMin="4" yMin="590" xMax="258" yMax="755">
      <contour>
        <pt x="258" y="590" on="1"/>
        <pt x="155" y="590" on="1"/>
        <pt x="4" y="755" on="1"/>
        <pt x="149" y="755" on="1"/>
      </contour>
    </TTGlyph>
    <TTGlyph name="greater" xMin="66" yMin="-12" xMax="564" yMax="509">
      <contour>
        <pt x="564" y="223" on="1"/>
        <pt x="66" y="-12" on="1"/>
        <pt x="66" y="76" on="1"/>
        <pt x="434" y="249" on="1"/>
        <pt x="66" y="419" on="1"/>
        <pt x="66" y="509" on="1"/>
        <pt x="564" y="275" on="1"/>
      </contour>
    </TTGlyph>
    <TTGlyph name="greaterequal" xMin="66" yMin="1" xMax="565" yMax="511">
      <contour>
        <pt x="565" y="283" on="1"/>
        <pt x="66" y="106" on="1"/>
        <pt x="66" y="198" on="1"/>
        <pt x="326" y="290" on="1"/>
        <pt x="378" y="308" on="0"/>
        <pt x="431" y="309" on="1"/>
        <pt x="369" y="314" on="0"/>
        <pt x="324" y="330" on="1"/>
        <pt x="66" y="421" on="1"/>
        <pt x="66" y="511" on="1"/>
        <pt x="565" y="335" on="1"/>
      </contour>
      <contour>
        <pt x="563" y="1" on="1"/>
        <pt x="67" y="1" on="1"/>
        <pt x="67" y="89" on="1"/>
        <pt x="563" y="89" on="1"/>
      </contour>
    </TTGlyph>
    <TTGlyph name="guillemotleft" xMin="36" yMin="162" xMax="437" yMax="504">
      <component glyphName="guilsinglleft" x="3" y="0" flags="0x4"/>
      <component glyphName="guilsinglleft" x="172" y="0" flags="0x4"/>
    </TTGlyph>
    <TTGlyph name="guillemotright" xMin="38" yMin="162" xMax="437" yMax="504">
      <component glyphName="guilsinglright" x="-11" y="0" flags="0x4"/>
      <component glyphName="guilsinglright" x="157" y="0" flags="0x4"/>
    </TTGlyph>
    <TTGlyph name="guilsinglleft" xMin="33" yMin="162" xMax="265" yMax="504">
      <contour>
        <pt x="265" y="173" on="1"/>
        <pt x="189" y="162" on="1"/>
        <pt x="33" y="332" on="1"/>
        <pt x="185" y="504" on="1"/>
        <pt x="262" y="490" on="1"/>
        <pt x="143" y="332" on="1"/>
      </contour>
    </TTGlyph>
    <TTGlyph name="guilsinglright" xMin="49" yMin="162" xMax="280" yMax="504">
      <contour>
        <pt x="280" y="332" on="1"/>
        <pt x="124" y="162" on="1"/>
        <pt x="49" y="173" on="1"/>
        <pt x="171" y="332" on="1"/>
        <pt x="51" y="490" on="1"/>
        <pt x="128" y="504" on="1"/>
      </contour>
    </TTGlyph>
    <TTGlyph name="h" xMin="58" yMin="0" xMax="481" yMax="769">
      <contour>
        <pt x="481" y="0" on="1"/>
        <pt x="360" y="0" on="1"/>
        <pt x="360" y="324" on="1"/>
        <pt x="360" y="352" on="0"/>
        <pt x="354" y="387" on="0"/>
        <pt x="324" y="416" on="0"/>
        <pt x="297" y="416" on="1"/>
        <pt x="275" y="416" on="0"/>
        <pt x="206" y="379" on="0"/>
        <pt x="189" y="361" on="1"/>
        <pt x="189" y="0" on="1"/>
        <pt x="70" y="0" on="1"/>
        <pt x="70" y="715" on="1"/>
        <pt x="58" y="769" on="1"/>
        <pt x="189" y="769" on="1"/>
        <pt x="189" y="450" on="1"/>
        <pt x="263" y="511" on="0"/>
        <pt x="333" y="511" on="1"/>
        <pt x="414" y="511" on="0"/>
        <pt x="481" y="421" on="0"/>
        <pt x="481" y="336" on="1"/>
      </contour>
    </TTGlyph>
    <TTGlyph name="hungarumlaut" xMin="10" yMin="590" xMax="371" yMax="732">
      <contour>
        <pt x="371" y="732" on="1"/>
        <pt x="260" y="590" on="1"/>
        <pt x="167" y="590" on="1"/>
        <pt x="236" y="732" on="1"/>
      </contour>
      <contour>
        <pt x="214" y="732" on="1"/>
        <pt x="103" y="590" on="1"/>
        <pt x="10" y="590" on="1"/>
        <pt x="79" y="732" on="1"/>
      </contour>
    </TTGlyph>
    <TTGlyph name="hyphen" xMin="49" yMin="210" xMax="270" yMax="305">
      <contour>
        <pt x="270" y="210" on="1"/>
        <pt x="49" y="210" on="1"/>
        <pt x="49" y="305" on="1"/>
        <pt x="270" y="305" on="1"/>
      </contour>
    </TTGlyph>
    <TTGlyph name="i" xMin="48" yMin="0" xMax="202" yMax="756">
      <contour>
        <pt x="185" y="0" on="1"/>
        <pt x="65" y="0" on="1"/>
        <pt x="65" y="443" on="1"/>
        <pt x="65" y="444" on="0"/>
        <pt x="60" y="468" on="0"/>
        <pt x="54" y="496" on="0"/>
        <pt x="54" y="497" on="1"/>
        <pt x="185" y="497" on="1"/>
      </contour>
      <contour>
        <pt x="179" y="733" on="1"/>
        <pt x="202" y="710" on="0"/>
        <pt x="202" y="646" on="0"/>
        <pt x="157" y="601" on="0"/>
        <pt x="125" y="601" on="1"/>
        <pt x="93" y="601" on="0"/>
        <pt x="48" y="646" on="0"/>
        <pt x="48" y="710" on="0"/>
        <pt x="93" y="756" on="0"/>
        <pt x="125" y="756" on="1"/>
        <pt x="157" y="756" on="0"/>
      </contour>
    </TTGlyph>
    <TTGlyph name="iacute" xMin="54" yMin="0" xMax="309" yMax="755">
      <component glyphName="dotlessi" x="0" y="0" flags="0x204"/>
      <component glyphName="acute" x="22" y="0" flags="0x4"/>
    </TTGlyph>
    <TTGlyph name="icircumflex" xMin="-22" yMin="0" xMax="271" yMax="733">
      <component glyphName="circumflex" x="-14" y="0" flags="0x4"/>
      <component glyphName="dotlessi" x="0" y="0" flags="0x4"/>
    </TTGlyph>
    <TTGlyph name="idieresis" xMin="-20" yMin="0" xMax="263" yMax="691">
      <component glyphName="dotlessi" x="0" y="0" flags="0x204"/>
      <component glyphName="dieresis" x="-14" y="7" flags="0x4"/>
    </TTGlyph>
    <TTGlyph name="igrave" xMin="-68" yMin="0" xMax="186" yMax="755">
      <component glyphName="dotlessi" x="1" y="0" flags="0x204"/>
      <component glyphName="grave" x="-72" y="0" flags="0x4"/>
    </TTGlyph>
    <TTGlyph name="infinity" xMin="70" yMin="74" xMax="742" yMax="424">
      <contour>
        <pt x="406" y="181" on="1"/>
        <pt x="364" y="132" on="0"/>
        <pt x="283" y="74" on="0"/>
        <pt x="235" y="74" on="1"/>
        <pt x="159" y="74" on="0"/>
        <pt x="70" y="172" on="0"/>
        <pt x="70" y="326" on="0"/>
        <pt x="159" y="424" on="0"/>
        <pt x="235" y="424" on="1"/>
        <pt x="283" y="424" on="0"/>
        <pt x="364" y="366" on="0"/>
        <pt x="406" y="317" on="1"/>
        <pt x="448" y="366" on="0"/>
        <pt x="529" y="424" on="0"/>
        <pt x="577" y="424" on="1"/>
        <pt x="653" y="424" on="0"/>
        <pt x="742" y="326" on="0"/>
        <pt x="742" y="172" on="0"/>
        <pt x="653" y="74" on="0"/>
        <pt x="577" y="74" on="1"/>
        <pt x="529" y="74" on="0"/>
        <pt x="448" y="132" on="0"/>
      </contour>
      <contour>
        <pt x="466" y="249" on="1"/>
        <pt x="527" y="184" on="0"/>
        <pt x="578" y="184" on="1"/>
        <pt x="609" y="184" on="0"/>
        <pt x="643" y="219" on="0"/>
        <pt x="643" y="279" on="0"/>
        <pt x="609" y="314" on="0"/>
        <pt x="578" y="314" on="1"/>
        <pt x="527" y="314" on="0"/>
      </contour>
      <contour>
        <pt x="346" y="249" on="1"/>
        <pt x="285" y="314" on="0"/>
        <pt x="234" y="314" on="1"/>
        <pt x="203" y="314" on="0"/>
        <pt x="169" y="279" on="0"/>
        <pt x="169" y="219" on="0"/>
        <pt x="203" y="184" on="0"/>
        <pt x="234" y="184" on="1"/>
        <pt x="285" y="184" on="0"/>
      </contour>
    </TTGlyph>
    <TTGlyph name="integral" xMin="-23" yMin="-227" xMax="282" yMax="742">
      <contour>
        <pt x="-23" y="-227" on="1"/>
        <pt x="-23" y="-147" on="1"/>
        <pt x="25" y="-147" on="0"/>
        <pt x="77" y="-82" on="0"/>
        <pt x="77" y="-34" on="1"/>
        <pt x="77" y="525" on="1"/>
        <pt x="77" y="636" on="0"/>
        <pt x="168" y="742" on="0"/>
        <pt x="282" y="742" on="1"/>
        <pt x="282" y="662" on="1"/>
        <pt x="199" y="662" on="0"/>
        <pt x="199" y="549" on="1"/>
        <pt x="199" y="-10" on="1"/>
        <pt x="199" y="-121" on="0"/>
        <pt x="94" y="-227" on="0"/>
      </contour>
    </TTGlyph>
    <TTGlyph name="j" xMin="-11" yMin="-224" xMax="201" yMax="756">
      <contour>
        <pt x="185" y="66" on="1"/>
        <pt x="185" y="22" on="0"/>
        <pt x="179" y="-47" on="0"/>
        <pt x="158" y="-125" on="0"/>
        <pt x="121" y="-179" on="0"/>
        <pt x="56" y="-219" on="0"/>
        <pt x="11" y="-224" on="1"/>
        <pt x="-11" y="-169" on="1"/>
        <pt x="16" y="-154" on="0"/>
        <pt x="49" y="-109" on="0"/>
        <pt x="62" y="-43" on="0"/>
        <pt x="65" y="1" on="0"/>
        <pt x="65" y="40" on="1"/>
        <pt x="65" y="444" on="1"/>
        <pt x="65" y="445" on="0"/>
        <pt x="59" y="469" on="0"/>
        <pt x="53" y="495" on="0"/>
        <pt x="53" y="497" on="1"/>
        <pt x="185" y="497" on="1"/>
      </contour>
      <contour>
        <pt x="178" y="733" on="1"/>
        <pt x="201" y="710" on="0"/>
        <pt x="201" y="646" on="0"/>
        <pt x="156" y="601" on="0"/>
        <pt x="124" y="601" on="1"/>
        <pt x="92" y="601" on="0"/>
        <pt x="47" y="646" on="0"/>
        <pt x="47" y="710" on="0"/>
        <pt x="92" y="756" on="0"/>
        <pt x="124" y="756" on="1"/>
        <pt x="156" y="756" on="0"/>
      </contour>
    </TTGlyph>
    <TTGlyph name="k" xMin="55" yMin="0" xMax="491" yMax="769">
      <contour>
        <pt x="491" y="0" on="1"/>
        <pt x="356" y="0" on="1"/>
        <pt x="191" y="255" on="1"/>
        <pt x="191" y="0" on="1"/>
        <pt x="68" y="0" on="1"/>
        <pt x="68" y="715" on="1"/>
        <pt x="55" y="769" on="1"/>
        <pt x="191" y="769" on="1"/>
        <pt x="191" y="292" on="1"/>
        <pt x="345" y="497" on="1"/>
        <pt x="462" y="497" on="1"/>
        <pt x="301" y="287" on="1"/>
      </contour>
    </TTGlyph>
    <TTGlyph name="l" xMin="52" yMin="0" xMax="185" yMax="769">
      <contour>
        <pt x="185" y="0" on="1"/>
        <pt x="63" y="0" on="1"/>
        <pt x="63" y="715" on="1"/>
        <pt x="63" y="716" on="0"/>
        <pt x="58" y="740" on="0"/>
        <pt x="52" y="768" on="0"/>
        <pt x="52" y="769" on="1"/>
        <pt x="185" y="769" on="1"/>
      </contour>
    </TTGlyph>
    <TTGlyph name="less" xMin="66" yMin="-12" xMax="564" yMax="509">
      <contour>
        <pt x="564" y="-12" on="1"/>
        <pt x="66" y="223" on="1"/>
        <pt x="66" y="275" on="1"/>
        <pt x="564" y="509" on="1"/>
        <pt x="564" y="419" on="1"/>
        <pt x="196" y="249" on="1"/>
        <pt x="564" y="76" on="1"/>
      </contour>
    </TTGlyph>
    <TTGlyph name="lessequal" xMin="66" yMin="1" xMax="565" yMax="511">
      <contour>
        <pt x="564" y="106" on="1"/>
        <pt x="66" y="283" on="1"/>
        <pt x="66" y="335" on="1"/>
        <pt x="564" y="511" on="1"/>
        <pt x="564" y="421" on="1"/>
        <pt x="306" y="330" on="1"/>
        <pt x="263" y="314" on="0"/>
        <pt x="200" y="309" on="1"/>
        <pt x="253" y="307" on="0"/>
        <pt x="304" y="290" on="1"/>
        <pt x="564" y="198" on="1"/>
      </contour>
      <contour>
        <pt x="565" y="1" on="1"/>
        <pt x="69" y="1" on="1"/>
        <pt x="69" y="89" on="1"/>
        <pt x="565" y="89" on="1"/>
      </contour>
    </TTGlyph>
    <TTGlyph name="logicalnot" xMin="70" yMin="79" xMax="568" yMax="350">
      <contour>
        <pt x="568" y="79" on="1"/>
        <pt x="482" y="79" on="1"/>
        <pt x="482" y="267" on="1"/>
        <pt x="70" y="267" on="1"/>
        <pt x="70" y="350" on="1"/>
        <pt x="568" y="350" on="1"/>
      </contour>
    </TTGlyph>
    <TTGlyph name="lozenge" xMin="25" yMin="-14" xMax="479" yMax="739">
      <contour>
        <pt x="273" y="-14" on="1"/>
        <pt x="231" y="-14" on="1"/>
        <pt x="25" y="362" on="1"/>
        <pt x="231" y="739" on="1"/>
        <pt x="273" y="739" on="1"/>
        <pt x="479" y="362" on="1"/>
      </contour>
      <contour>
        <pt x="254" y="101" on="1"/>
        <pt x="390" y="362" on="1"/>
        <pt x="254" y="624" on="1"/>
        <pt x="250" y="624" on="1"/>
        <pt x="113" y="362" on="1"/>
        <pt x="250" y="101" on="1"/>
      </contour>
    </TTGlyph>
    <TTGlyph name="lslash" xMin="3" yMin="0" xMax="249" yMax="768">
      <contour>
        <pt x="185" y="0" on="1"/>
        <pt x="63" y="0" on="1"/>
        <pt x="63" y="274" on="1"/>
        <pt x="3" y="246" on="1"/>
        <pt x="3" y="343" on="1"/>
        <pt x="63" y="371" on="1"/>
        <pt x="63" y="715" on="1"/>
        <pt x="62" y="719" on="0"/>
        <pt x="57" y="744" on="1"/>
        <pt x="52" y="768" on="1"/>
        <pt x="185" y="768" on="1"/>
        <pt x="185" y="428" on="1"/>
        <pt x="249" y="458" on="1"/>
        <pt x="249" y="360" on="1"/>
        <pt x="185" y="330" on="1"/>
      </contour>
    </TTGlyph>
    <TTGlyph name="m" xMin="44" yMin="0" xMax="766" yMax="510">
      <contour>
        <pt x="766" y="0" on="1"/>
        <pt x="646" y="0" on="1"/>
        <pt x="646" y="332" on="1"/>
        <pt x="646" y="373" on="0"/>
        <pt x="618" y="416" on="0"/>
        <pt x="580" y="416" on="1"/>
        <pt x="557" y="416" on="0"/>
        <pt x="500" y="382" on="0"/>
        <pt x="480" y="362" on="1"/>
        <pt x="480" y="0" on="1"/>
        <pt x="359" y="0" on="1"/>
        <pt x="359" y="335" on="1"/>
        <pt x="359" y="416" on="0"/>
        <pt x="296" y="416" on="1"/>
        <pt x="272" y="416" on="0"/>
        <pt x="215" y="383" on="0"/>
        <pt x="195" y="361" on="1"/>
        <pt x="195" y="0" on="1"/>
        <pt x="75" y="0" on="1"/>
        <pt x="75" y="356" on="1"/>
        <pt x="75" y="456" on="0"/>
        <pt x="44" y="493" on="1"/>
        <pt x="170" y="508" on="1"/>
        <pt x="182" y="482" on="0"/>
        <pt x="187" y="444" on="1"/>
        <pt x="263" y="510" on="0"/>
        <pt x="340" y="510" on="1"/>
        <pt x="433" y="510" on="0"/>
        <pt x="464" y="437" on="1"/>
        <pt x="537" y="510" on="0"/>
        <pt x="626" y="510" on="1"/>
        <pt x="703" y="510" on="0"/>
        <pt x="766" y="420" on="0"/>
        <pt x="766" y="339" on="1"/>
      </contour>
    </TTGlyph>
    <TTGlyph name="macron" xMin="-11" yMin="581" xMax="284" yMax="655">
      <contour>
        <pt x="284" y="581" on="1"/>
        <pt x="-11" y="581" on="1"/>
        <pt x="-11" y="655" on="1"/>
        <pt x="284" y="655" on="1"/>
      </contour>
    </TTGlyph>
    <TTGlyph name="minus" xMin="70" yMin="205" xMax="566" yMax="293">
      <contour>
        <pt x="566" y="205" on="1"/>
        <pt x="70" y="205" on="1"/>
        <pt x="70" y="293" on="1"/>
        <pt x="566" y="293" on="1"/>
      </contour>
    </TTGlyph>
    <TTGlyph name="mu" xMin="56" yMin="-186" xMax="574" yMax="498">
      <contour>
        <pt x="574" y="19" on="1"/>
        <pt x="567" y="17" on="0"/>
        <pt x="511" y="0" on="0"/>
        <pt x="474" y="-8" on="0"/>
        <pt x="457" y="-8" on="1"/>
        <pt x="427" y="-8" on="0"/>
        <pt x="386" y="28" on="0"/>
        <pt x="379" y="58" on="1"/>
        <pt x="321" y="-10" on="0"/>
        <pt x="256" y="-10" on="1"/>
        <pt x="223" y="-10" on="0"/>
        <pt x="191" y="5" on="1"/>
        <pt x="191" y="-186" on="1"/>
        <pt x="67" y="-186" on="1"/>
        <pt x="67" y="445" on="1"/>
        <pt x="67" y="446" on="0"/>
        <pt x="62" y="470" on="0"/>
        <pt x="56" y="497" on="0"/>
        <pt x="56" y="498" on="1"/>
        <pt x="188" y="498" on="1"/>
        <pt x="188" y="187" on="1"/>
        <pt x="188" y="84" on="0"/>
        <pt x="254" y="84" on="1"/>
        <pt x="314" y="84" on="0"/>
        <pt x="359" y="131" on="1"/>
        <pt x="359" y="445" on="1"/>
        <pt x="359" y="446" on="0"/>
        <pt x="353" y="470" on="0"/>
        <pt x="347" y="496" on="0"/>
        <pt x="347" y="498" on="1"/>
        <pt x="480" y="498" on="1"/>
        <pt x="480" y="132" on="1"/>
        <pt x="480" y="80" on="0"/>
        <pt x="505" y="80" on="1"/>
        <pt x="508" y="80" on="0"/>
        <pt x="553" y="92" on="1"/>
      </contour>
    </TTGlyph>
    <TTGlyph name="multiply" xMin="60" yMin="42" xMax="474" yMax="455">
      <contour>
        <pt x="474" y="104" on="1"/>
        <pt x="412" y="42" on="1"/>
        <pt x="267" y="186" on="1"/>
        <pt x="122" y="42" on="1"/>
        <pt x="60" y="104" on="1"/>
        <pt x="205" y="248" on="1"/>
        <pt x="60" y="393" on="1"/>
        <pt x="122" y="455" on="1"/>
        <pt x="267" y="311" on="1"/>
        <pt x="412" y="455" on="1"/>
        <pt x="474" y="393" on="1"/>
        <pt x="329" y="248" on="1"/>
      </contour>
    </TTGlyph>
    <TTGlyph name="n" xMin="43" yMin="0" xMax="486" yMax="511">
      <contour>
        <pt x="486" y="0" on="1"/>
        <pt x="365" y="0" on="1"/>
        <pt x="365" y="324" on="1"/>
        <pt x="365" y="352" on="0"/>
        <pt x="359" y="387" on="0"/>
        <pt x="329" y="416" on="0"/>
        <pt x="302" y="416" on="1"/>
        <pt x="280" y="416" on="0"/>
        <pt x="211" y="379" on="0"/>
        <pt x="194" y="361" on="1"/>
        <pt x="194" y="0" on="1"/>
        <pt x="74" y="0" on="1"/>
        <pt x="74" y="356" on="1"/>
        <pt x="74" y="456" on="0"/>
        <pt x="43" y="493" on="1"/>
        <pt x="169" y="508" on="1"/>
        <pt x="181" y="482" on="0"/>
        <pt x="186" y="444" on="1"/>
        <pt x="260" y="511" on="0"/>
        <pt x="338" y="511" on="1"/>
        <pt x="419" y="511" on="0"/>
        <pt x="486" y="421" on="0"/>
        <pt x="486" y="336" on="1"/>
      </contour>
    </TTGlyph>
    <TTGlyph name="nine" xMin="25" yMin="-214" xMax="512" yMax="511">
      <contour>
        <pt x="512" y="255" on="1"/>
        <pt x="512" y="167" on="0"/>
        <pt x="434" y="7" on="0"/>
        <pt x="304" y="-110" on="0"/>
        <pt x="146" y="-193" on="0"/>
        <pt x="62" y="-214" on="1"/>
        <pt x="35" y="-149" on="1"/>
        <pt x="136" y="-115" on="0"/>
        <pt x="309" y="25" on="0"/>
        <pt x="353" y="115" on="1"/>
        <pt x="295" y="78" on="0"/>
        <pt x="237" y="78" on="1"/>
        <pt x="144" y="78" on="0"/>
        <pt x="25" y="194" on="0"/>
        <pt x="25" y="287" on="1"/>
        <pt x="25" y="383" on="0"/>
        <pt x="166" y="511" on="0"/>
        <pt x="263" y="511" on="1"/>
        <pt x="375" y="511" on="0"/>
        <pt x="512" y="368" on="0"/>
      </contour>
      <contour>
        <pt x="377" y="267" on="1"/>
        <pt x="377" y="329" on="0"/>
        <pt x="321" y="428" on="0"/>
        <pt x="264" y="428" on="1"/>
        <pt x="212" y="428" on="0"/>
        <pt x="159" y="347" on="0"/>
        <pt x="159" y="293" on="1"/>
        <pt x="159" y="240" on="0"/>
        <pt x="213" y="164" on="0"/>
        <pt x="264" y="164" on="1"/>
        <pt x="326" y="164" on="0"/>
        <pt x="374" y="217" on="1"/>
        <pt x="377" y="243" on="0"/>
      </contour>
    </TTGlyph>
    <TTGlyph name="notequal" xMin="67" yMin="0" xMax="565" yMax="497">
      <contour>
        <pt x="565" y="109" on="1"/>
        <pt x="294" y="109" on="1"/>
        <pt x="243" y="0" on="1"/>
        <pt x="148" y="0" on="1"/>
        <pt x="199" y="109" on="1"/>
        <pt x="67" y="109" on="1"/>
        <pt x="67" y="197" on="1"/>
        <pt x="240" y="197" on="1"/>
        <pt x="288" y="302" on="1"/>
        <pt x="67" y="302" on="1"/>
        <pt x="67" y="390" on="1"/>
        <pt x="329" y="390" on="1"/>
        <pt x="379" y="497" on="1"/>
        <pt x="477" y="497" on="1"/>
        <pt x="427" y="390" on="1"/>
        <pt x="565" y="390" on="1"/>
        <pt x="565" y="302" on="1"/>
        <pt x="385" y="302" on="1"/>
        <pt x="336" y="197" on="1"/>
        <pt x="565" y="197" on="1"/>
      </contour>
    </TTGlyph>
    <TTGlyph name="ntilde" xMin="43" yMin="0" xMax="486" yMax="698">
      <component glyphName="tilde" x="114" y="6" flags="0x4"/>
      <component glyphName="n" x="0" y="0" flags="0x4"/>
    </TTGlyph>
    <TTGlyph name="numbersign" xMin="60" yMin="0" xMax="582" yMax="732">
      <contour>
        <pt x="582" y="425" on="1"/>
        <pt x="468" y="425" on="1"/>
        <pt x="450" y="297" on="1"/>
        <pt x="556" y="297" on="1"/>
        <pt x="556" y="208" on="1"/>
        <pt x="438" y="208" on="1"/>
        <pt x="410" y="0" on="1"/>
        <pt x="321" y="0" on="1"/>
        <pt x="349" y="208" on="1"/>
        <pt x="255" y="208" on="1"/>
        <pt x="227" y="0" on="1"/>
        <pt x="138" y="0" on="1"/>
        <pt x="166" y="208" on="1"/>
        <pt x="60" y="208" on="1"/>
        <pt x="60" y="297" on="1"/>
        <pt x="178" y="297" on="1"/>
        <pt x="196" y="425" on="1"/>
        <pt x="86" y="425" on="1"/>
        <pt x="86" y="514" on="1"/>
        <pt x="208" y="514" on="1"/>
        <pt x="237" y="732" on="1"/>
        <pt x="326" y="732" on="1"/>
        <pt x="297" y="514" on="1"/>
        <pt x="391" y="514" on="1"/>
        <pt x="420" y="732" on="1"/>
        <pt x="509" y="732" on="1"/>
        <pt x="480" y="514" on="1"/>
        <pt x="582" y="514" on="1"/>
      </contour>
      <contour>
        <pt x="379" y="425" on="1"/>
        <pt x="285" y="425" on="1"/>
        <pt x="267" y="297" on="1"/>
        <pt x="361" y="297" on="1"/>
      </contour>
    </TTGlyph>
    <TTGlyph name="o" xMin="26" yMin="-12" xMax="510" yMax="510">
      <contour>
        <pt x="26" y="249" on="1"/>
        <pt x="26" y="359" on="0"/>
        <pt x="159" y="510" on="0"/>
        <pt x="268" y="510" on="1"/>
        <pt x="378" y="510" on="0"/>
        <pt x="510" y="360" on="0"/>
        <pt x="510" y="138" on="0"/>
        <pt x="378" y="-12" on="0"/>
        <pt x="268" y="-12" on="1"/>
        <pt x="158" y="-12" on="0"/>
        <pt x="26" y="138" on="0"/>
      </contour>
      <contour>
        <pt x="268" y="428" on="1"/>
        <pt x="226" y="428" on="0"/>
        <pt x="173" y="364" on="0"/>
        <pt x="158" y="290" on="0"/>
        <pt x="158" y="206" on="0"/>
        <pt x="173" y="132" on="0"/>
        <pt x="226" y="68" on="0"/>
        <pt x="268" y="68" on="1"/>
        <pt x="301" y="68" on="0"/>
        <pt x="348" y="102" on="0"/>
        <pt x="369" y="160" on="0"/>
        <pt x="378" y="216" on="0"/>
        <pt x="378" y="280" on="0"/>
        <pt x="369" y="336" on="0"/>
        <pt x="348" y="394" on="0"/>
        <pt x="301" y="428" on="0"/>
      </contour>
    </TTGlyph>
    <TTGlyph name="oacute" xMin="26" yMin="-12" xMax="510" yMax="755">
      <component glyphName="acute" x="187" y="0" flags="0x4"/>
      <component glyphName="o" x="0" y="0" flags="0x4"/>
    </TTGlyph>
    <TTGlyph name="ocircumflex" xMin="26" yMin="-12" xMax="510" yMax="733">
      <component glyphName="circumflex" x="128" y="0" flags="0x4"/>
      <component glyphName="o" x="0" y="0" flags="0x4"/>
    </TTGlyph>
    <TTGlyph name="odieresis" xMin="26" yMin="-12" xMax="510" yMax="690">
      <component glyphName="dieresis" x="127" y="6" flags="0x4"/>
      <component glyphName="o" x="0" y="0" flags="0x4"/>
    </TTGlyph>
    <TTGlyph name="oe" xMin="27" yMin="-11" xMax="819" yMax="511">
      <contour>
        <pt x="756" y="125" on="1"/>
        <pt x="807" y="42" on="1"/>
        <pt x="776" y="16" on="0"/>
        <pt x="675" y="-11" on="0"/>
        <pt x="629" y="-11" on="1"/>
        <pt x="511" y="-11" on="0"/>
        <pt x="443" y="62" on="1"/>
        <pt x="378" y="-11" on="0"/>
        <pt x="269" y="-11" on="1"/>
        <pt x="159" y="-11" on="0"/>
        <pt x="27" y="138" on="0"/>
        <pt x="27" y="249" on="1"/>
        <pt x="27" y="359" on="0"/>
        <pt x="160" y="510" on="0"/>
        <pt x="269" y="510" on="1"/>
        <pt x="378" y="510" on="0"/>
        <pt x="444" y="436" on="1"/>
        <pt x="508" y="511" on="0"/>
        <pt x="612" y="511" on="1"/>
        <pt x="710" y="511" on="0"/>
        <pt x="819" y="393" on="0"/>
        <pt x="819" y="294" on="1"/>
        <pt x="819" y="234" on="0"/>
        <pt x="768" y="234" on="1"/>
        <pt x="506" y="234" on="1"/>
        <pt x="506" y="170" on="0"/>
        <pt x="573" y="72" on="0"/>
        <pt x="635" y="72" on="1"/>
        <pt x="666" y="72" on="0"/>
        <pt x="733" y="102" on="0"/>
      </contour>
      <contour>
        <pt x="269" y="72" on="1"/>
        <pt x="379" y="72" on="0"/>
        <pt x="379" y="248" on="1"/>
        <pt x="379" y="280" on="0"/>
        <pt x="370" y="336" on="0"/>
        <pt x="349" y="394" on="0"/>
        <pt x="302" y="428" on="0"/>
        <pt x="269" y="428" on="1"/>
        <pt x="227" y="428" on="0"/>
        <pt x="174" y="364" on="0"/>
        <pt x="159" y="290" on="0"/>
        <pt x="159" y="206" on="0"/>
        <pt x="174" y="134" on="0"/>
        <pt x="227" y="72" on="0"/>
      </contour>
      <contour>
        <pt x="509" y="313" on="1"/>
        <pt x="677" y="313" on="1"/>
        <pt x="694" y="313" on="0"/>
        <pt x="694" y="335" on="1"/>
        <pt x="694" y="376" on="0"/>
        <pt x="652" y="429" on="0"/>
        <pt x="613" y="429" on="1"/>
        <pt x="573" y="429" on="0"/>
        <pt x="511" y="355" on="0"/>
      </contour>
    </TTGlyph>
    <TTGlyph name="ogonek" xMin="28" yMin="-211" xMax="274" yMax="33">
      <contour>
        <pt x="274" y="-154" on="1"/>
        <pt x="203" y="-211" on="0"/>
        <pt x="132" y="-211" on="1"/>
        <pt x="86" y="-211" on="0"/>
        <pt x="28" y="-163" on="0"/>
        <pt x="28" y="-118" on="1"/>
        <pt x="28" y="-80" on="0"/>
        <pt x="99" y="-12" on="0"/>
        <pt x="185" y="27" on="0"/>
        <pt x="223" y="33" on="1"/>
        <pt x="258" y="14" on="1"/>
        <pt x="254" y="12" on="0"/>
        <pt x="206" y="-14" on="0"/>
        <pt x="180" y="-30" on="0"/>
        <pt x="144" y="-58" on="0"/>
        <pt x="126" y="-87" on="0"/>
        <pt x="126" y="-102" on="1"/>
        <pt x="126" y="-140" on="0"/>
        <pt x="168" y="-140" on="1"/>
        <pt x="193" y="-140" on="0"/>
        <pt x="251" y="-104" on="1"/>
      </contour>
    </TTGlyph>
    <TTGlyph name="ograve" xMin="26" yMin="-12" xMax="510" yMax="755">
      <component glyphName="o" x="0" y="0" flags="0x204"/>
      <component glyphName="grave" x="67" y="0" flags="0x4"/>
    </TTGlyph>
    <TTGlyph name="one" xMin="15" yMin="0" xMax="370" yMax="498">
      <contour>
        <pt x="370" y="0" on="1"/>
        <pt x="36" y="0" on="1"/>
        <pt x="36" y="99" on="1"/>
        <pt x="145" y="99" on="1"/>
        <pt x="145" y="378" on="1"/>
        <pt x="36" y="349" on="1"/>
        <pt x="15" y="413" on="1"/>
        <pt x="188" y="498" on="1"/>
        <pt x="266" y="498" on="1"/>
        <pt x="266" y="99" on="1"/>
        <pt x="370" y="99" on="1"/>
      </contour>
    </TTGlyph>
    <TTGlyph name="onehalf" xMin="45" yMin="-27" xMax="1061" yMax="753">
      <contour>
        <pt x="1033" y="0" on="1"/>
        <pt x="686" y="0" on="1"/>
        <pt x="686" y="52" on="1"/>
        <pt x="695" y="60" on="1"/>
        <pt x="926" y="268" on="0"/>
        <pt x="926" y="352" on="1"/>
        <pt x="926" y="378" on="0"/>
        <pt x="890" y="409" on="0"/>
        <pt x="863" y="409" on="1"/>
        <pt x="807" y="409" on="0"/>
        <pt x="740" y="357" on="1"/>
        <pt x="696" y="426" on="1"/>
        <pt x="788" y="497" on="0"/>
        <pt x="889" y="497" on="1"/>
        <pt x="959" y="497" on="0"/>
        <pt x="1052" y="431" on="0"/>
        <pt x="1052" y="295" on="0"/>
        <pt x="940" y="156" on="0"/>
        <pt x="869" y="106" on="1"/>
        <pt x="1061" y="106" on="1"/>
      </contour>
      <contour>
        <pt x="447" y="-27" on="1"/>
        <pt x="364" y="-27" on="1"/>
        <pt x="675" y="753" on="1"/>
        <pt x="759" y="753" on="1"/>
      </contour>
      <contour>
        <pt x="416" y="246" on="1"/>
        <pt x="62" y="246" on="1"/>
        <pt x="62" y="325" on="1"/>
        <pt x="195" y="325" on="1"/>
        <pt x="195" y="628" on="1"/>
        <pt x="70" y="593" on="1"/>
        <pt x="45" y="663" on="1"/>
        <pt x="137" y="691" on="0"/>
        <pt x="224" y="732" on="1"/>
        <pt x="309" y="732" on="1"/>
        <pt x="309" y="325" on="1"/>
        <pt x="416" y="325" on="1"/>
      </contour>
    </TTGlyph>
    <TTGlyph name="onequarter" xMin="45" yMin="-27" xMax="1021" yMax="753">
      <contour>
        <pt x="447" y="-27" on="1"/>
        <pt x="364" y="-27" on="1"/>
        <pt x="675" y="753" on="1"/>
        <pt x="759" y="753" on="1"/>
      </contour>
      <contour>
        <pt x="949" y="0" on="1"/>
        <pt x="835" y="0" on="1"/>
        <pt x="835" y="101" on="1"/>
        <pt x="610" y="101" on="1"/>
        <pt x="610" y="153" on="1"/>
        <pt x="836" y="486" on="1"/>
        <pt x="949" y="486" on="1"/>
        <pt x="949" y="180" on="1"/>
        <pt x="1021" y="180" on="1"/>
        <pt x="996" y="101" on="1"/>
        <pt x="949" y="101" on="1"/>
      </contour>
      <contour>
        <pt x="835" y="180" on="1"/>
        <pt x="835" y="297" on="1"/>
        <pt x="843" y="386" on="1"/>
        <pt x="827" y="334" on="0"/>
        <pt x="793" y="283" on="1"/>
        <pt x="725" y="180" on="1"/>
      </contour>
      <contour>
        <pt x="416" y="246" on="1"/>
        <pt x="62" y="246" on="1"/>
        <pt x="62" y="325" on="1"/>
        <pt x="195" y="325" on="1"/>
        <pt x="195" y="628" on="1"/>
        <pt x="70" y="593" on="1"/>
        <pt x="45" y="663" on="1"/>
        <pt x="137" y="691" on="0"/>
        <pt x="224" y="732" on="1"/>
        <pt x="309" y="732" on="1"/>
        <pt x="309" y="325" on="1"/>
        <pt x="416" y="325" on="1"/>
      </contour>
    </TTGlyph>
    <TTGlyph name="onesuperior" xMin="45" yMin="438" xMax="416" yMax="924">
      <contour>
        <pt x="416" y="438" on="1"/>
        <pt x="62" y="438" on="1"/>
        <pt x="62" y="517" on="1"/>
        <pt x="195" y="517" on="1"/>
        <pt x="195" y="820" on="1"/>
        <pt x="70" y="785" on="1"/>
        <pt x="45" y="855" on="1"/>
        <pt x="137" y="883" on="0"/>
        <pt x="224" y="924" on="1"/>
        <pt x="309" y="924" on="1"/>
        <pt x="309" y="517" on="1"/>
        <pt x="416" y="517" on="1"/>
      </contour>
    </TTGlyph>
    <TTGlyph name="ordfeminine" xMin="-3" yMin="272" xMax="326" yMax="729">
      <contour>
        <pt x="269" y="272" on="1"/>
        <pt x="30" y="272" on="1"/>
        <pt x="30" y="330" on="1"/>
        <pt x="269" y="330" on="1"/>
      </contour>
      <contour>
        <pt x="312" y="454" on="1"/>
        <pt x="326" y="406" on="1"/>
        <pt x="287" y="388" on="0"/>
        <pt x="255" y="388" on="1"/>
        <pt x="209" y="388" on="0"/>
        <pt x="198" y="432" on="1"/>
        <pt x="153" y="386" on="0"/>
        <pt x="96" y="386" on="1"/>
        <pt x="52" y="386" on="0"/>
        <pt x="-3" y="436" on="0"/>
        <pt x="-3" y="476" on="1"/>
        <pt x="-3" y="510" on="0"/>
        <pt x="31" y="558" on="0"/>
        <pt x="90" y="581" on="0"/>
        <pt x="150" y="591" on="0"/>
        <pt x="185" y="591" on="1"/>
        <pt x="185" y="628" on="1"/>
        <pt x="185" y="674" on="0"/>
        <pt x="132" y="674" on="1"/>
        <pt x="93" y="674" on="0"/>
        <pt x="44" y="636" on="1"/>
        <pt x="11" y="688" on="1"/>
        <pt x="72" y="729" on="0"/>
        <pt x="144" y="729" on="1"/>
        <pt x="262" y="729" on="0"/>
        <pt x="262" y="622" on="1"/>
        <pt x="262" y="480" on="1"/>
        <pt x="262" y="446" on="0"/>
        <pt x="283" y="446" on="1"/>
        <pt x="296" y="446" on="0"/>
      </contour>
      <contour>
        <pt x="185" y="516" on="1"/>
        <pt x="185" y="537" on="1"/>
        <pt x="79" y="537" on="0"/>
        <pt x="79" y="484" on="1"/>
        <pt x="79" y="468" on="0"/>
        <pt x="99" y="447" on="0"/>
        <pt x="117" y="447" on="1"/>
        <pt x="145" y="447" on="0"/>
        <pt x="185" y="488" on="0"/>
      </contour>
    </TTGlyph>
    <TTGlyph name="ordmasculine" xMin="4" yMin="272" xMax="333" yMax="735">
      <contour>
        <pt x="289" y="686" on="1"/>
        <pt x="333" y="637" on="0"/>
        <pt x="333" y="483" on="0"/>
        <pt x="244" y="386" on="0"/>
        <pt x="168" y="386" on="1"/>
        <pt x="92" y="386" on="0"/>
        <pt x="4" y="483" on="0"/>
        <pt x="4" y="637" on="0"/>
        <pt x="93" y="735" on="0"/>
        <pt x="169" y="735" on="1"/>
        <pt x="245" y="735" on="0"/>
      </contour>
      <contour>
        <pt x="287" y="272" on="1"/>
        <pt x="48" y="272" on="1"/>
        <pt x="48" y="330" on="1"/>
        <pt x="287" y="330" on="1"/>
      </contour>
      <contour>
        <pt x="244" y="560" on="1"/>
        <pt x="244" y="608" on="0"/>
        <pt x="210" y="680" on="0"/>
        <pt x="168" y="680" on="1"/>
        <pt x="93" y="680" on="0"/>
        <pt x="93" y="560" on="1"/>
        <pt x="93" y="512" on="0"/>
        <pt x="127" y="441" on="0"/>
        <pt x="169" y="441" on="1"/>
        <pt x="244" y="441" on="0"/>
      </contour>
    </TTGlyph>
    <TTGlyph name="oslash" xMin="26" yMin="-91" xMax="511" yMax="571">
      <contour>
        <pt x="511" y="249" on="1"/>
        <pt x="511" y="137" on="0"/>
        <pt x="379" y="-12" on="0"/>
        <pt x="269" y="-12" on="1"/>
        <pt x="204" y="-12" on="0"/>
        <pt x="154" y="15" on="1"/>
        <pt x="89" y="-91" on="1"/>
        <pt x="44" y="-57" on="1"/>
        <pt x="108" y="47" on="1"/>
        <pt x="26" y="122" on="0"/>
        <pt x="26" y="249" on="1"/>
        <pt x="26" y="360" on="0"/>
        <pt x="159" y="510" on="0"/>
        <pt x="269" y="510" on="1"/>
        <pt x="330" y="510" on="0"/>
        <pt x="380" y="485" on="1"/>
        <pt x="434" y="571" on="1"/>
        <pt x="483" y="545" on="1"/>
        <pt x="426" y="454" on="1"/>
        <pt x="511" y="379" on="0"/>
      </contour>
      <contour>
        <pt x="331" y="405" on="1"/>
        <pt x="307" y="428" on="0"/>
        <pt x="269" y="428" on="1"/>
        <pt x="227" y="428" on="0"/>
        <pt x="174" y="364" on="0"/>
        <pt x="159" y="290" on="0"/>
        <pt x="159" y="248" on="1"/>
        <pt x="159" y="192" on="0"/>
        <pt x="172" y="150" on="1"/>
      </contour>
      <contour>
        <pt x="378" y="248" on="1"/>
        <pt x="378" y="311" on="0"/>
        <pt x="364" y="353" on="1"/>
        <pt x="204" y="95" on="1"/>
        <pt x="231" y="68" on="0"/>
        <pt x="269" y="68" on="1"/>
        <pt x="302" y="68" on="0"/>
        <pt x="348" y="102" on="0"/>
        <pt x="369" y="160" on="0"/>
        <pt x="378" y="216" on="0"/>
      </contour>
    </TTGlyph>
    <TTGlyph name="otilde" xMin="26" yMin="-12" xMax="510" yMax="692">
      <component glyphName="tilde" x="98" y="0" flags="0x4"/>
      <component glyphName="o" x="0" y="0" flags="0x4"/>
    </TTGlyph>
    <TTGlyph name="p" xMin="38" yMin="-217" xMax="530" yMax="511">
      <contour>
        <pt x="530" y="254" on="1"/>
        <pt x="530" y="140" on="0"/>
        <pt x="408" y="-10" on="0"/>
        <pt x="297" y="-10" on="1"/>
        <pt x="227" y="-10" on="0"/>
        <pt x="186" y="22" on="1"/>
        <pt x="188" y="-19" on="0"/>
        <pt x="188" y="-36" on="1"/>
        <pt x="188" y="-162" on="1"/>
        <pt x="200" y="-212" on="0"/>
        <pt x="202" y="-217" on="1"/>
        <pt x="67" y="-217" on="1"/>
        <pt x="67" y="357" on="1"/>
        <pt x="67" y="451" on="0"/>
        <pt x="38" y="493" on="1"/>
        <pt x="163" y="508" on="1"/>
        <pt x="173" y="481" on="0"/>
        <pt x="178" y="448" on="1"/>
        <pt x="199" y="477" on="0"/>
        <pt x="279" y="511" on="0"/>
        <pt x="316" y="511" on="1"/>
        <pt x="417" y="511" on="0"/>
        <pt x="530" y="359" on="0"/>
      </contour>
      <contour>
        <pt x="399" y="249" on="1"/>
        <pt x="399" y="315" on="0"/>
        <pt x="343" y="422" on="0"/>
        <pt x="283" y="422" on="1"/>
        <pt x="256" y="422" on="0"/>
        <pt x="203" y="393" on="0"/>
        <pt x="188" y="370" on="1"/>
        <pt x="188" y="207" on="1"/>
        <pt x="188" y="150" on="0"/>
        <pt x="234" y="75" on="0"/>
        <pt x="287" y="75" on="1"/>
        <pt x="328" y="75" on="0"/>
        <pt x="381" y="136" on="0"/>
        <pt x="399" y="209" on="0"/>
      </contour>
    </TTGlyph>
    <TTGlyph name="paragraph" xMin="40" yMin="-158" xMax="455" yMax="718">
      <contour>
        <pt x="455" y="664" on="1"/>
        <pt x="399" y="664" on="1"/>
        <pt x="399" y="10" on="1"/>
        <pt x="399" y="-36" on="0"/>
        <pt x="334" y="-101" on="0"/>
        <pt x="288" y="-101" on="1"/>
        <pt x="283" y="-101" on="0"/>
        <pt x="271" y="-99" on="1"/>
        <pt x="256" y="-126" on="0"/>
        <pt x="204" y="-158" on="0"/>
        <pt x="173" y="-158" on="1"/>
        <pt x="127" y="-158" on="0"/>
        <pt x="62" y="-93" on="0"/>
        <pt x="62" y="-1" on="0"/>
        <pt x="127" y="64" on="0"/>
        <pt x="173" y="64" on="1"/>
        <pt x="173" y="10" on="1"/>
        <pt x="150" y="10" on="0"/>
        <pt x="116" y="-24" on="0"/>
        <pt x="116" y="-70" on="0"/>
        <pt x="150" y="-104" on="0"/>
        <pt x="173" y="-104" on="1"/>
        <pt x="196" y="-104" on="0"/>
        <pt x="229" y="-70" on="0"/>
        <pt x="229" y="-47" on="1"/>
        <pt x="229" y="332" on="1"/>
        <pt x="150" y="332" on="0"/>
        <pt x="40" y="440" on="0"/>
        <pt x="40" y="520" on="1"/>
        <pt x="40" y="618" on="0"/>
        <pt x="163" y="718" on="0"/>
        <pt x="263" y="718" on="1"/>
        <pt x="455" y="718" on="1"/>
      </contour>
      <contour>
        <pt x="345" y="10" on="1"/>
        <pt x="345" y="664" on="1"/>
        <pt x="284" y="664" on="1"/>
        <pt x="284" y="-47" on="1"/>
        <pt x="288" y="-47" on="1"/>
        <pt x="311" y="-47" on="0"/>
        <pt x="345" y="-13" on="0"/>
      </contour>
    </TTGlyph>
    <TTGlyph name="parenleft" xMin="35" yMin="-146" xMax="321" yMax="743">
      <contour>
        <pt x="321" y="-130" on="1"/>
        <pt x="226" y="-146" on="1"/>
        <pt x="35" y="65" on="0"/>
        <pt x="35" y="298" on="1"/>
        <pt x="35" y="532" on="0"/>
        <pt x="226" y="743" on="1"/>
        <pt x="321" y="727" on="1"/>
        <pt x="234" y="623" on="0"/>
        <pt x="155" y="424" on="0"/>
        <pt x="155" y="172" on="0"/>
        <pt x="235" y="-27" on="0"/>
      </contour>
    </TTGlyph>
    <TTGlyph name="parenright" xMin="12" yMin="-146" xMax="298" yMax="743">
      <contour>
        <pt x="298" y="298" on="1"/>
        <pt x="298" y="65" on="0"/>
        <pt x="107" y="-146" on="1"/>
        <pt x="12" y="-130" on="1"/>
        <pt x="98" y="-27" on="0"/>
        <pt x="178" y="172" on="0"/>
        <pt x="178" y="424" on="0"/>
        <pt x="99" y="623" on="0"/>
        <pt x="12" y="727" on="1"/>
        <pt x="107" y="743" on="1"/>
        <pt x="298" y="532" on="0"/>
      </contour>
    </TTGlyph>
    <TTGlyph name="partialdiff" xMin="32" yMin="-11" xMax="523" yMax="743">
      <contour>
        <pt x="372" y="385" on="1"/>
        <pt x="371" y="423" on="0"/>
        <pt x="355" y="502" on="0"/>
        <pt x="321" y="584" on="0"/>
        <pt x="255" y="636" on="0"/>
        <pt x="212" y="636" on="1"/>
        <pt x="180" y="636" on="0"/>
        <pt x="123" y="616" on="0"/>
        <pt x="110" y="606" on="1"/>
        <pt x="98" y="596" on="1"/>
        <pt x="49" y="671" on="0"/>
        <pt x="48" y="671" on="1"/>
        <pt x="50" y="674" on="0"/>
        <pt x="60" y="684" on="0"/>
        <pt x="95" y="708" on="0"/>
        <pt x="135" y="727" on="0"/>
        <pt x="203" y="743" on="0"/>
        <pt x="240" y="743" on="1"/>
        <pt x="381" y="743" on="0"/>
        <pt x="523" y="524" on="0"/>
        <pt x="523" y="334" on="1"/>
        <pt x="523" y="252" on="0"/>
        <pt x="483" y="125" on="0"/>
        <pt x="423" y="52" on="0"/>
        <pt x="346" y="5" on="0"/>
        <pt x="281" y="-11" on="0"/>
        <pt x="250" y="-11" on="1"/>
        <pt x="216" y="-11" on="0"/>
        <pt x="147" y="9" on="0"/>
        <pt x="76" y="54" on="0"/>
        <pt x="32" y="144" on="0"/>
        <pt x="32" y="206" on="1"/>
        <pt x="32" y="255" on="0"/>
        <pt x="65" y="333" on="0"/>
        <pt x="115" y="380" on="0"/>
        <pt x="177" y="411" on="0"/>
        <pt x="231" y="423" on="0"/>
        <pt x="255" y="423" on="1"/>
        <pt x="280" y="423" on="0"/>
        <pt x="325" y="412" on="0"/>
        <pt x="346" y="402" on="0"/>
        <pt x="359" y="394" on="1"/>
      </contour>
      <contour>
        <pt x="370" y="293" on="1"/>
        <pt x="338" y="325" on="0"/>
        <pt x="280" y="325" on="1"/>
        <pt x="246" y="325" on="0"/>
        <pt x="197" y="293" on="0"/>
        <pt x="175" y="245" on="0"/>
        <pt x="165" y="208" on="0"/>
        <pt x="165" y="196" on="1"/>
        <pt x="165" y="183" on="0"/>
        <pt x="169" y="159" on="0"/>
        <pt x="183" y="115" on="0"/>
        <pt x="223" y="88" on="0"/>
        <pt x="253" y="88" on="1"/>
        <pt x="288" y="88" on="0"/>
        <pt x="338" y="142" on="0"/>
        <pt x="361" y="219" on="0"/>
        <pt x="370" y="276" on="0"/>
      </contour>
    </TTGlyph>
    <TTGlyph name="percent" xMin="33" yMin="-12" xMax="842" yMax="713">
      <contour>
        <pt x="797" y="348" on="1"/>
        <pt x="842" y="291" on="0"/>
        <pt x="842" y="111" on="0"/>
        <pt x="753" y="-4" on="0"/>
        <pt x="665" y="-4" on="1"/>
        <pt x="577" y="-4" on="0"/>
        <pt x="488" y="111" on="0"/>
        <pt x="488" y="291" on="0"/>
        <pt x="577" y="405" on="0"/>
        <pt x="665" y="405" on="1"/>
        <pt x="753" y="405" on="0"/>
      </contour>
      <contour>
        <pt x="640" y="699" on="1"/>
        <pt x="294" y="-12" on="1"/>
        <pt x="227" y="-12" on="1"/>
        <pt x="549" y="645" on="1"/>
        <pt x="350" y="645" on="1"/>
        <pt x="387" y="590" on="0"/>
        <pt x="387" y="509" on="1"/>
        <pt x="387" y="419" on="0"/>
        <pt x="297" y="304" on="0"/>
        <pt x="210" y="304" on="1"/>
        <pt x="122" y="304" on="0"/>
        <pt x="33" y="419" on="0"/>
        <pt x="33" y="599" on="0"/>
        <pt x="122" y="713" on="0"/>
        <pt x="210" y="713" on="1"/>
        <pt x="252" y="713" on="0"/>
        <pt x="284" y="699" on="1"/>
      </contour>
      <contour>
        <pt x="733" y="201" on="1"/>
        <pt x="733" y="326" on="0"/>
        <pt x="665" y="326" on="1"/>
        <pt x="597" y="326" on="0"/>
        <pt x="597" y="201" on="1"/>
        <pt x="597" y="75" on="0"/>
        <pt x="665" y="75" on="1"/>
        <pt x="733" y="75" on="0"/>
      </contour>
      <contour>
        <pt x="278" y="509" on="1"/>
        <pt x="278" y="634" on="0"/>
        <pt x="210" y="634" on="1"/>
        <pt x="142" y="634" on="0"/>
        <pt x="142" y="509" on="1"/>
        <pt x="142" y="383" on="0"/>
        <pt x="210" y="383" on="1"/>
        <pt x="278" y="383" on="0"/>
      </contour>
    </TTGlyph>
    <TTGlyph name="period" xMin="29" yMin="-12" xMax="183" yMax="143">
      <contour>
        <pt x="160" y="120" on="1"/>
        <pt x="183" y="97" on="0"/>
        <pt x="183" y="33" on="0"/>
        <pt x="138" y="-12" on="0"/>
        <pt x="106" y="-12" on="1"/>
        <pt x="74" y="-12" on="0"/>
        <pt x="29" y="33" on="0"/>
        <pt x="29" y="97" on="0"/>
        <pt x="74" y="143" on="0"/>
        <pt x="106" y="143" on="1"/>
        <pt x="138" y="143" on="0"/>
      </contour>
    </TTGlyph>
    <TTGlyph name="periodcentered" xMin="68" yMin="181" xMax="222" yMax="336">
      <contour>
        <pt x="199" y="313" on="1"/>
        <pt x="222" y="290" on="0"/>
        <pt x="222" y="226" on="0"/>
        <pt x="177" y="181" on="0"/>
        <pt x="145" y="181" on="1"/>
        <pt x="113" y="181" on="0"/>
        <pt x="68" y="226" on="0"/>
        <pt x="68" y="290" on="0"/>
        <pt x="113" y="336" on="0"/>
        <pt x="145" y="336" on="1"/>
        <pt x="177" y="336" on="0"/>
      </contour>
    </TTGlyph>
    <TTGlyph name="perthousand" xMin="33" yMin="-13" xMax="1171" yMax="713">
      <contour>
        <pt x="1126" y="348" on="1"/>
        <pt x="1171" y="291" on="0"/>
        <pt x="1171" y="111" on="0"/>
        <pt x="1082" y="-4" on="0"/>
        <pt x="994" y="-4" on="1"/>
        <pt x="906" y="-4" on="0"/>
        <pt x="817" y="111" on="0"/>
        <pt x="817" y="291" on="0"/>
        <pt x="906" y="405" on="0"/>
        <pt x="994" y="405" on="1"/>
        <pt x="1082" y="405" on="0"/>
      </contour>
      <contour>
        <pt x="740" y="348" on="1"/>
        <pt x="785" y="291" on="0"/>
        <pt x="785" y="111" on="0"/>
        <pt x="696" y="-4" on="0"/>
        <pt x="608" y="-4" on="1"/>
        <pt x="520" y="-4" on="0"/>
        <pt x="431" y="111" on="0"/>
        <pt x="431" y="291" on="0"/>
        <pt x="520" y="405" on="0"/>
        <pt x="608" y="405" on="1"/>
        <pt x="696" y="405" on="0"/>
      </contour>
      <contour>
        <pt x="611" y="699" on="1"/>
        <pt x="264" y="-13" on="1"/>
        <pt x="197" y="-13" on="1"/>
        <pt x="520" y="645" on="1"/>
        <pt x="350" y="645" on="1"/>
        <pt x="387" y="590" on="0"/>
        <pt x="387" y="509" on="1"/>
        <pt x="387" y="419" on="0"/>
        <pt x="297" y="304" on="0"/>
        <pt x="210" y="304" on="1"/>
        <pt x="122" y="304" on="0"/>
        <pt x="33" y="419" on="0"/>
        <pt x="33" y="599" on="0"/>
        <pt x="122" y="713" on="0"/>
        <pt x="210" y="713" on="1"/>
        <pt x="252" y="713" on="0"/>
        <pt x="284" y="699" on="1"/>
      </contour>
      <contour>
        <pt x="1062" y="201" on="1"/>
        <pt x="1062" y="326" on="0"/>
        <pt x="994" y="326" on="1"/>
        <pt x="926" y="326" on="0"/>
        <pt x="926" y="201" on="1"/>
        <pt x="926" y="75" on="0"/>
        <pt x="994" y="75" on="1"/>
        <pt x="1062" y="75" on="0"/>
      </contour>
      <contour>
        <pt x="676" y="201" on="1"/>
        <pt x="676" y="326" on="0"/>
        <pt x="608" y="326" on="1"/>
        <pt x="540" y="326" on="0"/>
        <pt x="540" y="201" on="1"/>
        <pt x="540" y="75" on="0"/>
        <pt x="608" y="75" on="1"/>
        <pt x="676" y="75" on="0"/>
      </contour>
      <contour>
        <pt x="278" y="509" on="1"/>
        <pt x="278" y="634" on="0"/>
        <pt x="210" y="634" on="1"/>
        <pt x="142" y="634" on="0"/>
        <pt x="142" y="509" on="1"/>
        <pt x="142" y="383" on="0"/>
        <pt x="210" y="383" on="1"/>
        <pt x="278" y="383" on="0"/>
      </contour>
    </TTGlyph>
    <TTGlyph name="pi" xMin="15" yMin="-30" xMax="654" yMax="520">
      <contour>
        <pt x="583" y="98" on="1"/>
        <pt x="615" y="31" on="1"/>
        <pt x="574" y="-10" on="0"/>
        <pt x="507" y="-10" on="1"/>
        <pt x="438" y="-10" on="0"/>
        <pt x="371" y="96" on="0"/>
        <pt x="371" y="170" on="1"/>
        <pt x="371" y="335" on="0"/>
        <pt x="424" y="407" on="1"/>
        <pt x="293" y="407" on="1"/>
        <pt x="293" y="380" on="1"/>
        <pt x="293" y="340" on="0"/>
        <pt x="292" y="296" on="0"/>
        <pt x="288" y="220" on="0"/>
        <pt x="279" y="172" on="0"/>
        <pt x="263" y="108" on="0"/>
        <pt x="236" y="63" on="0"/>
        <pt x="200" y="16" on="0"/>
        <pt x="149" y="-18" on="0"/>
        <pt x="117" y="-30" on="1"/>
        <pt x="80" y="25" on="1"/>
        <pt x="121" y="51" on="0"/>
        <pt x="170" y="134" on="0"/>
        <pt x="170" y="181" on="1"/>
        <pt x="170" y="371" on="1"/>
        <pt x="170" y="372" on="0"/>
        <pt x="177" y="407" on="1"/>
        <pt x="165" y="407" on="1"/>
        <pt x="134" y="407" on="0"/>
        <pt x="88" y="359" on="0"/>
        <pt x="82" y="326" on="1"/>
        <pt x="15" y="344" on="1"/>
        <pt x="22" y="417" on="0"/>
        <pt x="115" y="497" on="0"/>
        <pt x="189" y="497" on="1"/>
        <pt x="517" y="497" on="1"/>
        <pt x="551" y="497" on="0"/>
        <pt x="589" y="506" on="0"/>
        <pt x="620" y="520" on="1"/>
        <pt x="654" y="462" on="1"/>
        <pt x="634" y="434" on="0"/>
        <pt x="572" y="412" on="0"/>
        <pt x="526" y="407" on="1"/>
        <pt x="487" y="271" on="0"/>
        <pt x="487" y="171" on="1"/>
        <pt x="487" y="137" on="0"/>
        <pt x="514" y="90" on="0"/>
        <pt x="545" y="90" on="1"/>
        <pt x="564" y="90" on="0"/>
      </contour>
    </TTGlyph>
    <TTGlyph name="plus" xMin="67" yMin="0" xMax="565" yMax="497">
      <contour>
        <pt x="565" y="205" on="1"/>
        <pt x="360" y="205" on="1"/>
        <pt x="360" y="0" on="1"/>
        <pt x="272" y="0" on="1"/>
        <pt x="272" y="204" on="1"/>
        <pt x="67" y="204" on="1"/>
        <pt x="67" y="292" on="1"/>
        <pt x="272" y="292" on="1"/>
        <pt x="272" y="497" on="1"/>
        <pt x="360" y="497" on="1"/>
        <pt x="360" y="293" on="1"/>
        <pt x="565" y="293" on="1"/>
      </contour>
    </TTGlyph>
    <TTGlyph name="plusminus" xMin="67" yMin="1" xMax="565" yMax="497">
      <contour>
        <pt x="565" y="267" on="1"/>
        <pt x="360" y="267" on="1"/>
        <pt x="360" y="120" on="1"/>
        <pt x="272" y="120" on="1"/>
        <pt x="272" y="266" on="1"/>
        <pt x="67" y="266" on="1"/>
        <pt x="67" y="351" on="1"/>
        <pt x="272" y="351" on="1"/>
        <pt x="272" y="497" on="1"/>
        <pt x="360" y="497" on="1"/>
        <pt x="360" y="352" on="1"/>
        <pt x="565" y="352" on="1"/>
      </contour>
      <contour>
        <pt x="565" y="1" on="1"/>
        <pt x="69" y="1" on="1"/>
        <pt x="69" y="89" on="1"/>
        <pt x="565" y="89" on="1"/>
      </contour>
    </TTGlyph>
    <TTGlyph name="product" xMin="18" yMin="-229" xMax="815" yMax="732">
      <contour>
        <pt x="708" y="-229" on="1"/>
        <pt x="565" y="-229" on="1"/>
        <pt x="565" y="633" on="1"/>
        <pt x="266" y="633" on="1"/>
        <pt x="266" y="-229" on="1"/>
        <pt x="123" y="-229" on="1"/>
        <pt x="123" y="633" on="1"/>
        <pt x="18" y="633" on="1"/>
        <pt x="18" y="732" on="1"/>
        <pt x="815" y="732" on="1"/>
        <pt x="815" y="633" on="1"/>
        <pt x="708" y="633" on="1"/>
      </contour>
    </TTGlyph>
    <TTGlyph name="q" xMin="27" yMin="-217" xMax="502" yMax="509">
      <contour>
        <pt x="502" y="-217" on="1"/>
        <pt x="368" y="-217" on="1"/>
        <pt x="368" y="-35" on="1"/>
        <pt x="368" y="-10" on="0"/>
        <pt x="370" y="32" on="0"/>
        <pt x="370" y="41" on="1"/>
        <pt x="309" y="-11" on="0"/>
        <pt x="229" y="-11" on="1"/>
        <pt x="135" y="-11" on="0"/>
        <pt x="27" y="147" on="0"/>
        <pt x="27" y="246" on="1"/>
        <pt x="27" y="357" on="0"/>
        <pt x="153" y="509" on="0"/>
        <pt x="261" y="509" on="1"/>
        <pt x="353" y="509" on="0"/>
        <pt x="409" y="441" on="1"/>
        <pt x="430" y="497" on="1"/>
        <pt x="492" y="497" on="1"/>
        <pt x="489" y="464" on="0"/>
        <pt x="489" y="433" on="1"/>
        <pt x="489" y="-162" on="1"/>
        <pt x="489" y="-163" on="0"/>
        <pt x="495" y="-188" on="0"/>
        <pt x="502" y="-215" on="0"/>
      </contour>
      <contour>
        <pt x="368" y="125" on="1"/>
        <pt x="368" y="293" on="1"/>
        <pt x="368" y="350" on="0"/>
        <pt x="318" y="428" on="0"/>
        <pt x="265" y="428" on="1"/>
        <pt x="234" y="428" on="0"/>
        <pt x="190" y="393" on="0"/>
        <pt x="167" y="336" on="0"/>
        <pt x="157" y="276" on="0"/>
        <pt x="157" y="244" on="1"/>
        <pt x="157" y="206" on="0"/>
        <pt x="177" y="134" on="0"/>
        <pt x="231" y="76" on="0"/>
        <pt x="270" y="76" on="1"/>
        <pt x="326" y="76" on="0"/>
      </contour>
    </TTGlyph>
    <TTGlyph name="question" xMin="20" yMin="-12" xMax="403" yMax="722">
      <contour>
        <pt x="403" y="544" on="1"/>
        <pt x="403" y="474" on="0"/>
        <pt x="321" y="387" on="0"/>
        <pt x="251" y="357" on="1"/>
        <pt x="238" y="351" on="0"/>
        <pt x="238" y="336" on="1"/>
        <pt x="238" y="217" on="1"/>
        <pt x="131" y="217" on="1"/>
        <pt x="131" y="422" on="1"/>
        <pt x="184" y="426" on="0"/>
        <pt x="274" y="487" on="0"/>
        <pt x="274" y="537" on="1"/>
        <pt x="274" y="578" on="0"/>
        <pt x="212" y="625" on="0"/>
        <pt x="170" y="625" on="1"/>
        <pt x="118" y="625" on="0"/>
        <pt x="66" y="590" on="1"/>
        <pt x="20" y="678" on="1"/>
        <pt x="88" y="722" on="0"/>
        <pt x="183" y="722" on="1"/>
        <pt x="271" y="722" on="0"/>
        <pt x="403" y="629" on="0"/>
      </contour>
      <contour>
        <pt x="238" y="120" on="1"/>
        <pt x="261" y="97" on="0"/>
        <pt x="261" y="33" on="0"/>
        <pt x="216" y="-12" on="0"/>
        <pt x="184" y="-12" on="1"/>
        <pt x="152" y="-12" on="0"/>
        <pt x="107" y="33" on="0"/>
        <pt x="107" y="97" on="0"/>
        <pt x="152" y="143" on="0"/>
        <pt x="184" y="143" on="1"/>
        <pt x="216" y="143" on="0"/>
      </contour>
    </TTGlyph>
    <TTGlyph name="questiondown" xMin="26" yMin="-122" xMax="409" yMax="613">
      <contour>
        <pt x="409" y="-78" on="1"/>
        <pt x="341" y="-122" on="0"/>
        <pt x="246" y="-122" on="1"/>
        <pt x="157" y="-122" on="0"/>
        <pt x="26" y="-29" on="0"/>
        <pt x="26" y="56" on="1"/>
        <pt x="26" y="183" on="0"/>
        <pt x="178" y="243" on="1"/>
        <pt x="191" y="248" on="0"/>
        <pt x="191" y="264" on="1"/>
        <pt x="191" y="383" on="1"/>
        <pt x="298" y="383" on="1"/>
        <pt x="298" y="178" on="1"/>
        <pt x="245" y="174" on="0"/>
        <pt x="155" y="113" on="0"/>
        <pt x="155" y="64" on="1"/>
        <pt x="155" y="23" on="0"/>
        <pt x="217" y="-25" on="0"/>
        <pt x="259" y="-25" on="1"/>
        <pt x="311" y="-25" on="0"/>
        <pt x="363" y="10" on="1"/>
      </contour>
      <contour>
        <pt x="299" y="590" on="1"/>
        <pt x="322" y="567" on="0"/>
        <pt x="322" y="503" on="0"/>
        <pt x="277" y="458" on="0"/>
        <pt x="245" y="458" on="1"/>
        <pt x="213" y="458" on="0"/>
        <pt x="168" y="503" on="0"/>
        <pt x="168" y="567" on="0"/>
        <pt x="213" y="613" on="0"/>
        <pt x="245" y="613" on="1"/>
        <pt x="277" y="613" on="0"/>
      </contour>
    </TTGlyph>
    <TTGlyph name="quotedbl" xMin="63" yMin="449" xMax="304" yMax="732">
      <contour>
        <pt x="304" y="559" on="1"/>
        <pt x="268" y="449" on="1"/>
        <pt x="246" y="449" on="1"/>
        <pt x="210" y="559" on="1"/>
        <pt x="210" y="732" on="1"/>
        <pt x="304" y="732" on="1"/>
      </contour>
      <contour>
        <pt x="157" y="559" on="1"/>
        <pt x="121" y="449" on="1"/>
        <pt x="100" y="449" on="1"/>
        <pt x="99" y="452" on="0"/>
        <pt x="81" y="507" on="0"/>
        <pt x="72" y="533" on="1"/>
        <pt x="63" y="559" on="1"/>
        <pt x="63" y="732" on="1"/>
        <pt x="157" y="732" on="1"/>
      </contour>
    </TTGlyph>
    <TTGlyph name="quotedblbase" xMin="63" yMin="-134" xMax="415" yMax="139">
      <component glyphName="comma" x="30" y="0" flags="0x4"/>
      <component glyphName="comma" x="232" y="0" flags="0x4"/>
    </TTGlyph>
    <TTGlyph name="quotedblleft" xMin="66" yMin="466" xMax="418" yMax="739">
      <component glyphName="quoteleft" x="-2" y="0" flags="0x4"/>
      <component glyphName="quoteleft" x="200" y="0" flags="0x4"/>
    </TTGlyph>
    <TTGlyph name="quotedblright" xMin="78" yMin="472" xMax="430" yMax="745">
      <component glyphName="quoteright" x="0" y="0" flags="0x4"/>
      <component glyphName="quoteright" x="202" y="0" flags="0x4"/>
    </TTGlyph>
    <TTGlyph name="quoteleft" xMin="68" yMin="466" xMax="218" yMax="739">
      <contour>
        <pt x="218" y="536" on="1"/>
        <pt x="218" y="507" on="0"/>
        <pt x="178" y="466" on="0"/>
        <pt x="149" y="466" on="1"/>
        <pt x="112" y="466" on="0"/>
        <pt x="68" y="521" on="0"/>
        <pt x="68" y="559" on="1"/>
        <pt x="68" y="660" on="0"/>
        <pt x="177" y="739" on="1"/>
        <pt x="204" y="712" on="0"/>
        <pt x="216" y="698" on="1"/>
        <pt x="201" y="684" on="0"/>
        <pt x="170" y="639" on="0"/>
        <pt x="170" y="625" on="1"/>
        <pt x="170" y="615" on="0"/>
        <pt x="194" y="593" on="0"/>
        <pt x="218" y="560" on="0"/>
      </contour>
    </TTGlyph>
    <TTGlyph name="quoteright" xMin="78" yMin="472" xMax="228" yMax="745">
      <contour>
        <pt x="228" y="652" on="1"/>
        <pt x="228" y="552" on="0"/>
        <pt x="119" y="472" on="1"/>
        <pt x="92" y="499" on="0"/>
        <pt x="80" y="513" on="1"/>
        <pt x="126" y="559" on="0"/>
        <pt x="126" y="586" on="1"/>
        <pt x="126" y="596" on="0"/>
        <pt x="102" y="618" on="0"/>
        <pt x="78" y="651" on="0"/>
        <pt x="78" y="675" on="1"/>
        <pt x="78" y="705" on="0"/>
        <pt x="117" y="745" on="0"/>
        <pt x="147" y="745" on="1"/>
        <pt x="184" y="745" on="0"/>
        <pt x="228" y="690" on="0"/>
      </contour>
    </TTGlyph>
    <TTGlyph name="quotesinglbase" xMin="70" yMin="-134" xMax="220" yMax="139">
      <component glyphName="comma" x="37" y="0" flags="0x4"/>
    </TTGlyph>
    <TTGlyph name="quotesingle" xMin="63" yMin="449" xMax="157" yMax="732">
      <contour>
        <pt x="157" y="559" on="1"/>
        <pt x="121" y="449" on="1"/>
        <pt x="100" y="449" on="1"/>
        <pt x="99" y="452" on="0"/>
        <pt x="81" y="507" on="0"/>
        <pt x="72" y="533" on="1"/>
        <pt x="63" y="559" on="1"/>
        <pt x="63" y="732" on="1"/>
        <pt x="157" y="732" on="1"/>
      </contour>
    </TTGlyph>
    <TTGlyph name="r" xMin="36" yMin="0" xMax="352" yMax="507">
      <contour>
        <pt x="352" y="507" on="1"/>
        <pt x="332" y="388" on="1"/>
        <pt x="328" y="388" on="1"/>
        <pt x="284" y="388" on="0"/>
        <pt x="219" y="339" on="0"/>
        <pt x="188" y="296" on="1"/>
        <pt x="188" y="0" on="1"/>
        <pt x="68" y="0" on="1"/>
        <pt x="68" y="363" on="1"/>
        <pt x="68" y="454" on="0"/>
        <pt x="36" y="497" on="1"/>
        <pt x="163" y="507" on="1"/>
        <pt x="185" y="457" on="0"/>
        <pt x="187" y="402" on="1"/>
        <pt x="213" y="446" on="0"/>
        <pt x="304" y="507" on="0"/>
      </contour>
    </TTGlyph>
    <TTGlyph name="radical" xMin="-78" yMin="-230" xMax="667" yMax="968">
      <contour>
        <pt x="307" y="-230" on="1"/>
        <pt x="191" y="-230" on="1"/>
        <pt x="43" y="206" on="1"/>
        <pt x="-51" y="176" on="1"/>
        <pt x="-78" y="257" on="1"/>
        <pt x="122" y="324" on="1"/>
        <pt x="256" y="-78" on="1"/>
        <pt x="569" y="968" on="1"/>
        <pt x="667" y="968" on="1"/>
      </contour>
    </TTGlyph>
    <TTGlyph name="registered" xMin="21" yMin="399" xMax="442" yMax="821">
      <contour>
        <pt x="380" y="759" on="1"/>
        <pt x="442" y="697" on="0"/>
        <pt x="442" y="523" on="0"/>
        <pt x="318" y="399" on="0"/>
        <pt x="231" y="399" on="1"/>
        <pt x="144" y="399" on="0"/>
        <pt x="21" y="523" on="0"/>
        <pt x="21" y="697" on="0"/>
        <pt x="144" y="821" on="0"/>
        <pt x="231" y="821" on="1"/>
        <pt x="318" y="821" on="0"/>
      </contour>
      <contour>
        <pt x="407" y="610" on="1"/>
        <pt x="407" y="682" on="0"/>
        <pt x="304" y="785" on="0"/>
        <pt x="231" y="785" on="1"/>
        <pt x="159" y="785" on="0"/>
        <pt x="56" y="683" on="0"/>
        <pt x="56" y="537" on="0"/>
        <pt x="159" y="435" on="0"/>
        <pt x="231" y="435" on="1"/>
        <pt x="304" y="435" on="0"/>
        <pt x="407" y="537" on="0"/>
      </contour>
      <contour>
        <pt x="353" y="497" on="1"/>
        <pt x="282" y="497" on="1"/>
        <pt x="216" y="593" on="1"/>
        <pt x="206" y="593" on="1"/>
        <pt x="206" y="497" on="1"/>
        <pt x="146" y="497" on="1"/>
        <pt x="146" y="732" on="1"/>
        <pt x="239" y="732" on="1"/>
        <pt x="322" y="732" on="0"/>
        <pt x="322" y="663" on="1"/>
        <pt x="322" y="623" on="0"/>
        <pt x="279" y="604" on="1"/>
      </contour>
      <contour>
        <pt x="262" y="665" on="1"/>
        <pt x="262" y="685" on="0"/>
        <pt x="232" y="685" on="1"/>
        <pt x="206" y="685" on="1"/>
        <pt x="206" y="640" on="1"/>
        <pt x="225" y="640" on="1"/>
        <pt x="262" y="640" on="0"/>
      </contour>
    </TTGlyph>
    <TTGlyph name="ring" xMin="34" yMin="531" xMax="249" yMax="745">
      <contour>
        <pt x="217" y="713" on="1"/>
        <pt x="249" y="682" on="0"/>
        <pt x="249" y="594" on="0"/>
        <pt x="185" y="531" on="0"/>
        <pt x="141" y="531" on="1"/>
        <pt x="97" y="531" on="0"/>
        <pt x="34" y="594" on="0"/>
        <pt x="34" y="682" on="0"/>
        <pt x="97" y="745" on="0"/>
        <pt x="141" y="745" on="1"/>
        <pt x="185" y="745" on="0"/>
      </contour>
      <contour>
        <pt x="111" y="666" on="1"/>
        <pt x="100" y="654" on="0"/>
        <pt x="100" y="620" on="0"/>
        <pt x="123" y="597" on="0"/>
        <pt x="140" y="597" on="1"/>
        <pt x="157" y="597" on="0"/>
        <pt x="181" y="620" on="0"/>
        <pt x="181" y="654" on="0"/>
        <pt x="157" y="678" on="0"/>
        <pt x="140" y="678" on="1"/>
        <pt x="123" y="678" on="0"/>
      </contour>
    </TTGlyph>
    <TTGlyph name="s" xMin="32" yMin="-14" xMax="393" yMax="510">
      <contour>
        <pt x="393" y="155" on="1"/>
        <pt x="393" y="78" on="0"/>
        <pt x="277" y="-14" on="0"/>
        <pt x="198" y="-14" on="1"/>
        <pt x="110" y="-14" on="0"/>
        <pt x="32" y="29" on="1"/>
        <pt x="75" y="111" on="1"/>
        <pt x="143" y="71" on="0"/>
        <pt x="188" y="71" on="1"/>
        <pt x="220" y="71" on="0"/>
        <pt x="263" y="104" on="0"/>
        <pt x="263" y="135" on="1"/>
        <pt x="263" y="162" on="0"/>
        <pt x="218" y="198" on="0"/>
        <pt x="154" y="220" on="0"/>
        <pt x="89" y="249" on="0"/>
        <pt x="44" y="309" on="0"/>
        <pt x="44" y="354" on="1"/>
        <pt x="44" y="429" on="0"/>
        <pt x="159" y="510" on="0"/>
        <pt x="236" y="510" on="1"/>
        <pt x="321" y="510" on="0"/>
        <pt x="383" y="479" on="1"/>
        <pt x="341" y="395" on="1"/>
        <pt x="297" y="429" on="0"/>
        <pt x="242" y="429" on="1"/>
        <pt x="214" y="429" on="0"/>
        <pt x="174" y="402" on="0"/>
        <pt x="174" y="376" on="1"/>
        <pt x="174" y="351" on="0"/>
        <pt x="219" y="319" on="0"/>
        <pt x="284" y="296" on="0"/>
        <pt x="348" y="266" on="0"/>
        <pt x="393" y="203" on="0"/>
      </contour>
    </TTGlyph>
    <TTGlyph name="scaron" xMin="32" yMin="-14" xMax="393" yMax="736">
      <component glyphName="caron" x="76" y="3" flags="0x4"/>
      <component glyphName="s" x="0" y="0" flags="0x4"/>
    </TTGlyph>
    <TTGlyph name="section" xMin="29" yMin="-68" xMax="474" yMax="742">
      <contour>
        <pt x="39" y="-21" on="1"/>
        <pt x="97" y="66" on="1"/>
        <pt x="146" y="28" on="0"/>
        <pt x="209" y="28" on="1"/>
        <pt x="248" y="28" on="0"/>
        <pt x="299" y="57" on="0"/>
        <pt x="299" y="111" on="0"/>
        <pt x="243" y="150" on="0"/>
        <pt x="164" y="181" on="0"/>
        <pt x="85" y="222" on="0"/>
        <pt x="29" y="301" on="0"/>
        <pt x="29" y="357" on="1"/>
        <pt x="29" y="441" on="0"/>
        <pt x="108" y="491" on="1"/>
        <pt x="80" y="527" on="0"/>
        <pt x="80" y="581" on="1"/>
        <pt x="80" y="664" on="0"/>
        <pt x="204" y="742" on="0"/>
        <pt x="300" y="742" on="1"/>
        <pt x="348" y="742" on="0"/>
        <pt x="444" y="712" on="0"/>
        <pt x="464" y="695" on="1"/>
        <pt x="406" y="608" on="1"/>
        <pt x="357" y="646" on="0"/>
        <pt x="294" y="646" on="1"/>
        <pt x="255" y="646" on="0"/>
        <pt x="204" y="617" on="0"/>
        <pt x="204" y="563" on="0"/>
        <pt x="260" y="524" on="0"/>
        <pt x="339" y="493" on="0"/>
        <pt x="418" y="452" on="0"/>
        <pt x="474" y="373" on="0"/>
        <pt x="474" y="317" on="1"/>
        <pt x="474" y="233" on="0"/>
        <pt x="394" y="183" on="1"/>
        <pt x="423" y="146" on="0"/>
        <pt x="423" y="93" on="1"/>
        <pt x="423" y="10" on="0"/>
        <pt x="299" y="-68" on="0"/>
        <pt x="203" y="-68" on="1"/>
        <pt x="155" y="-68" on="0"/>
        <pt x="59" y="-38" on="0"/>
      </contour>
      <contour>
        <pt x="186" y="433" on="1"/>
        <pt x="152" y="411" on="0"/>
        <pt x="152" y="376" on="1"/>
        <pt x="152" y="353" on="0"/>
        <pt x="169" y="318" on="0"/>
        <pt x="209" y="291" on="0"/>
        <pt x="240" y="274" on="0"/>
        <pt x="302" y="248" on="0"/>
        <pt x="316" y="241" on="1"/>
        <pt x="351" y="262" on="0"/>
        <pt x="351" y="298" on="1"/>
        <pt x="351" y="321" on="0"/>
        <pt x="333" y="356" on="0"/>
        <pt x="295" y="383" on="0"/>
        <pt x="261" y="400" on="0"/>
        <pt x="202" y="425" on="0"/>
      </contour>
    </TTGlyph>
    <TTGlyph name="semicolon" xMin="90" yMin="-134" xMax="244" yMax="432">
      <contour>
        <pt x="221" y="409" on="1"/>
        <pt x="244" y="386" on="0"/>
        <pt x="244" y="322" on="0"/>
        <pt x="199" y="277" on="0"/>
        <pt x="167" y="277" on="1"/>
        <pt x="135" y="277" on="0"/>
        <pt x="90" y="322" on="0"/>
        <pt x="90" y="386" on="0"/>
        <pt x="135" y="432" on="0"/>
        <pt x="167" y="432" on="1"/>
        <pt x="199" y="432" on="0"/>
      </contour>
      <contour>
        <pt x="243" y="46" on="1"/>
        <pt x="243" y="-55" on="0"/>
        <pt x="134" y="-134" on="1"/>
        <pt x="107" y="-107" on="0"/>
        <pt x="95" y="-93" on="1"/>
        <pt x="110" y="-79" on="0"/>
        <pt x="141" y="-34" on="0"/>
        <pt x="141" y="-20" on="1"/>
        <pt x="141" y="-10" on="0"/>
        <pt x="117" y="12" on="0"/>
        <pt x="93" y="45" on="0"/>
        <pt x="93" y="69" on="1"/>
        <pt x="93" y="98" on="0"/>
        <pt x="133" y="139" on="0"/>
        <pt x="162" y="139" on="1"/>
        <pt x="199" y="139" on="0"/>
        <pt x="243" y="84" on="0"/>
      </contour>
    </TTGlyph>
    <TTGlyph name="seven" xMin="-11" yMin="-189" xMax="428" yMax="497">
      <contour>
        <pt x="428" y="434" on="1"/>
        <pt x="143" y="-189" on="1"/>
        <pt x="7" y="-189" on="1"/>
        <pt x="277" y="386" on="1"/>
        <pt x="-11" y="386" on="1"/>
        <pt x="21" y="497" on="1"/>
        <pt x="428" y="497" on="1"/>
      </contour>
    </TTGlyph>
</ttFont>
